<svg width="180" height="190" viewBox="0 0 180 190" fill="none" xmlns="http://www.w3.org/2000/svg">
<g clip-path="url(#clip0_404_1430)">
<path d="M90.1868 189.743C93.2468 189.743 96.2568 188.893 98.9168 187.273L160.887 149.613C166.427 146.243 169.857 139.913 169.857 133.073V58.3627C169.857 51.5427 166.427 45.2027 160.887 41.8227L98.9168 4.16274C93.5868 0.92274 86.7668 0.94274 81.4668 4.16274L19.4968 41.8427C13.9568 45.2127 10.5068 51.5427 10.5068 58.3827V133.083C10.5068 138.843 12.9568 144.263 17.0568 147.833V147.863L81.4668 187.293C84.1068 188.893 87.1268 189.743 90.1868 189.743ZM90.8368 8.69274C92.7868 8.69274 95.2668 9.90274 96.9768 10.9527L157.737 48.1427C161.487 50.4227 163.607 57.0227 163.607 61.7727L162.977 133.073C162.977 137.823 159.777 142.093 156.027 144.373L95.6268 180.753C92.1968 182.843 89.4068 182.843 85.9668 180.753L24.7568 144.283C21.0068 142.003 17.9868 137.803 17.9868 133.073V59.4327C17.9868 54.6927 20.7168 49.8027 24.4868 47.5127L85.0668 10.9527C86.7668 9.91274 88.8868 8.69274 90.8368 8.69274Z" fill="#F2F1F0"/>
<path fill-rule="evenodd" clip-rule="evenodd" d="M98.0864 12.2715C95.6364 10.7715 92.9164 10.0215 90.1864 10.0215C87.4564 10.0215 84.7364 10.7815 82.2864 12.2715L26.1564 46.6015C21.1364 49.6715 18.0264 55.4215 18.0264 61.6715V129.771C18.0264 136.001 21.1264 141.771 26.1564 144.841L82.2864 179.171C84.7364 180.671 87.4564 181.421 90.1864 181.421C92.9164 181.421 95.6364 180.681 98.0864 179.171L154.216 144.841C159.236 141.771 162.346 136.001 162.346 129.771V61.6715C162.346 55.4415 159.246 49.6915 154.216 46.6015L98.0864 12.2715Z" fill="url(#paint0_linear_404_1430)"/>
<path d="M90.1846 9.80469C92.682 9.8047 95.035 10.8852 96.959 11.9893L97.7568 12.4609L154.583 47.0078C159.413 49.9433 162.412 55.4566 162.412 61.4639V129.974C162.412 135.981 159.413 141.494 154.583 144.43L97.7568 178.977L97.7559 178.976C95.588 180.294 92.9556 181.447 90.1748 181.447C87.3936 181.447 84.7699 180.285 82.6025 178.967L25.7764 144.42C23.5705 143.083 21.5455 141.512 20.1084 139.149H20.1074C18.6703 136.777 17.9473 133.842 17.9473 129.974V61.4639C17.9473 55.4566 20.9463 49.9433 25.7764 47.0078L82.6123 12.4512L82.6484 12.4297H82.6582C84.6859 11.2095 87.3372 9.80469 90.1846 9.80469ZM90.1846 13.9932C88.5876 13.9932 86.8113 14.8258 84.7793 16.041L27.9541 50.5879C24.4537 52.7169 22.1357 56.8179 22.1357 61.4639V129.974C22.1358 133.318 22.7545 135.447 23.6885 136.972L23.8691 137.256C24.7987 138.652 26.1316 139.733 27.9551 140.849L84.7998 175.386C86.6953 176.537 88.5334 177.25 90.1943 177.25C91.8553 177.25 93.6934 176.537 95.5889 175.386L152.415 140.839C155.915 138.71 158.233 134.6 158.233 129.964V61.4541C158.233 56.8083 155.915 52.7082 152.415 50.5791L95.5791 16.0322C93.5779 14.8179 91.7723 13.9932 90.1846 13.9932Z" fill="url(#paint1_linear_404_1430)" stroke="black" stroke-width="0.3"/>
<path d="M90.1855 7.3418C93.1207 7.34185 95.8625 8.7935 97.9736 10.0742L156.434 45.6143C161.401 48.6333 164.485 54.3038 164.485 60.4824V130.962C164.485 137.141 161.401 142.811 156.434 145.83L97.9736 181.37C95.7437 182.726 93.0355 183.912 90.1758 183.912C87.3156 183.912 84.6172 182.716 82.3877 181.36L23.9277 145.82C21.6586 144.445 19.5756 142.83 18.0977 140.4H18.0967C16.6186 137.961 15.875 134.941 15.875 130.962V60.4824C15.875 54.3036 18.96 48.6333 23.9277 45.6143L82.3975 10.0645L82.4336 10.042H82.4443C84.5304 8.78662 87.2573 7.3418 90.1855 7.3418ZM90.1855 11.6426C88.5412 11.6426 86.7128 12.5006 84.6221 13.751L84.6211 13.75L26.1631 49.29C22.5607 51.4811 20.1758 55.7014 20.1758 60.4824V130.962C20.1758 134.403 20.812 136.594 21.7734 138.164L21.959 138.456C22.9157 139.893 24.2877 141.006 26.1641 142.154L84.6436 177.684C86.5939 178.868 88.4854 179.603 90.1953 179.603C91.9052 179.603 93.7968 178.868 95.7471 177.684L154.207 142.144C157.809 139.953 160.195 135.723 160.195 130.952V60.4727C160.195 55.6917 157.809 51.4714 154.207 49.2803L95.7373 13.7402C93.6787 12.4911 91.8202 11.6426 90.1855 11.6426Z" fill="url(#paint2_linear_404_1430)" stroke="black" stroke-width="0.3"/>
<path opacity="0.15" d="M141.932 131.923C142.173 132.055 143.611 132.687 144.095 132.848C144.143 132.863 144.189 132.884 144.231 132.911L145.136 133.498C145.452 133.703 145.439 134.168 145.113 134.355L92.2864 164.702C90.8118 165.551 88.9975 165.543 87.5384 164.671L33.6383 133.47C33.3084 133.279 33.3031 132.804 33.6287 132.606L34.6313 131.996C34.9618 131.795 35.2281 131.088 35.279 130.705C35.3266 130.347 35.4332 129.998 35.5571 129.934L89.3604 99.376C89.9394 99.0674 90.6883 99.0674 91.2673 99.376L141.932 131.923Z" fill="#1F1D20"/>
<path d="M89.8896 101.178L146.281 128.689L148.495 129.027L148.624 129.047L148.622 129.177V129.22C148.622 129.247 148.622 129.287 148.621 129.336C148.62 129.433 148.618 129.565 148.617 129.704C148.615 129.983 148.612 130.292 148.612 130.413C148.612 130.589 148.493 130.737 148.361 130.821L148.354 130.825L91.4658 163.484C90.6961 163.93 89.6886 163.93 88.9121 163.485L31.6611 130.639V130.638C31.5792 130.601 31.5176 130.536 31.4775 130.472C31.4333 130.4 31.4033 130.312 31.4033 130.227C31.4033 130.087 31.4006 129.73 31.3975 129.408C31.3959 129.247 31.3938 129.094 31.3926 128.982C31.392 128.927 31.3919 128.88 31.3916 128.849C31.3914 128.833 31.3917 128.821 31.3916 128.812C31.3916 128.808 31.3906 128.805 31.3906 128.803V128.799L31.3896 128.702L31.4775 128.662L33.7822 127.581L89.7598 101.177L89.8252 101.146L89.8896 101.178Z" fill="url(#paint3_linear_404_1430)" stroke="black" stroke-width="0.3"/>
<path d="M88.7998 95.2188C89.4295 94.8836 90.2138 94.8829 90.8369 95.2188L90.8408 95.2217L148.388 128.532L148.392 128.535C148.709 128.732 148.704 129.179 148.396 129.381L148.388 129.386L91.4648 162.02L91.4619 162.021C90.6497 162.464 89.6803 162.465 88.9023 162.02L31.6143 129.173L31.6094 129.17V129.169C31.2927 128.972 31.2985 128.526 31.6064 128.324L31.6133 128.319L31.6895 128.449L31.6143 128.319L88.7959 95.2217L88.7998 95.2188Z" fill="url(#paint4_linear_404_1430)" stroke="black" stroke-width="0.3"/>
<path d="M88.9609 95.4639C89.5142 95.1695 90.0457 95.1789 90.5771 95.4053L90.8057 95.5146L90.8096 95.5176L148.11 128.672L148.114 128.674C148.164 128.704 148.213 128.734 148.246 128.758C148.263 128.77 148.285 128.786 148.304 128.807C148.323 128.828 148.35 128.865 148.354 128.917C148.36 128.972 148.338 129.016 148.318 129.043C148.3 129.068 148.279 129.088 148.262 129.102C148.228 129.128 148.18 129.159 148.129 129.192L148.121 129.197L91.4238 161.681L91.4209 161.683C90.6165 162.12 89.6572 162.122 88.8867 161.681L31.8779 128.982L31.874 128.979C31.8232 128.948 31.7744 128.918 31.7402 128.892C31.7229 128.878 31.7002 128.859 31.6816 128.834C31.6616 128.807 31.6403 128.765 31.6436 128.711C31.6468 128.66 31.6711 128.622 31.6895 128.6C31.7076 128.578 31.7289 128.56 31.7461 128.547C31.7798 128.521 31.8287 128.49 31.8789 128.457L31.8857 128.453L88.9561 95.4668L88.9609 95.4639Z" stroke="white" stroke-width="0.3"/>
<g opacity="0.5">
<path d="M87.3551 102.806C88.4301 102.188 89.645 101.89 90.8599 101.89C92.0932 101.89 93.3302 102.21 94.4237 102.847L111.208 112.598L111.226 115.085L113.056 116.178L113.236 116.06L111.425 114.967L111.403 112.48L94.501 102.666C92.2699 101.371 89.483 101.353 87.2336 102.648L69.9708 112.498V115.044L68.0195 116.259L68.2588 116.399L70.1916 115.184V112.598L87.3551 102.806Z" fill="#50E6FF"/>
<path d="M87.592 104.657L71.9012 113.572V116.159L69.8506 117.315L70.1083 117.454L72.1589 116.321V113.734L87.7098 104.878C88.6854 104.322 89.7604 104.042 90.8539 104.042C91.9473 104.042 93.0628 104.322 94.0384 104.9L109.269 113.716L109.31 116.185L111.102 117.3L111.401 117.12L109.549 116.045L109.508 113.576L94.182 104.679C92.1498 103.501 89.6205 103.501 87.592 104.657Z" fill="#45D6F9"/>
<path d="M88.0913 106.946C88.9454 106.449 89.9247 106.21 90.8782 106.21C91.8539 106.21 92.8295 106.468 93.7057 106.968L107.364 114.85L107.383 117.337L109.194 118.452L109.514 118.235L107.681 117.161L107.64 114.673L93.8235 106.714C91.9938 105.658 89.7222 105.658 87.8888 106.696L73.7737 114.688V117.275L71.6826 118.39L72.0029 118.57L74.094 117.455L74.1124 114.887L88.0913 106.946Z" fill="#39C7F3"/>
<path d="M88.2675 108.696L75.706 115.78V118.366L73.6738 119.522L74.053 119.739L76.1037 118.606L76.0852 116L88.4295 109.035C89.1842 108.615 90.0236 108.398 90.8593 108.398C91.7135 108.398 92.5713 108.615 93.3297 109.053L105.435 115.997L105.457 118.484L107.309 119.577L107.666 119.378L105.814 118.263L105.795 115.776L93.5321 108.733C91.9123 107.78 89.9021 107.78 88.2675 108.696Z" fill="#2EB7ED"/>
<path d="M88.8038 111.085C89.4407 110.728 90.1586 110.548 90.8728 110.548C91.587 110.548 92.327 110.728 92.9639 111.103L103.298 117.252L103.28 119.758L105.091 120.873L105.489 120.633L103.736 119.478L103.718 116.991L93.1664 110.72C91.7527 109.904 90.0003 109.904 88.5866 110.702L77.5971 116.895L77.5787 119.463L75.668 120.677L76.1245 120.935L77.9947 119.721L78.0131 117.152L88.8038 111.085Z" fill="#22A7E6"/>
<path d="M88.926 112.737L79.5085 118.01V120.579L77.6162 121.793L78.1132 122.073L80.0239 120.88L80.0019 118.294L89.1616 113.179C89.6991 112.881 90.2771 112.741 90.8735 112.741C91.4699 112.741 92.0663 112.899 92.6075 113.197L101.568 118.253L101.55 120.781L103.42 121.874L103.917 121.594L102.025 120.501L102.043 117.974L92.8431 112.76C91.654 112.06 90.1409 112.06 88.926 112.737Z" fill="#1797E0"/>
<path d="M89.5455 115.225C89.9615 114.985 90.4401 114.868 90.9003 114.868C91.3789 114.868 91.8575 114.985 92.2736 115.225L99.6808 119.364L99.6403 121.892L101.474 123.047L101.993 122.727L100.182 121.594L100.2 119.048L92.5349 114.768C91.5409 114.213 90.2855 114.213 89.2878 114.768L81.4387 119.125V121.693L79.5869 122.908L80.0839 123.187L81.9762 121.995V119.423L89.5455 115.225Z" fill="#0B88DA"/>
<path d="M131.135 123.92L115.404 114.787L115.205 114.905L131.032 124.097C132.148 124.752 132.803 125.907 132.803 127.18C132.803 128.475 132.126 129.627 131.01 130.264L115.062 139.437L115.26 139.555L131.095 130.448C132.269 129.771 132.987 128.556 132.987 127.184C133.005 125.811 132.31 124.597 131.135 123.92Z" fill="#50E6FF"/>
<path d="M129.382 127.183C129.382 128.339 128.785 129.373 127.769 129.95L113.216 138.347L113.474 138.487L127.887 130.167C128.962 129.549 129.621 128.416 129.621 127.183C129.621 125.929 128.984 124.814 127.887 124.177L113.514 115.857L113.256 116.016L127.751 124.394C128.785 124.994 129.382 126.028 129.382 127.183Z" fill="#45D6F9"/>
<path d="M125.977 127.201C125.977 128.235 125.44 129.152 124.564 129.67L111.402 137.291L111.722 137.49L124.722 129.946C125.716 129.369 126.294 128.353 126.294 127.22C126.294 126.086 125.698 125.053 124.722 124.493L111.704 116.994L111.384 117.174L124.545 124.754C125.44 125.273 125.977 126.19 125.977 127.201Z" fill="#39C7F3"/>
<path d="M122.554 127.224C122.554 128.118 122.097 128.917 121.32 129.373L109.554 136.217L109.933 136.416L121.523 129.671C122.417 129.152 122.936 128.24 122.936 127.202C122.936 126.168 122.399 125.252 121.504 124.733L109.852 118.051L109.495 118.268L121.339 125.053C122.097 125.531 122.554 126.326 122.554 127.224Z" fill="#2EB7ED"/>
<path d="M119.13 127.243C119.13 128.001 118.732 128.696 118.073 129.075L107.68 135.165L108.137 135.386L118.313 129.436C119.108 128.98 119.587 128.141 119.568 127.228C119.55 126.312 119.09 125.477 118.294 125.039L108.001 119.166L107.581 119.424L118.092 125.414C118.732 125.789 119.13 126.488 119.13 127.243Z" fill="#22A7E6"/>
<path d="M108.118 138.009L107.978 137.928L107.82 137.828L107.68 137.77" fill="#22A7E6"/>
<path d="M115.725 127.265C115.725 127.902 115.405 128.479 114.849 128.796L105.851 134.109L106.33 134.389L115.088 129.215C115.784 128.796 116.204 128.082 116.185 127.265C116.185 126.448 115.747 125.734 115.051 125.333L106.112 120.277L105.634 120.557L114.812 125.749C115.386 126.069 115.725 126.628 115.725 127.265Z" fill="#1797E0"/>
<path d="M112.299 127.283C112.299 127.779 112.041 128.239 111.621 128.497L103.997 133.034V135.621L101.946 136.713L102.443 137.011L104.534 135.937V133.35L111.901 128.971C112.498 128.615 112.858 127.978 112.858 127.279C112.858 126.58 112.479 125.965 111.864 125.608L104.295 121.373L103.758 121.693L111.603 126.09C112.041 126.326 112.299 126.786 112.299 127.283Z" fill="#0B88DA"/>
<path d="M49.9248 130.366C48.7909 129.729 48.1135 128.574 48.0914 127.26C48.0914 125.965 48.7688 124.791 49.8843 124.155L65.9101 115.022L65.7113 114.904L49.8033 123.978C48.6105 124.655 47.8926 125.888 47.8926 127.264C47.8926 128.64 48.6105 129.869 49.8254 130.528L62.6069 137.701L63.0996 137.531L63.6074 137.758L63.3232 138.103L66.1255 139.675C66.1539 139.691 66.1715 139.721 66.1715 139.754V142.101C66.1715 142.167 66.2069 142.227 66.2641 142.258L71.1949 144.997C71.2227 145.013 71.2566 145.013 71.284 144.996L71.4112 144.922C71.4412 144.905 71.4409 144.861 71.4105 144.844L66.4788 142.075C66.4505 142.059 66.4329 142.029 66.4329 141.996V139.685C66.4329 139.62 66.3976 139.56 66.3406 139.528L63.5545 137.973L63.5762 137.687L63.2207 137.543L62.8044 137.555L49.9248 130.366Z" fill="#50E6FF"/>
<path d="M110.787 141.91L108.519 143.213L107.976 143.207L107.616 143.429L107.734 143.665L94.3819 151.34C92.2319 152.573 89.5444 152.595 87.3944 151.381L74.2312 143.987L74.2178 143.711L73.9326 143.574L73.5383 143.598L70.7095 142.009L70.5107 142.127L73.3116 143.696L73.7646 143.57L74.2256 143.761L74.0746 144.123L87.3134 151.539C88.4068 152.157 89.6438 152.474 90.8771 152.474C92.1325 152.474 93.3842 152.154 94.4998 151.499L107.853 143.818L107.64 143.406L108.159 143.179L108.59 143.394L111.004 142.005L111.326 141.828L111.096 141.729L110.787 141.91Z" fill="#50E6FF"/>
<path d="M87.7282 149.47L76.0358 142.877L76.0645 142.663L75.7285 142.471L75.3345 142.481L72.5565 140.915L72.2988 141.073L75.0626 142.629L75.541 142.487L76.0137 142.663L75.8422 143.067L87.6104 149.691C88.6044 150.246 89.742 150.544 90.8575 150.544C92.0136 150.544 93.1475 150.246 94.1636 149.669L106.145 142.747L105.869 142.335L106.432 142.112L106.879 142.323L109.214 140.974L109.571 140.789L109.26 140.668L108.956 140.834L106.622 142.181L106.318 142.077L105.889 142.229L105.924 142.584L94.0237 149.452C92.0909 150.563 89.6795 150.585 87.7282 149.47Z" fill="#45D6F9"/>
<path d="M51.3564 127.264C51.3564 128.519 52.0118 129.653 53.1273 130.271L64.4598 136.655L65.0029 136.464L65.5146 136.683L65.2264 137.087L67.9149 138.602C67.943 138.617 67.9604 138.647 67.9607 138.679L67.9778 140.662C67.9783 140.728 68.0147 140.788 68.0726 140.819L70.5572 142.153L70.7285 142.147L70.7829 142.048L68.2364 140.61L68.2189 138.573C68.2183 138.509 68.1833 138.449 68.1271 138.418L65.4869 136.933L65.5303 136.64L65.1436 136.488L64.7111 136.497L53.2488 130.05C52.2327 129.472 51.6178 128.438 51.6178 127.264C51.6178 126.091 52.2142 125.057 53.2304 124.479L67.8645 116.159L67.6068 116.02L53.0868 124.258C52.0118 124.876 51.3564 126.01 51.3564 127.264Z" fill="#45D6F9"/>
<path d="M54.8373 127.265C54.8373 128.42 55.4337 129.432 56.4314 130.01L66.3111 135.61L66.8096 135.441L67.4111 135.695L67.0184 136.011L69.7241 137.545C69.7523 137.561 69.7697 137.591 69.7697 137.624V139.622C69.7697 139.688 69.8065 139.75 69.8653 139.781L72.3095 141.079L72.5505 141.088L72.5697 140.92L70.1147 139.575C70.0858 139.56 70.0679 139.529 70.0679 139.496V137.391L56.5897 129.752C55.6951 129.233 55.1576 128.321 55.1576 127.283C55.1576 126.249 55.6951 125.314 56.5897 124.814L69.8507 117.311L69.5304 117.131L56.4314 124.516C55.4374 125.094 54.8189 126.128 54.8373 127.265Z" fill="#39C7F3"/>
<path d="M88.0904 147.581L74.4318 139.839L74.1152 140.019L87.9321 147.839C88.8488 148.357 89.8428 148.615 90.859 148.615C91.8935 148.615 92.928 148.357 93.8447 147.82L104.413 141.695L104.064 141.301L104.533 141.02L105.194 141.243L107.444 139.938L107.853 139.707L107.531 139.523L107.124 139.758L104.823 141.094L104.561 141.036L104.123 141.192L104.11 141.508L93.6864 147.559C91.9708 148.556 89.8208 148.556 88.0904 147.581Z" fill="#39C7F3"/>
<path d="M88.4288 145.689L76.2649 138.764L75.8857 138.984L88.23 146.009C89.0473 146.465 89.9419 146.704 90.8586 146.704C91.7753 146.704 92.7104 146.465 93.5278 145.987L102.72 140.625L102.321 140.129L102.946 139.989L103.306 140.299L105.673 138.922L106.052 138.716L105.648 138.506L105.316 138.705L103.048 140.025L102.739 139.95L102.427 140.102L102.368 140.421L93.351 145.67C91.8306 146.546 89.9603 146.546 88.4288 145.689Z" fill="#2EB7ED"/>
<path d="M58.3037 127.282C58.3037 128.315 58.8412 129.25 59.7358 129.769L71.5831 136.514V138.695C71.5831 138.764 71.6229 138.828 71.6855 138.858L74.1205 140.021L74.3824 140.029L74.4615 139.824L71.9402 138.61V136.315L59.9162 129.471C59.121 129.033 58.6608 128.216 58.6608 127.304C58.6608 126.409 59.1394 125.593 59.9162 125.155L71.7856 118.465L71.4285 118.248L59.7432 124.835C58.8412 125.313 58.3037 126.248 58.3037 127.282Z" fill="#2EB7ED"/>
<path d="M61.7695 127.282C61.7695 128.217 62.2481 129.034 63.0434 129.49L73.3775 135.44L73.3591 137.928L75.6085 139.16L76.0061 138.921L73.7972 137.688L73.8156 135.201L63.2642 129.152C62.5868 128.773 62.1892 128.077 62.1892 127.301C62.1892 126.524 62.5868 125.847 63.2642 125.468L73.7383 119.581L73.3186 119.342L63.0434 125.115C62.2481 125.531 61.7695 126.348 61.7695 127.282Z" fill="#22A7E6"/>
<path d="M88.7872 143.8L78.1365 137.67L77.7168 137.909L88.5663 144.139C89.2842 144.536 90.0795 144.757 90.8747 144.757C91.692 144.757 92.4872 144.536 93.2235 144.12L103.937 137.854L104.244 137.679L103.837 137.432L103.521 137.615L93.0284 143.763C91.6957 144.536 90.0831 144.536 88.7872 143.8Z" fill="#22A7E6"/>
<path d="M65.2314 127.283C65.2314 128.1 65.6511 128.836 66.347 129.233L75.1864 134.366V136.854L77.5352 138.027L77.9549 137.788L75.6834 136.574V134.087L66.5863 128.814C66.0303 128.494 65.71 127.92 65.71 127.283C65.71 126.646 66.0488 126.069 66.6047 125.771L75.7018 120.678L75.2232 120.398L66.3875 125.351C65.6696 125.752 65.2314 126.466 65.2314 127.283Z" fill="#1797E0"/>
<path d="M89.125 141.888L79.9874 136.597L79.5088 136.877L88.8857 142.308C89.5042 142.665 90.2 142.845 90.8774 142.845C91.5732 142.845 92.2727 142.665 92.8876 142.289L102.147 136.836L101.668 136.557L92.6483 141.888C91.5732 142.529 90.2184 142.529 89.125 141.888Z" fill="#1797E0"/>
<path d="M89.4823 140L81.8578 135.521L81.3203 135.838L89.2025 140.474C89.7216 140.772 90.2996 140.931 90.8739 140.931C91.4704 140.931 92.0484 140.772 92.5675 140.474L100.372 135.838L99.8349 135.521L92.2877 140.018C91.4335 140.515 90.3585 140.515 89.4823 140Z" fill="#0B88DA"/>
<path d="M68.6953 127.284C68.6953 127.979 69.0524 128.616 69.6525 128.977L76.9972 133.296V135.784L79.2282 137.039L79.7068 136.759L77.5163 135.464V132.976L69.9102 128.498C69.4721 128.241 69.2144 127.781 69.2144 127.284C69.2144 126.787 69.4942 126.327 69.9323 126.092L77.6562 121.812L77.1187 121.492L69.6709 125.613C69.0745 125.97 68.7174 126.588 68.6953 127.284Z" fill="#0B88DA"/>
<path d="M72.1619 127.3C72.1435 127.896 72.4417 128.434 72.9572 128.732L78.8292 132.235L78.8476 134.704L81.1376 135.936L81.6567 135.638L79.4661 134.347L79.4072 131.878L73.2774 128.217C72.9572 128.018 72.7584 127.679 72.7804 127.3C72.8025 126.921 72.9792 126.583 73.3179 126.406L79.6502 122.925L79.0538 122.568L73.0382 125.869C72.5006 126.189 72.184 126.704 72.1619 127.3Z" fill="#0078D4"/>
<path d="M89.8201 138.109L83.7087 134.448L83.1123 134.786L89.5219 138.606C89.9416 138.863 90.4165 138.985 90.8951 138.985C91.3737 138.985 91.8523 138.867 92.2683 138.606L98.6411 134.764L98.0631 134.426L91.9517 138.109C91.2927 138.488 90.4791 138.488 89.8201 138.109Z" fill="#0078D4"/>
<path d="M108.893 127.3C108.893 127.679 108.713 128.018 108.396 128.195L102.145 131.955V134.542L100.153 135.635L100.672 135.955L102.745 134.88L102.764 132.294L108.717 128.713C109.214 128.415 109.512 127.878 109.512 127.282C109.493 126.686 109.192 126.167 108.676 125.887L102.465 122.443L101.869 122.8L108.378 126.403C108.676 126.605 108.875 126.925 108.893 127.3Z" fill="#0078D4"/>
<path d="M89.6041 116.777L83.3307 120.221L83.3123 122.789L81.501 124.022L82.0385 124.32L83.9087 123.128V120.581L89.8802 117.299C90.1968 117.119 90.5355 117.042 90.8742 117.042C91.2129 117.042 91.57 117.123 91.8682 117.299L97.663 120.523L97.6446 123.05L99.5774 124.143L100.074 123.845L98.241 122.712L98.2594 120.166L92.1664 116.784C91.3749 116.339 90.4177 116.339 89.6041 116.777Z" fill="#0078D4"/>
<path d="M109.362 110.993C109.362 110.772 109.06 110.595 108.684 110.592C108.309 110.592 108.007 110.768 108.007 110.989C108.007 111.21 108.309 111.387 108.684 111.39C109.06 111.39 109.362 111.214 109.362 110.993Z" fill="#50E6FF"/>
<path d="M109.045 110.994C109.045 110.873 108.887 110.773 108.688 110.773C108.489 110.773 108.327 110.869 108.327 110.991C108.327 111.112 108.485 111.211 108.684 111.211C108.883 111.211 109.045 111.116 109.045 110.994Z" fill="white"/>
<path d="M107.538 112.116C107.538 111.895 107.237 111.719 106.861 111.715C106.485 111.715 106.184 111.891 106.184 112.112C106.184 112.333 106.485 112.51 106.861 112.513C107.233 112.513 107.538 112.337 107.538 112.116Z" fill="#4ED6F7"/>
<path d="M107.216 112.115C107.216 111.994 107.058 111.895 106.859 111.895C106.66 111.895 106.502 111.99 106.498 112.112C106.498 112.233 106.656 112.332 106.855 112.332C107.058 112.332 107.216 112.237 107.216 112.115Z" fill="white"/>
<path d="M105.767 113.296C105.767 113.075 105.465 112.898 105.093 112.895C104.718 112.895 104.416 113.071 104.416 113.292C104.416 113.513 104.718 113.689 105.093 113.693C105.465 113.693 105.767 113.516 105.767 113.296Z" fill="#43C8F1"/>
<path d="M105.45 113.297C105.45 113.176 105.291 113.076 105.092 113.076C104.894 113.076 104.735 113.172 104.735 113.293C104.735 113.415 104.894 113.514 105.092 113.514C105.288 113.514 105.45 113.418 105.45 113.297Z" fill="white"/>
<path d="M103.896 114.464C103.896 114.243 103.594 114.066 103.218 114.062C102.843 114.062 102.541 114.239 102.541 114.46C102.541 114.681 102.843 114.857 103.218 114.861C103.59 114.861 103.892 114.684 103.896 114.464Z" fill="#37B8EB"/>
<path d="M103.575 114.463C103.575 114.342 103.416 114.242 103.217 114.242C103.019 114.242 102.86 114.338 102.86 114.459C102.86 114.581 103.019 114.68 103.217 114.68C103.413 114.68 103.575 114.584 103.575 114.463Z" fill="white"/>
<path d="M101.786 115.667C101.786 115.446 101.485 115.269 101.109 115.266C100.734 115.266 100.432 115.442 100.432 115.663C100.432 115.884 100.734 116.06 101.109 116.064C101.481 116.064 101.786 115.887 101.786 115.667Z" fill="#2EA8E3"/>
<path d="M101.465 115.666C101.465 115.545 101.307 115.445 101.108 115.445C100.909 115.445 100.751 115.541 100.751 115.662C100.751 115.784 100.909 115.883 101.108 115.883C101.307 115.883 101.465 115.788 101.465 115.666Z" fill="white"/>
<path d="M100.182 116.717C100.182 116.497 99.8801 116.32 99.5046 116.316C99.1327 116.316 98.8271 116.493 98.8271 116.714C98.8271 116.935 99.129 117.111 99.5046 117.115C99.8764 117.115 100.182 116.938 100.182 116.717Z" fill="#2398DD"/>
<path d="M99.8615 116.719C99.8615 116.597 99.7031 116.498 99.5043 116.498C99.3055 116.498 99.1472 116.594 99.1436 116.715C99.1436 116.837 99.3019 116.936 99.5007 116.936C99.6995 116.936 99.8615 116.84 99.8615 116.719Z" fill="white"/>
<path d="M98.2523 117.878C98.2523 117.657 97.9504 117.48 97.5749 117.477C97.1993 117.477 96.8975 117.653 96.8975 117.874C96.8975 118.095 97.1993 118.271 97.5712 118.275C97.9467 118.275 98.2523 118.098 98.2523 117.878Z" fill="#1B8AD7"/>
<path d="M97.9318 117.879C97.9318 117.758 97.7735 117.658 97.5747 117.658C97.3759 117.658 97.2175 117.754 97.2139 117.875C97.2139 117.997 97.3722 118.096 97.571 118.096C97.7735 118.1 97.9318 118 97.9318 117.879Z" fill="white"/>
<path d="M96.2806 118.985C96.2806 118.764 95.9787 118.588 95.6032 118.584C95.2277 118.584 94.9258 118.761 94.9258 118.981C94.9258 119.202 95.2277 119.379 95.6032 119.382C95.975 119.382 96.2806 119.206 96.2806 118.985Z" fill="#137AD1"/>
<path d="M95.965 118.984C95.965 118.863 95.8067 118.764 95.6079 118.764C95.4091 118.764 95.2508 118.859 95.2471 118.981C95.2471 119.102 95.4054 119.202 95.6042 119.202C95.803 119.202 95.9613 119.102 95.965 118.984Z" fill="white"/>
<path d="M118.78 116.284C118.78 116.063 118.478 115.886 118.102 115.883C117.727 115.883 117.425 116.059 117.425 116.28C117.425 116.501 117.727 116.678 118.099 116.681C118.474 116.681 118.78 116.505 118.78 116.284Z" fill="#50E6FF"/>
<path d="M118.459 116.285C118.459 116.164 118.301 116.064 118.102 116.064C117.903 116.064 117.745 116.16 117.741 116.282C117.741 116.403 117.9 116.502 118.098 116.502C118.301 116.502 118.459 116.407 118.459 116.285Z" fill="white"/>
<path d="M116.95 117.407C116.95 117.186 116.648 117.01 116.272 117.006C115.9 117.006 115.595 117.182 115.595 117.403C115.595 117.624 115.897 117.801 116.272 117.804C116.648 117.804 116.95 117.628 116.95 117.407Z" fill="#4ED6F7"/>
<path d="M116.635 117.406C116.635 117.285 116.477 117.186 116.278 117.186C116.079 117.186 115.921 117.281 115.917 117.403C115.917 117.524 116.075 117.623 116.274 117.623C116.473 117.623 116.635 117.528 116.635 117.406Z" fill="white"/>
<path d="M115.182 118.589C115.182 118.368 114.88 118.191 114.505 118.188C114.133 118.188 113.827 118.364 113.827 118.585C113.827 118.806 114.129 118.982 114.505 118.986C114.876 118.986 115.182 118.809 115.182 118.589Z" fill="#43C8F1"/>
<path d="M114.868 118.588C114.868 118.467 114.709 118.367 114.51 118.367C114.312 118.367 114.153 118.463 114.153 118.584C114.153 118.706 114.312 118.805 114.51 118.805C114.706 118.805 114.864 118.709 114.868 118.588Z" fill="white"/>
<path d="M113.31 119.755C113.31 119.534 113.008 119.357 112.632 119.354C112.261 119.354 111.955 119.53 111.955 119.751C111.955 119.972 112.257 120.148 112.632 120.152C113.008 120.152 113.31 119.975 113.31 119.755Z" fill="#37B8EB"/>
<path d="M112.992 119.754C112.992 119.633 112.834 119.533 112.635 119.533C112.436 119.533 112.278 119.629 112.274 119.75C112.274 119.872 112.433 119.971 112.632 119.971C112.83 119.971 112.992 119.875 112.992 119.754Z" fill="white"/>
<path d="M111.201 120.958C111.201 120.737 110.899 120.56 110.523 120.557C110.151 120.557 109.846 120.733 109.846 120.954C109.846 121.175 110.148 121.351 110.519 121.355C110.899 121.355 111.201 121.178 111.201 120.958Z" fill="#2EA8E3"/>
<path d="M110.883 120.957C110.883 120.836 110.725 120.736 110.526 120.736C110.327 120.736 110.169 120.832 110.165 120.953C110.165 121.075 110.323 121.174 110.522 121.174C110.721 121.174 110.883 121.079 110.883 120.957Z" fill="white"/>
<path d="M109.594 122.01C109.594 121.79 109.292 121.613 108.917 121.609C108.541 121.609 108.239 121.786 108.239 122.007C108.239 122.228 108.541 122.404 108.917 122.408C109.292 122.408 109.594 122.231 109.594 122.01Z" fill="#2398DD"/>
<path d="M109.277 122.01C109.277 121.888 109.118 121.789 108.919 121.789C108.721 121.789 108.562 121.885 108.559 122.006C108.559 122.128 108.717 122.227 108.916 122.227C109.115 122.227 109.277 122.131 109.277 122.01Z" fill="white"/>
<path d="M107.67 123.173C107.67 122.952 107.368 122.775 106.993 122.771C106.621 122.771 106.315 122.948 106.315 123.169C106.315 123.39 106.617 123.566 106.989 123.57C107.365 123.566 107.667 123.39 107.67 123.173Z" fill="#1B8AD7"/>
<path d="M107.351 123.17C107.351 123.049 107.192 122.949 106.994 122.949C106.795 122.949 106.636 123.045 106.633 123.166C106.633 123.288 106.791 123.387 106.99 123.387C107.189 123.391 107.351 123.291 107.351 123.17Z" fill="white"/>
<path d="M105.7 124.276C105.7 124.055 105.398 123.879 105.022 123.875C104.647 123.875 104.345 124.052 104.345 124.272C104.345 124.493 104.647 124.67 105.022 124.673C105.394 124.673 105.696 124.497 105.7 124.276Z" fill="#137AD1"/>
<path d="M105.379 124.277C105.379 124.156 105.221 124.057 105.022 124.057C104.823 124.057 104.661 124.152 104.661 124.274C104.661 124.395 104.819 124.495 105.018 124.495C105.217 124.495 105.379 124.399 105.379 124.277Z" fill="white"/>
<path d="M73.8763 110.702C73.8763 110.481 73.5744 110.304 73.1989 110.301C72.8234 110.301 72.5215 110.477 72.5215 110.698C72.5215 110.919 72.8234 111.096 73.1989 111.099C73.5707 111.099 73.8763 110.923 73.8763 110.702Z" fill="#50E6FF"/>
<path d="M73.5587 110.703C73.5587 110.582 73.4004 110.482 73.2016 110.482C73.0028 110.482 72.8408 110.578 72.8408 110.7C72.8408 110.821 72.9991 110.92 73.1979 110.92C73.3967 110.92 73.555 110.825 73.5587 110.703Z" fill="white"/>
<path d="M75.7679 111.88C75.7679 111.659 75.466 111.482 75.0905 111.479C74.7187 111.479 74.4131 111.655 74.4131 111.876C74.4131 112.097 74.715 112.273 75.0905 112.277C75.4623 112.277 75.7679 112.1 75.7679 111.88Z" fill="#4ED6F7"/>
<path d="M75.4474 111.879C75.4474 111.758 75.2891 111.658 75.0903 111.658C74.8915 111.658 74.7332 111.754 74.7295 111.875C74.7295 111.997 74.8878 112.096 75.0866 112.096C75.2854 112.096 75.4474 111.997 75.4474 111.879Z" fill="white"/>
<path d="M77.6783 113.036C77.6783 112.815 77.3764 112.638 77.0046 112.635C76.629 112.635 76.3271 112.811 76.3271 113.032C76.3271 113.253 76.629 113.43 77.0046 113.433C77.3727 113.433 77.6783 113.257 77.6783 113.036Z" fill="#43C8F1"/>
<path d="M77.3605 113.035C77.3605 112.914 77.2022 112.814 77.0034 112.814C76.8046 112.814 76.6463 112.91 76.6426 113.032C76.6426 113.153 76.8009 113.252 76.9997 113.252C77.2022 113.252 77.3605 113.157 77.3605 113.035Z" fill="white"/>
<path d="M79.5667 114.19C79.5667 113.969 79.2648 113.793 78.8893 113.789C78.5138 113.789 78.2119 113.966 78.2119 114.186C78.2119 114.407 78.5138 114.584 78.8893 114.588C79.2648 114.588 79.5667 114.411 79.5667 114.19Z" fill="#37B8EB"/>
<path d="M79.2501 114.191C79.2501 114.07 79.0918 113.971 78.893 113.971C78.6942 113.971 78.5359 114.066 78.5322 114.188C78.5322 114.309 78.6905 114.409 78.8893 114.409C79.0881 114.409 79.2501 114.313 79.2501 114.191Z" fill="white"/>
<path d="M81.4788 115.368C81.4788 115.147 81.1769 114.97 80.8014 114.967C80.4296 114.967 80.124 115.143 80.124 115.364C80.124 115.585 80.4259 115.762 80.8014 115.765C81.1769 115.765 81.4788 115.589 81.4788 115.368Z" fill="#2EA8E3"/>
<path d="M81.1613 115.367C81.1613 115.246 81.003 115.146 80.8042 115.146C80.6053 115.146 80.447 115.242 80.4434 115.364C80.4434 115.485 80.6017 115.584 80.8005 115.584C80.9993 115.584 81.1613 115.485 81.1613 115.367Z" fill="white"/>
<path d="M83.389 116.524C83.389 116.303 83.0871 116.127 82.7116 116.123C82.3361 116.123 82.0342 116.3 82.0342 116.52C82.0342 116.741 82.3361 116.918 82.7116 116.922C83.0871 116.922 83.389 116.745 83.389 116.524Z" fill="#2398DD"/>
<path d="M83.0716 116.524C83.0716 116.402 82.9133 116.303 82.7145 116.303C82.5157 116.303 82.3574 116.398 82.3574 116.52C82.3574 116.641 82.5157 116.741 82.7145 116.741C82.9097 116.741 83.0716 116.645 83.0716 116.524Z" fill="white"/>
<path d="M85.2825 117.702C85.2825 117.481 84.9807 117.304 84.6051 117.301C84.2296 117.301 83.9277 117.477 83.9277 117.698C83.9277 117.919 84.2296 118.096 84.6051 118.099C84.977 118.099 85.2825 117.919 85.2825 117.702Z" fill="#1B8AD7"/>
<path d="M84.9652 117.697C84.9652 117.576 84.8069 117.477 84.6081 117.477C84.4093 117.477 84.251 117.572 84.251 117.694C84.251 117.815 84.4093 117.914 84.6081 117.914C84.8032 117.918 84.9615 117.819 84.9652 117.697Z" fill="white"/>
<path d="M87.1929 118.856C87.1929 118.635 86.891 118.459 86.5192 118.455C86.1437 118.455 85.8418 118.632 85.8418 118.852C85.8418 119.073 86.1437 119.25 86.5192 119.254C86.891 119.254 87.1929 119.077 87.1929 118.856Z" fill="#137AD1"/>
<path d="M86.8742 118.856C86.8742 118.734 86.7158 118.635 86.517 118.635C86.3182 118.635 86.1599 118.73 86.1562 118.852C86.1562 118.973 86.3146 119.073 86.5134 119.073C86.7122 119.073 86.8742 118.973 86.8742 118.856Z" fill="white"/>
<path d="M63.4046 116.594C63.4046 116.374 63.1027 116.197 62.7272 116.193C62.3517 116.193 62.0498 116.37 62.0498 116.591C62.0498 116.812 62.3517 116.988 62.7272 116.992C63.1027 116.992 63.4046 116.815 63.4046 116.594Z" fill="#50E6FF"/>
<path d="M63.088 116.594C63.088 116.472 62.9297 116.373 62.7309 116.373C62.5321 116.373 62.3738 116.469 62.3701 116.59C62.3701 116.712 62.5284 116.811 62.7272 116.811C62.926 116.811 63.088 116.715 63.088 116.594Z" fill="white"/>
<path d="M65.2972 117.749C65.2972 117.528 64.9953 117.351 64.6198 117.348C64.2443 117.348 63.9424 117.524 63.9424 117.745C63.9424 117.966 64.2443 118.142 64.6198 118.146C64.9916 118.146 65.2972 117.97 65.2972 117.749Z" fill="#4ED6F7"/>
<path d="M64.9777 117.748C64.9777 117.627 64.8194 117.527 64.6206 117.527C64.4218 117.527 64.2634 117.623 64.2598 117.744C64.2598 117.866 64.4181 117.965 64.6169 117.965C64.8194 117.965 64.9777 117.87 64.9777 117.748Z" fill="white"/>
<path d="M67.2083 118.926C67.2083 118.706 66.9064 118.529 66.5309 118.525C66.1554 118.525 65.8535 118.702 65.8535 118.923C65.8535 119.144 66.1554 119.32 66.5309 119.324C66.9028 119.324 67.2083 119.144 67.2083 118.926Z" fill="#43C8F1"/>
<path d="M66.8888 118.922C66.8888 118.801 66.7305 118.701 66.5317 118.701C66.3329 118.701 66.1746 118.797 66.1709 118.918C66.1709 119.04 66.3292 119.139 66.528 119.139C66.7305 119.143 66.8888 119.043 66.8888 118.922Z" fill="white"/>
<path d="M69.1019 120.083C69.1019 119.862 68.8 119.685 68.4245 119.682C68.049 119.682 67.7471 119.858 67.7471 120.079C67.7471 120.3 68.049 120.476 68.4245 120.48C68.7963 120.48 69.0982 120.303 69.1019 120.083Z" fill="#37B8EB"/>
<path d="M68.7814 120.082C68.7814 119.961 68.6231 119.861 68.4243 119.861C68.2255 119.861 68.0672 119.957 68.0635 120.078C68.0635 120.2 68.2218 120.299 68.4206 120.299C68.6194 120.299 68.7814 120.2 68.7814 120.082Z" fill="white"/>
<path d="M71.0101 121.259C71.0101 121.038 70.7082 120.861 70.3327 120.857C69.9572 120.857 69.6553 121.034 69.6553 121.255C69.6553 121.476 69.9572 121.652 70.3327 121.656C70.7045 121.652 71.0064 121.476 71.0101 121.259Z" fill="#2EA8E3"/>
<path d="M70.6915 121.256C70.6915 121.135 70.5332 121.035 70.3344 121.035C70.1356 121.035 69.9773 121.131 69.9736 121.252C69.9736 121.374 70.1319 121.473 70.3307 121.473C70.5295 121.477 70.6915 121.377 70.6915 121.256Z" fill="white"/>
<path d="M72.9212 122.415C72.9212 122.194 72.6193 122.017 72.2438 122.014C71.8683 122.014 71.5664 122.19 71.5664 122.411C71.5664 122.632 71.8683 122.808 72.2438 122.812C72.6157 122.812 72.9212 122.632 72.9212 122.415Z" fill="#2398DD"/>
<path d="M72.6017 122.412C72.6017 122.291 72.4434 122.191 72.2446 122.191C72.0458 122.191 71.8875 122.287 71.8838 122.409C71.8838 122.53 72.0421 122.629 72.2409 122.629C72.4397 122.633 72.6017 122.534 72.6017 122.412Z" fill="white"/>
<path d="M74.8109 123.589C74.8109 123.368 74.509 123.191 74.1335 123.188C73.7616 123.188 73.4561 123.364 73.4561 123.585C73.4561 123.806 73.7579 123.982 74.1335 123.986C74.509 123.986 74.8109 123.809 74.8109 123.589Z" fill="#1B8AD7"/>
<path d="M74.4955 123.588C74.4955 123.467 74.3372 123.367 74.1384 123.367C73.9396 123.367 73.7812 123.463 73.7812 123.584C73.7812 123.706 73.9396 123.805 74.1384 123.805C74.3335 123.805 74.4955 123.709 74.4955 123.588Z" fill="white"/>
<path d="M76.723 124.745C76.723 124.524 76.4211 124.347 76.0456 124.344C75.6701 124.344 75.3682 124.52 75.3682 124.741C75.3682 124.962 75.6701 125.139 76.0456 125.142C76.4211 125.142 76.723 124.966 76.723 124.745Z" fill="#137AD1"/>
<path d="M76.4046 124.744C76.4046 124.623 76.2463 124.523 76.0475 124.523C75.8487 124.523 75.6904 124.619 75.6904 124.741C75.6904 124.862 75.8487 124.961 76.0475 124.961C76.2427 124.965 76.4046 124.866 76.4046 124.744Z" fill="white"/>
<path d="M63.0234 137.453C63.3988 137.453 63.7002 137.63 63.7002 137.851C63.6999 138.067 63.3986 138.248 63.0234 138.248C62.6518 138.248 62.346 138.071 62.3457 137.851C62.3457 137.633 62.6479 137.453 63.0234 137.453ZM63.0215 137.631C62.8227 137.631 62.6641 137.73 62.6641 137.852C62.6643 137.973 62.8228 138.068 63.0215 138.068C63.2201 138.068 63.3779 137.969 63.3779 137.848C63.3779 137.726 63.2165 137.631 63.0215 137.631Z" fill="#50E6FF"/>
<path d="M64.9629 136.383C65.3383 136.387 65.6396 136.563 65.6396 136.784C65.6396 137.005 65.3346 137.182 64.9629 137.182C64.5874 137.178 64.2852 137.001 64.2852 136.78C64.2853 136.56 64.5875 136.383 64.9629 136.383ZM64.9639 136.562C64.7655 136.563 64.6075 136.658 64.6035 136.779C64.6035 136.901 64.7621 137.001 64.9609 137.001C65.1596 137.005 65.3213 136.905 65.3213 136.783C65.3211 136.662 65.1626 136.562 64.9639 136.562Z" fill="#4ED6F7"/>
<path d="M66.9023 135.293C67.2777 135.297 67.5791 135.474 67.5791 135.694C67.5789 135.915 67.2776 136.092 66.9023 136.092C66.5268 136.088 66.2246 135.911 66.2246 135.69C66.2247 135.47 66.5269 135.289 66.9023 135.293ZM66.9053 135.474C66.7068 135.474 66.5488 135.569 66.5449 135.69C66.5449 135.812 66.7035 135.911 66.9023 135.911C67.101 135.911 67.2627 135.816 67.2627 135.694C67.2627 135.573 67.1041 135.474 66.9053 135.474Z" fill="#43C8F1"/>
<path d="M69.4329 134.671C69.4329 134.45 69.131 134.273 68.7555 134.27C68.38 134.27 68.0781 134.446 68.0781 134.667C68.0781 134.888 68.38 135.064 68.7555 135.068C69.1274 135.068 69.4293 134.891 69.4329 134.671Z" fill="#37B8EB"/>
<path d="M69.1105 134.672C69.1105 134.551 68.9522 134.451 68.7534 134.451C68.5546 134.451 68.3963 134.547 68.3926 134.668C68.3926 134.79 68.5509 134.889 68.7497 134.889C68.9485 134.889 69.1105 134.793 69.1105 134.672Z" fill="white"/>
<path d="M71.3734 133.6C71.3734 133.38 71.0715 133.203 70.696 133.199C70.3204 133.199 70.0186 133.376 70.0186 133.597C70.0186 133.817 70.3204 133.994 70.696 133.998C71.0678 133.998 71.3734 133.821 71.3734 133.6Z" fill="#2EA8E3"/>
<path d="M71.0519 133.602C71.0519 133.48 70.8936 133.381 70.6948 133.381C70.496 133.381 70.3377 133.477 70.334 133.598C70.334 133.719 70.4923 133.819 70.6911 133.819C70.8936 133.819 71.0519 133.723 71.0519 133.602Z" fill="white"/>
<path d="M73.2952 132.551C73.2952 132.331 72.9934 132.154 72.6178 132.15C72.246 132.15 71.9404 132.327 71.9404 132.548C71.9404 132.769 72.2423 132.945 72.6178 132.949C72.9897 132.949 73.2952 132.772 73.2952 132.551Z" fill="#2398DD"/>
<path d="M72.974 132.551C72.974 132.429 72.8157 132.33 72.6169 132.33C72.4181 132.33 72.2598 132.426 72.2598 132.547C72.2598 132.669 72.4181 132.768 72.6169 132.768C72.8157 132.768 72.974 132.669 72.974 132.551Z" fill="white"/>
<path d="M75.2152 131.501C75.2152 131.28 74.9133 131.103 74.5378 131.1C74.1659 131.1 73.8604 131.276 73.8604 131.497C73.8604 131.718 74.1622 131.894 74.5341 131.898C74.9096 131.898 75.2115 131.721 75.2152 131.501Z" fill="#1B8AD7"/>
<path d="M74.8968 131.498C74.8968 131.377 74.7385 131.277 74.5397 131.277C74.3409 131.277 74.1826 131.373 74.1826 131.494C74.1826 131.616 74.3409 131.715 74.5397 131.715C74.7348 131.715 74.8968 131.62 74.8968 131.498Z" fill="white"/>
<path d="M77.1585 130.37C77.1585 130.149 76.8566 129.972 76.4811 129.969C76.1056 129.969 75.8037 130.145 75.8037 130.366C75.8037 130.587 76.1056 130.764 76.4811 130.767C76.853 130.767 77.1548 130.587 77.1585 130.37Z" fill="#137AD1"/>
<path d="M76.84 130.367C76.84 130.246 76.6817 130.146 76.4829 130.146C76.2841 130.146 76.1258 130.242 76.1221 130.364C76.1221 130.485 76.2804 130.584 76.4792 130.584C76.678 130.588 76.84 130.489 76.84 130.367Z" fill="white"/>
<path d="M73.6973 143.48C74.0724 143.481 74.3736 143.657 74.374 143.878C74.374 144.095 74.069 144.275 73.6973 144.275C73.3217 144.279 73.0195 144.099 73.0195 143.878C73.0199 143.661 73.3257 143.48 73.6973 143.48ZM73.6953 143.66C73.4967 143.66 73.3382 143.76 73.3379 143.881C73.3342 143.999 73.4965 144.099 73.6953 144.099C73.8938 144.099 74.0514 143.999 74.0518 143.878C74.0518 143.757 73.8903 143.66 73.6953 143.66Z" fill="#50E6FF"/>
<path d="M71.6621 144.75C72.0375 144.75 72.3389 144.927 72.3389 145.147C72.3387 145.364 72.0337 145.545 71.6621 145.545C71.2867 145.549 70.9845 145.368 70.9844 145.147C70.9844 144.93 71.2903 144.75 71.6621 144.75ZM71.6602 144.93C71.4614 144.93 71.3028 145.029 71.3027 145.15C71.2991 145.268 71.4614 145.367 71.6602 145.367C71.8588 145.367 72.0166 145.268 72.0166 145.146C72.0163 145.025 71.855 144.93 71.6602 144.93Z" fill="#50E6FF"/>
<path d="M75.5039 142.387C75.8793 142.39 76.1807 142.567 76.1807 142.788C76.1804 143.009 75.8791 143.185 75.5039 143.186C75.1284 143.182 74.8262 143.005 74.8262 142.784C74.8262 142.563 75.1284 142.387 75.5039 142.387ZM75.5049 142.567C75.3065 142.568 75.1485 142.663 75.1445 142.784C75.1445 142.906 75.3031 143.005 75.502 143.005C75.7006 143.005 75.8623 142.909 75.8623 142.788C75.8622 142.667 75.7036 142.567 75.5049 142.567Z" fill="#4ED6F7"/>
<path d="M77.3262 141.303C77.7013 141.307 78.0025 141.483 78.0029 141.703C77.9992 141.924 77.6979 142.1 77.3262 142.101C76.9508 142.097 76.6487 141.921 76.6484 141.7C76.6484 141.479 76.9543 141.303 77.3262 141.303ZM77.3252 141.483C77.1266 141.484 76.9685 141.579 76.9648 141.7C76.9649 141.822 77.1235 141.921 77.3223 141.921C77.5208 141.921 77.6823 141.822 77.6826 141.704C77.6826 141.583 77.524 141.483 77.3252 141.483Z" fill="#43C8F1"/>
<path d="M79.805 140.618C79.805 140.397 79.5031 140.22 79.1276 140.217C78.7558 140.217 78.4502 140.393 78.4502 140.614C78.4502 140.835 78.7521 141.012 79.1276 141.015C79.4994 141.015 79.8013 140.835 79.805 140.618Z" fill="#37B8EB"/>
<path d="M79.4828 140.619C79.4828 140.498 79.3245 140.398 79.1257 140.398C78.9269 140.398 78.7686 140.494 78.7686 140.616C78.7686 140.737 78.9269 140.836 79.1257 140.836C79.3208 140.836 79.4828 140.737 79.4828 140.619Z" fill="white"/>
<path d="M81.6224 139.532C81.6224 139.311 81.3205 139.135 80.945 139.131C80.5695 139.131 80.2676 139.307 80.2676 139.528C80.2676 139.749 80.5695 139.926 80.945 139.929C81.3168 139.929 81.6224 139.749 81.6224 139.532Z" fill="#2EA8E3"/>
<path d="M81.3029 139.527C81.3029 139.406 81.1446 139.307 80.9458 139.307C80.7469 139.307 80.5886 139.402 80.585 139.524C80.585 139.645 80.7433 139.745 80.9421 139.745C81.1446 139.748 81.3029 139.649 81.3029 139.527Z" fill="white"/>
<path d="M83.4222 138.444C83.4222 138.223 83.1203 138.047 82.7448 138.043C82.373 138.043 82.0674 138.22 82.0674 138.44C82.0674 138.661 82.3693 138.838 82.7448 138.841C83.1166 138.841 83.4222 138.665 83.4222 138.444Z" fill="#2398DD"/>
<path d="M83.1009 138.443C83.1009 138.322 82.9426 138.223 82.7438 138.223C82.545 138.223 82.3867 138.318 82.3867 138.44C82.3867 138.561 82.545 138.661 82.7438 138.661C82.9426 138.664 83.1009 138.565 83.1009 138.443Z" fill="white"/>
<path d="M85.2406 137.358C85.2406 137.137 84.9387 136.961 84.5631 136.957C84.1876 136.957 83.8857 137.134 83.8857 137.354C83.8857 137.575 84.1876 137.752 84.5631 137.756C84.9387 137.756 85.2406 137.579 85.2406 137.358Z" fill="#1B8AD7"/>
<path d="M84.924 137.357C84.924 137.236 84.7657 137.137 84.5668 137.137C84.368 137.137 84.2097 137.232 84.2061 137.354C84.2061 137.475 84.3644 137.575 84.5632 137.575C84.762 137.575 84.924 137.479 84.924 137.357Z" fill="white"/>
<path d="M87.0413 136.272C87.0413 136.051 86.7394 135.875 86.3639 135.871C85.9884 135.871 85.6865 136.048 85.6865 136.268C85.6865 136.489 85.9884 136.666 86.3639 136.67C86.7358 136.67 87.0413 136.493 87.0413 136.272Z" fill="#137AD1"/>
<path d="M86.7257 136.272C86.7257 136.15 86.5674 136.051 86.3686 136.051C86.1698 136.051 86.0115 136.146 86.0078 136.268C86.0078 136.389 86.1661 136.489 86.3649 136.489C86.5637 136.489 86.7257 136.393 86.7257 136.272Z" fill="white"/>
<path d="M108.191 143.121C108.563 143.125 108.865 143.301 108.865 143.521C108.865 143.742 108.563 143.919 108.191 143.919C107.816 143.915 107.514 143.739 107.514 143.519C107.514 143.298 107.816 143.121 108.191 143.121ZM108.19 143.302C107.992 143.302 107.834 143.397 107.83 143.519C107.83 143.64 107.989 143.739 108.188 143.739C108.386 143.739 108.547 143.644 108.548 143.522C108.548 143.401 108.389 143.302 108.19 143.302Z" fill="#50E6FF"/>
<path d="M106.391 142.037C106.766 142.041 107.067 142.218 107.067 142.438C107.064 142.659 106.762 142.836 106.391 142.836C106.015 142.832 105.713 142.655 105.713 142.435C105.713 142.214 106.019 142.037 106.391 142.037ZM106.392 142.218C106.193 142.218 106.035 142.314 106.031 142.436C106.032 142.557 106.19 142.656 106.389 142.656C106.587 142.656 106.749 142.56 106.749 142.438C106.749 142.317 106.59 142.218 106.392 142.218Z" fill="#4ED6F7"/>
<path d="M104.613 140.961C104.988 140.965 105.29 141.141 105.29 141.361C105.29 141.582 104.989 141.759 104.613 141.759C104.238 141.755 103.936 141.579 103.936 141.358C103.936 141.138 104.241 140.961 104.613 140.961ZM104.616 141.142C104.418 141.142 104.26 141.237 104.256 141.358C104.256 141.48 104.414 141.579 104.613 141.579C104.812 141.579 104.973 141.484 104.974 141.362C104.974 141.241 104.815 141.142 104.616 141.142Z" fill="#43C8F1"/>
<path d="M102.82 139.898C103.196 139.902 103.497 140.079 103.497 140.3C103.497 140.517 103.192 140.697 102.82 140.697C102.445 140.694 102.143 140.517 102.143 140.296C102.143 140.075 102.449 139.898 102.82 139.898ZM102.823 140.075C102.625 140.075 102.467 140.172 102.463 140.293C102.463 140.414 102.622 140.514 102.82 140.514C103.019 140.517 103.177 140.417 103.181 140.296C103.18 140.175 103.022 140.075 102.823 140.075Z" fill="#37B8EB"/>
<path d="M101.755 139.249C101.755 139.028 101.454 138.851 101.082 138.848C100.706 138.848 100.404 139.024 100.404 139.245C100.404 139.466 100.706 139.642 101.082 139.646C101.45 139.646 101.752 139.466 101.755 139.249Z" fill="#2EA8E3"/>
<path d="M101.435 139.244C101.435 139.123 101.276 139.023 101.078 139.023C100.879 139.023 100.72 139.119 100.717 139.241C100.717 139.362 100.875 139.461 101.074 139.461C101.273 139.465 101.435 139.366 101.435 139.244Z" fill="white"/>
<path d="M100.01 138.196C100.01 137.975 99.7082 137.799 99.3327 137.795C98.9608 137.795 98.6553 137.972 98.6553 138.192C98.6553 138.413 98.9572 138.59 99.3327 138.593C99.7045 138.593 100.01 138.413 100.01 138.196Z" fill="#2398DD"/>
<path d="M99.6954 138.193C99.6954 138.072 99.5371 137.973 99.3383 137.973C99.1395 137.973 98.9812 138.068 98.9775 138.19C98.9775 138.311 99.1358 138.411 99.3347 138.411C99.5335 138.414 99.6918 138.315 99.6954 138.193Z" fill="white"/>
<path d="M98.2877 137.143C98.2877 136.922 97.9858 136.746 97.6139 136.742C97.2384 136.742 96.9365 136.919 96.9365 137.14C96.9365 137.36 97.2384 137.537 97.6139 137.541C97.9821 137.541 98.2877 137.36 98.2877 137.143Z" fill="#1B8AD7"/>
<path d="M97.9679 137.145C97.9679 137.023 97.8096 136.924 97.6108 136.924C97.412 136.924 97.2537 137.019 97.25 137.141C97.25 137.262 97.4083 137.362 97.6071 137.362C97.8096 137.362 97.9679 137.262 97.9679 137.145Z" fill="white"/>
<path d="M96.5435 136.091C96.5435 135.87 96.2416 135.693 95.8698 135.689C95.4943 135.689 95.1924 135.866 95.1924 136.087C95.1924 136.308 95.4943 136.484 95.8698 136.488C96.2416 136.488 96.5435 136.311 96.5435 136.091Z" fill="#137AD1"/>
<path d="M96.2277 136.092C96.2277 135.97 96.0694 135.871 95.8706 135.871C95.6718 135.871 95.5134 135.967 95.5098 136.088C95.5098 136.21 95.6681 136.309 95.8669 136.309C96.0657 136.309 96.2277 136.21 96.2277 136.092Z" fill="white"/>
<path d="M118.75 137.821C118.75 137.6 118.448 137.424 118.073 137.42C117.701 137.42 117.396 137.597 117.396 137.817C117.396 138.038 117.697 138.215 118.073 138.218C118.448 138.218 118.75 138.042 118.75 137.821Z" fill="#50E6FF"/>
<path d="M118.433 137.82C118.433 137.699 118.275 137.6 118.076 137.6C117.877 137.6 117.719 137.695 117.719 137.817C117.719 137.938 117.877 138.037 118.076 138.037C118.271 138.037 118.433 137.942 118.433 137.82Z" fill="#6F3390"/>
<path d="M116.948 136.758C116.948 136.538 116.646 136.361 116.27 136.357C115.898 136.357 115.593 136.534 115.593 136.755C115.593 136.976 115.895 137.152 116.27 137.156C116.646 137.156 116.948 136.976 116.948 136.758Z" fill="#4ED6F7"/>
<path d="M116.63 136.754C116.63 136.633 116.472 136.533 116.273 136.533C116.074 136.533 115.916 136.629 115.912 136.75C115.912 136.872 116.07 136.971 116.269 136.971C116.468 136.975 116.63 136.875 116.63 136.754Z" fill="#753290"/>
<path d="M115.123 135.69C115.123 135.469 114.821 135.293 114.446 135.289C114.07 135.289 113.769 135.466 113.769 135.686C113.769 135.907 114.07 136.084 114.446 136.088C114.821 136.088 115.123 135.911 115.123 135.69Z" fill="#43C8F1"/>
<path d="M114.807 135.691C114.807 135.57 114.648 135.471 114.45 135.471C114.251 135.471 114.093 135.566 114.089 135.688C114.089 135.809 114.247 135.909 114.446 135.909C114.645 135.909 114.807 135.809 114.807 135.691Z" fill="white"/>
<path d="M113.321 134.624C113.321 134.403 113.019 134.226 112.643 134.223C112.271 134.223 111.966 134.399 111.966 134.62C111.966 134.841 112.268 135.017 112.643 135.021C113.019 135.021 113.321 134.845 113.321 134.624Z" fill="#37B8EB"/>
<path d="M113.005 134.623C113.005 134.502 112.847 134.402 112.648 134.402C112.449 134.402 112.291 134.498 112.287 134.619C112.287 134.741 112.445 134.84 112.644 134.84C112.843 134.84 113.005 134.745 113.005 134.623Z" fill="white"/>
<path d="M111.498 133.557C111.498 133.337 111.196 133.16 110.821 133.156C110.449 133.156 110.144 133.333 110.144 133.554C110.144 133.774 110.445 133.951 110.821 133.955C111.193 133.955 111.498 133.778 111.498 133.557Z" fill="#2EA8E3"/>
<path d="M111.182 133.557C111.182 133.435 111.024 133.336 110.825 133.336C110.626 133.336 110.468 133.432 110.468 133.553C110.468 133.674 110.626 133.774 110.825 133.774C111.02 133.777 111.182 133.678 111.182 133.557Z" fill="white"/>
<path d="M109.694 132.493C109.694 132.272 109.392 132.095 109.02 132.092C108.645 132.092 108.343 132.268 108.343 132.489C108.343 132.71 108.645 132.887 109.02 132.89C109.392 132.89 109.694 132.71 109.694 132.493Z" fill="#2398DD"/>
<path d="M109.377 132.49C109.377 132.369 109.219 132.27 109.02 132.27C108.821 132.27 108.663 132.365 108.659 132.487C108.659 132.608 108.817 132.707 109.016 132.707C109.215 132.711 109.377 132.612 109.377 132.49Z" fill="white"/>
<path d="M107.871 131.426C107.871 131.206 107.57 131.029 107.194 131.025C106.818 131.025 106.517 131.202 106.517 131.423C106.517 131.644 106.818 131.82 107.194 131.824C107.566 131.824 107.871 131.647 107.871 131.426Z" fill="#1B8AD7"/>
<path d="M107.554 131.426C107.554 131.304 107.396 131.205 107.197 131.205C106.998 131.205 106.84 131.301 106.84 131.422C106.84 131.544 106.998 131.643 107.197 131.643C107.392 131.643 107.55 131.547 107.554 131.426Z" fill="white"/>
<path d="M106.066 130.358C106.066 130.137 105.764 129.961 105.388 129.957C105.017 129.957 104.711 130.134 104.711 130.354C104.711 130.575 105.013 130.752 105.388 130.756C105.764 130.756 106.066 130.579 106.066 130.358Z" fill="#137AD1"/>
<path d="M105.75 130.359C105.75 130.238 105.592 130.139 105.393 130.139C105.194 130.139 105.036 130.234 105.032 130.356C105.032 130.477 105.191 130.577 105.389 130.577C105.588 130.577 105.75 130.481 105.75 130.359Z" fill="white"/>
</g>
<path d="M82.8809 37.2686C83.2244 37.3029 83.5459 37.4283 83.8223 37.6299L83.833 37.6377L83.8438 37.6445L132.604 65.791H132.605C133.46 66.3461 134.172 67.1016 134.685 67.9824C135.132 68.758 135.414 69.615 135.515 70.499L135.546 70.8799V71.9619L135.384 130.038V130.052L135.385 130.064C135.419 130.398 135.368 130.736 135.231 131.038C135.096 131.338 134.88 131.599 134.608 131.793L131.327 133.492C131.323 133.395 131.316 133.296 131.306 133.203C131.287 133.032 131.267 132.881 131.26 132.744C131.252 132.598 131.265 132.529 131.275 132.508L131.277 132.503C131.31 132.431 131.306 132.361 131.301 132.323C131.295 132.281 131.284 132.24 131.271 132.206C131.247 132.137 131.209 132.059 131.166 131.979C131.078 131.818 130.95 131.616 130.804 131.396C130.516 130.962 130.121 130.407 129.812 129.948C129.701 129.785 129.601 129.629 129.514 129.49L130.07 129.922L129.889 129.215L129.526 127.805L121.661 79.8379L121.658 79.8252L120.744 75.6621L120.736 75.627L120.719 75.5947L120.508 75.2422C119.995 74.444 119.311 73.7651 118.505 73.2588L81.0967 41.5879L81.0879 41.5801L81.0781 41.5732L80.9707 41.4844C80.9279 41.4447 80.8777 41.3956 80.8203 41.3369C80.7156 41.2299 80.5803 41.0849 80.4551 40.959C80.3262 40.8294 80.1869 40.6974 80.0508 40.5947C79.9289 40.5028 79.7738 40.4074 79.6094 40.3867C79.6059 40.3847 79.5951 40.3789 79.5771 40.3633C79.5409 40.3316 79.4946 40.2805 79.4395 40.208C79.3288 40.0624 79.2096 39.8698 79.0811 39.667C78.9614 39.4781 78.8302 39.2767 78.7041 39.1289L81.8965 37.4238C82.2013 37.2844 82.5361 37.2341 82.8809 37.2686Z" fill="url(#paint5_linear_404_1430)" stroke="black" stroke-width="0.5"/>
<path d="M78.3926 39.2402C78.8176 38.9999 79.4342 38.998 80.1719 39.3828L80.3213 39.4658L129.095 67.6152C129.949 68.1709 130.664 68.9195 131.175 69.8037C131.687 70.6902 131.981 71.6832 132.037 72.7012V72.7041C132.062 73.0687 132.062 73.4274 132.037 73.792L132.036 73.7998V73.8086L131.881 131.886V131.887C131.881 132.798 131.557 133.376 131.105 133.636C130.653 133.896 129.987 133.886 129.194 133.433H129.193L96.3594 114.493L86.8486 109.002L80.3682 105.26C79.5139 104.705 78.8022 103.95 78.2969 103.064C77.854 102.288 77.574 101.43 77.4775 100.547L77.4482 100.167L77.6172 42.1416V40.9805C77.6172 40.0721 77.9401 39.4961 78.3926 39.2402Z" fill="#282828" stroke="black" stroke-width="0.5"/>
<path d="M86.5398 52.9867C86.6925 53.0873 86.8193 53.2225 86.9098 53.3814C87.0004 53.5403 87.0521 53.7183 87.0607 53.901C87.0607 54.2352 86.8248 54.3728 86.5299 54.2057C86.3764 54.1051 86.2485 53.9701 86.1563 53.8114C86.0642 53.6527 86.0103 53.4747 85.999 53.2915C85.999 52.9867 86.2055 52.8589 86.5398 52.9867Z" fill="url(#paint6_linear_404_1430)"/>
<path d="M90.1377 55.0905C90.2929 55.1893 90.422 55.3239 90.5144 55.483C90.6068 55.6421 90.6596 55.821 90.6685 56.0047C90.6685 56.3291 90.4228 56.4667 90.1377 56.2996C89.9837 56.1996 89.8554 56.0647 89.7631 55.9059C89.6709 55.7471 89.6174 55.5688 89.6069 55.3854C89.5872 55.061 89.8231 54.9529 90.1377 55.0905Z" fill="url(#paint7_linear_404_1430)"/>
<path d="M93.7062 57.1648C93.8607 57.2635 93.9888 57.3983 94.0796 57.5576C94.1704 57.7169 94.221 57.8958 94.2272 58.079C94.2272 58.4133 94.0011 58.5607 93.7062 58.3838C93.5511 58.2849 93.4219 58.1503 93.3295 57.9912C93.2372 57.8322 93.1843 57.6533 93.1754 57.4695C93.1754 57.1255 93.4113 56.9977 93.7062 57.1648Z" fill="url(#paint8_linear_404_1430)"/>
<path d="M97.2944 59.239C97.4475 59.3368 97.5748 59.47 97.6655 59.6275C97.7562 59.7849 97.8076 59.9619 97.8154 60.1434C97.8154 60.4875 97.5795 60.6251 97.2846 60.458C97.1321 60.3547 97.0057 60.2176 96.9153 60.0573C96.8249 59.8969 96.7729 59.7177 96.7635 59.5339C96.7635 59.1996 97.0191 59.062 97.2944 59.239Z" fill="url(#paint9_linear_404_1430)"/>
<path d="M100.873 61.3035C101.026 61.4041 101.154 61.5391 101.246 61.6978C101.338 61.8565 101.392 62.0345 101.404 62.2177C101.404 62.5618 101.168 62.6994 100.873 62.5224C100.718 62.423 100.589 62.2883 100.497 62.1293C100.405 61.9704 100.352 61.7918 100.342 61.6082C100.342 61.2641 100.578 61.1363 100.873 61.3035Z" fill="url(#paint10_linear_404_1430)"/>
<path d="M104.451 63.3678C104.605 63.4684 104.732 63.6034 104.825 63.7621C104.917 63.9209 104.971 64.0989 104.982 64.2821C104.982 64.6261 104.746 64.7638 104.451 64.5868C104.296 64.4874 104.168 64.3526 104.075 64.1937C103.983 64.0347 103.93 63.8561 103.92 63.6726C103.901 63.3383 104.156 63.2007 104.451 63.3678Z" fill="url(#paint11_linear_404_1430)"/>
<path d="M108.039 65.4421C108.194 65.5409 108.324 65.6755 108.416 65.8346C108.508 65.9937 108.561 66.1726 108.57 66.3563C108.57 66.6906 108.324 66.8282 108.029 66.6611C107.879 66.5583 107.754 66.4226 107.663 66.2642C107.573 66.1058 107.52 65.9288 107.508 65.7468C107.508 65.4028 107.744 65.275 108.039 65.4421Z" fill="url(#paint12_linear_404_1430)"/>
<path d="M111.627 67.5164C111.782 67.6152 111.912 67.7497 112.004 67.9088C112.096 68.0679 112.149 68.2469 112.158 68.4306C112.158 68.7648 111.912 68.9025 111.617 68.7353C111.463 68.6338 111.336 68.497 111.245 68.3363C111.155 68.1756 111.104 67.9956 111.096 67.8113C111.096 67.477 111.332 67.3492 111.627 67.5164Z" fill="url(#paint13_linear_404_1430)"/>
<path d="M115.216 69.5906C115.369 69.6884 115.496 69.8216 115.587 69.979C115.677 70.1365 115.729 70.3135 115.736 70.495C115.736 70.8391 115.501 70.9767 115.216 70.8096C115.061 70.708 114.932 70.5714 114.84 70.4109C114.748 70.2503 114.694 70.0704 114.685 69.8855C114.714 69.5414 114.921 69.4137 115.216 69.5906Z" fill="url(#paint14_linear_404_1430)"/>
<path d="M118.794 71.6648C118.945 71.7644 119.071 71.8981 119.162 72.0551C119.252 72.2122 119.305 72.3883 119.315 72.5692C119.315 72.9133 119.079 73.0509 118.794 72.8838C118.638 72.7822 118.508 72.6458 118.415 72.4855C118.321 72.3251 118.266 72.1451 118.253 71.9597C118.263 71.6648 118.499 71.4781 118.794 71.6648Z" fill="url(#paint15_linear_404_1430)"/>
<path d="M122.372 73.7194C122.527 73.8183 122.656 73.9528 122.749 74.1119C122.841 74.271 122.894 74.4499 122.903 74.6337C122.915 74.6997 122.907 74.7679 122.878 74.8289C122.85 74.8899 122.804 74.9406 122.746 74.9741C122.687 75.0075 122.62 75.0221 122.553 75.0157C122.486 75.0093 122.423 74.9823 122.372 74.9384C122.216 74.8386 122.086 74.7025 121.993 74.5416C121.901 74.3807 121.849 74.1998 121.841 74.0143C121.841 73.6801 122.077 73.5523 122.372 73.7194Z" fill="url(#paint16_linear_404_1430)"/>
<path d="M122.353 81.9574C122.505 82.0585 122.633 82.1937 122.725 82.3523C122.817 82.5109 122.871 82.6887 122.883 82.8717C122.883 83.2059 122.638 83.3436 122.353 83.1764C122.196 83.0767 122.066 82.9405 121.974 82.7796C121.881 82.6187 121.829 82.4378 121.822 82.2524C121.822 81.9279 122.058 81.7903 122.353 81.9574Z" fill="url(#paint17_linear_404_1430)"/>
<path d="M122.362 77.8385C122.517 77.9379 122.646 78.0726 122.738 78.2316C122.83 78.3905 122.883 78.5691 122.893 78.7527C122.905 78.8188 122.897 78.887 122.869 78.9479C122.84 79.0089 122.794 79.0596 122.736 79.0931C122.677 79.1265 122.61 79.141 122.543 79.1347C122.476 79.1283 122.413 79.1013 122.362 79.0574C122.207 78.9564 122.078 78.82 121.986 78.6593C121.893 78.4987 121.84 78.3184 121.831 78.1334C121.831 77.8089 122.067 77.6713 122.362 77.8385Z" fill="url(#paint18_linear_404_1430)"/>
<path d="M122.343 86.0765C122.494 86.1781 122.62 86.3136 122.711 86.4723C122.801 86.6309 122.853 86.8084 122.864 86.9908C122.864 87.325 122.628 87.4626 122.343 87.2955C122.187 87.1944 122.056 87.0582 121.963 86.8977C121.869 86.7372 121.814 86.557 121.802 86.3714C121.812 86.0372 122.048 85.9093 122.343 86.0765Z" fill="url(#paint19_linear_404_1430)"/>
<path d="M122.333 90.1954C122.485 90.2971 122.611 90.4326 122.701 90.5912C122.791 90.7499 122.844 90.9274 122.854 91.1097C122.854 91.4439 122.618 91.5816 122.323 91.4144C122.17 91.3133 122.043 91.1781 121.95 91.0195C121.858 90.8609 121.804 90.6831 121.792 90.5001C121.792 90.1561 122.038 90.0283 122.333 90.1954Z" fill="url(#paint20_linear_404_1430)"/>
<path d="M122.323 94.2751C122.475 94.3767 122.601 94.5122 122.691 94.6709C122.782 94.8295 122.834 95.007 122.844 95.1893C122.844 95.5235 122.608 95.6612 122.313 95.494C122.158 95.3952 122.029 95.2606 121.936 95.1015C121.844 94.9424 121.791 94.7635 121.782 94.5798C121.782 94.2751 122.028 94.1374 122.323 94.2751Z" fill="url(#paint21_linear_404_1430)"/>
<path d="M122.303 98.4236C122.458 98.523 122.587 98.6578 122.679 98.8168C122.771 98.9757 122.824 99.1543 122.834 99.3379C122.846 99.4039 122.838 99.4721 122.81 99.5331C122.781 99.5941 122.735 99.6448 122.677 99.6783C122.618 99.7117 122.551 99.7262 122.484 99.7198C122.417 99.7134 122.354 99.6865 122.303 99.6426C122.148 99.5438 122.019 99.4092 121.927 99.2501C121.834 99.091 121.781 98.9121 121.772 98.7284C121.772 98.3843 122.008 98.2565 122.303 98.4236Z" fill="url(#paint22_linear_404_1430)"/>
<path d="M122.284 106.671C122.438 106.771 122.565 106.906 122.656 107.065C122.747 107.224 122.798 107.403 122.805 107.586C122.805 107.92 122.569 108.048 122.284 107.881C122.128 107.785 121.998 107.652 121.906 107.494C121.813 107.337 121.761 107.159 121.753 106.976C121.753 106.632 121.989 106.504 122.284 106.671Z" fill="url(#paint23_linear_404_1430)"/>
<path d="M122.294 102.553C122.449 102.651 122.578 102.786 122.67 102.945C122.763 103.104 122.815 103.283 122.824 103.467C122.837 103.533 122.828 103.601 122.8 103.662C122.772 103.723 122.725 103.774 122.667 103.807C122.609 103.841 122.541 103.855 122.474 103.849C122.408 103.842 122.344 103.815 122.294 103.771C122.14 103.671 122.012 103.536 121.92 103.377C121.828 103.218 121.774 103.04 121.763 102.857C121.763 102.513 121.999 102.376 122.294 102.553Z" fill="url(#paint24_linear_404_1430)"/>
<path d="M122.274 110.781C122.426 110.882 122.552 111.018 122.642 111.177C122.732 111.335 122.785 111.513 122.795 111.695C122.795 112.029 122.559 112.167 122.264 112C122.111 111.899 121.984 111.763 121.891 111.605C121.799 111.446 121.745 111.268 121.733 111.085C121.733 110.741 121.979 110.614 122.274 110.781Z" fill="url(#paint25_linear_404_1430)"/>
<path d="M122.264 114.919C122.417 115.02 122.544 115.155 122.634 115.314C122.725 115.473 122.776 115.651 122.785 115.833C122.785 116.168 122.549 116.305 122.254 116.138C122.098 116.04 121.969 115.906 121.876 115.746C121.784 115.587 121.731 115.408 121.723 115.224C121.723 114.86 121.969 114.732 122.264 114.919Z" fill="url(#paint26_linear_404_1430)"/>
<path d="M66.0156 46.1455C66.3591 46.1799 66.6806 46.3053 66.957 46.5068L66.9678 46.5146L66.9785 46.5215L115.739 74.668H115.74C116.595 75.2231 117.307 75.9786 117.819 76.8594C118.267 77.635 118.549 78.492 118.649 79.376L118.681 79.7568V80.8389L118.519 138.915V138.929L118.52 138.941C118.554 139.275 118.503 139.613 118.366 139.915C118.23 140.215 118.015 140.475 117.743 140.67L114.462 142.369C114.458 142.272 114.45 142.173 114.44 142.08C114.422 141.909 114.402 141.758 114.395 141.621C114.387 141.475 114.4 141.406 114.41 141.385L114.412 141.38C114.45 141.297 114.447 141.212 114.44 141.157C114.433 141.097 114.416 141.035 114.396 140.976C114.357 140.857 114.293 140.717 114.218 140.569C114.067 140.272 113.853 139.909 113.638 139.553C113.42 139.192 113.201 138.84 113.032 138.55C112.948 138.405 112.879 138.282 112.83 138.185L112.777 138.067L112.771 138.024L104.796 88.7158L104.793 88.7021L103.879 84.5391L103.871 84.5039L103.854 84.4717L103.643 84.1191C103.13 83.321 102.446 82.6421 101.64 82.1357L64.2314 50.4648L64.2227 50.457L64.2129 50.4502L64.1055 50.3613C64.0627 50.3217 64.0125 50.2725 63.9551 50.2139C63.8504 50.1069 63.7151 49.9618 63.5898 49.8359C63.4609 49.7064 63.3217 49.5744 63.1855 49.4717C63.0636 49.3797 62.9086 49.2844 62.7441 49.2637C62.7407 49.2617 62.7299 49.2559 62.7119 49.2402C62.6757 49.2085 62.6293 49.1575 62.5742 49.085C62.4635 48.9394 62.3444 48.7468 62.2158 48.5439C62.0961 48.3551 61.965 48.1537 61.8389 48.0059L65.0312 46.3008C65.3361 46.1614 65.6709 46.111 66.0156 46.1455Z" fill="url(#paint27_linear_404_1430)" stroke="black" stroke-width="0.5"/>
<g filter="url(#filter0_d_404_1430)">
<path d="M60.5016 51.0179V49.8573C60.5016 47.9316 61.8827 47.1405 63.5815 48.1261L112.361 76.2797C113.249 76.8568 113.995 77.6349 114.526 78.5556C115.058 79.4763 115.363 80.5073 115.421 81.5642C115.447 81.9402 115.447 82.3098 115.421 82.6859L115.266 140.763C115.266 142.696 113.885 143.487 112.205 142.527L79.3701 123.587L69.858 118.095L63.3675 114.347C62.4792 113.77 61.74 112.986 61.2148 112.065C60.6896 111.144 60.3849 110.113 60.333 109.056L60.5016 51.0179Z" fill="#8F8F8F"/>
<path d="M61.5273 48.1172C61.9524 47.8769 62.569 47.875 63.3066 48.2598L63.4561 48.3428L112.229 76.4922C113.083 77.0479 113.799 77.7965 114.31 78.6807C114.822 79.5672 115.116 80.5601 115.172 81.5781V81.5811C115.197 81.9457 115.197 82.3043 115.172 82.6689L115.171 82.6768V82.6855L115.016 140.763V140.764C115.016 141.675 114.692 142.253 114.24 142.513C113.788 142.773 113.122 142.763 112.329 142.31H112.328L79.4941 123.37L69.9834 117.879L63.5029 114.137C62.6487 113.582 61.937 112.827 61.4316 111.941C60.9887 111.165 60.7088 110.307 60.6123 109.424L60.583 109.044L60.752 51.0186V49.8574C60.752 48.9491 61.0749 48.373 61.5273 48.1172Z" stroke="black" stroke-width="0.5"/>
</g>
<path d="M69.7289 61.9167C69.8888 62.0219 70.0214 62.1635 70.1162 62.3297C70.2109 62.496 70.265 62.6823 70.2741 62.8734C70.2741 63.2231 70.0272 63.3672 69.7186 63.1923C69.558 63.087 69.4241 62.9457 69.3277 62.7797C69.2313 62.6136 69.1749 62.4273 69.1631 62.2356C69.1631 61.9167 69.3792 61.783 69.7289 61.9167Z" fill="url(#paint28_linear_404_1430)"/>
<path d="M73.4938 64.1181C73.6561 64.2215 73.7913 64.3623 73.8879 64.5288C73.9846 64.6953 74.0399 64.8825 74.0492 65.0748C74.0492 65.4142 73.7921 65.5582 73.4938 65.3833C73.3326 65.2787 73.1983 65.1375 73.1018 64.9713C73.0053 64.8051 72.9493 64.6186 72.9383 64.4267C72.9178 64.0872 73.1646 63.9741 73.4938 64.1181Z" fill="url(#paint29_linear_404_1430)"/>
<path d="M77.2278 66.2886C77.3895 66.3919 77.5236 66.533 77.6185 66.6997C77.7135 66.8663 77.7665 67.0536 77.773 67.2453C77.773 67.595 77.5364 67.7493 77.2278 67.5642C77.0655 67.4607 76.9303 67.3199 76.8337 67.1534C76.737 66.987 76.6817 66.7998 76.6724 66.6075C76.6724 66.2475 76.9192 66.1137 77.2278 66.2886Z" fill="url(#paint30_linear_404_1430)"/>
<path d="M80.9825 68.459C81.1427 68.5614 81.2759 68.7008 81.3708 68.8656C81.4657 69.0303 81.5195 69.2155 81.5276 69.4055C81.5276 69.7655 81.2808 69.9095 80.9722 69.7346C80.8127 69.6266 80.6804 69.4831 80.5858 69.3153C80.4912 69.1475 80.4368 68.96 80.427 68.7676C80.427 68.4179 80.6944 68.2739 80.9825 68.459Z" fill="url(#paint31_linear_404_1430)"/>
<path d="M84.7268 70.6193C84.8874 70.7246 85.0212 70.8659 85.1177 71.0319C85.2141 71.198 85.2705 71.3843 85.2823 71.576C85.2823 71.936 85.0354 72.08 84.7268 71.8948C84.565 71.7908 84.4303 71.6498 84.3337 71.4835C84.2372 71.3172 84.1815 71.1303 84.1713 70.9382C84.1713 70.5782 84.4182 70.4444 84.7268 70.6193Z" fill="url(#paint32_linear_404_1430)"/>
<path d="M88.4711 72.7794C88.6317 72.8847 88.7656 73.026 88.862 73.1921C88.9584 73.3581 89.0148 73.5444 89.0265 73.7361C89.0265 74.0961 88.7797 74.2401 88.4711 74.055C88.3093 73.9509 88.1746 73.8099 88.0781 73.6436C87.9815 73.4773 87.9258 73.2904 87.9156 73.0983C87.8951 72.7486 88.1625 72.6046 88.4711 72.7794Z" fill="url(#paint33_linear_404_1430)"/>
<path d="M92.2258 74.9499C92.3881 75.0534 92.5233 75.1942 92.6199 75.3607C92.7166 75.5271 92.7719 75.7143 92.7812 75.9066C92.7812 76.2563 92.5241 76.4003 92.2155 76.2255C92.0578 76.118 91.9268 75.9759 91.8323 75.8102C91.7379 75.6444 91.6824 75.4592 91.6702 75.2688C91.6702 74.9088 91.9172 74.7751 92.2258 74.9499Z" fill="url(#paint34_linear_404_1430)"/>
<path d="M95.9803 77.1204C96.1427 77.2238 96.2778 77.3646 96.3745 77.5311C96.4711 77.6976 96.5265 77.8848 96.5359 78.0771C96.5359 78.4268 96.2786 78.5708 95.97 78.396C95.8088 78.2898 95.6753 78.1466 95.5805 77.9784C95.4856 77.8103 95.4323 77.6219 95.4249 77.429C95.4249 77.0793 95.6717 76.9456 95.9803 77.1204Z" fill="url(#paint35_linear_404_1430)"/>
<path d="M99.735 79.2909C99.8952 79.3932 100.028 79.5326 100.123 79.6974C100.218 79.8621 100.272 80.0473 100.28 80.2373C100.28 80.5973 100.033 80.7413 99.735 80.5664C99.573 80.4602 99.4383 80.3172 99.3418 80.1492C99.2453 79.9813 99.1897 79.7929 99.1795 79.5995C99.2103 79.2395 99.4264 79.1057 99.735 79.2909Z" fill="url(#paint36_linear_404_1430)"/>
<path d="M103.479 81.4614C103.638 81.5655 103.77 81.7054 103.864 81.8698C103.959 82.0341 104.014 82.2183 104.024 82.4077C104.024 82.7677 103.778 82.9118 103.479 82.7369C103.317 82.6306 103.181 82.4879 103.083 82.3201C102.984 82.1523 102.926 81.9639 102.914 81.7699C102.924 81.4614 103.171 81.2659 103.479 81.4614Z" fill="url(#paint37_linear_404_1430)"/>
<path d="M107.224 83.6113C107.386 83.7147 107.521 83.8555 107.618 84.022C107.714 84.1884 107.77 84.3757 107.779 84.5679C107.792 84.6371 107.783 84.7084 107.753 84.7722C107.724 84.836 107.675 84.8891 107.614 84.9241C107.553 84.9591 107.483 84.9744 107.413 84.9677C107.343 84.961 107.277 84.9327 107.224 84.8868C107.06 84.7824 106.924 84.6399 106.827 84.4716C106.73 84.3032 106.676 84.1139 106.668 83.9199C106.668 83.5701 106.915 83.4364 107.224 83.6113Z" fill="url(#paint38_linear_404_1430)"/>
<path d="M107.203 92.2314C107.363 92.3373 107.497 92.4787 107.593 92.6447C107.689 92.8106 107.746 92.9966 107.759 93.1881C107.759 93.5379 107.501 93.6819 107.203 93.507C107.039 93.4026 106.903 93.2601 106.807 93.0918C106.71 92.9234 106.655 92.7341 106.648 92.5401C106.648 92.2006 106.894 92.0565 107.203 92.2314Z" fill="url(#paint39_linear_404_1430)"/>
<path d="M107.213 87.9214C107.375 88.0254 107.51 88.1664 107.606 88.3328C107.703 88.4991 107.759 88.686 107.769 88.878C107.782 88.9472 107.773 89.0185 107.743 89.0823C107.714 89.1461 107.665 89.1992 107.604 89.2342C107.543 89.2692 107.473 89.2844 107.403 89.2777C107.333 89.271 107.267 89.2428 107.213 89.1969C107.051 89.0913 106.916 88.9485 106.819 88.7803C106.723 88.6122 106.667 88.4236 106.658 88.23C106.658 87.8905 106.905 87.7465 107.213 87.9214Z" fill="url(#paint40_linear_404_1430)"/>
<path d="M107.193 96.5416C107.351 96.648 107.483 96.7898 107.578 96.9558C107.673 97.1218 107.727 97.3075 107.738 97.4983C107.738 97.848 107.491 97.992 107.193 97.8172C107.029 97.7114 106.893 97.5688 106.795 97.4009C106.697 97.233 106.639 97.0444 106.627 96.8502C106.637 96.5005 106.884 96.3667 107.193 96.5416Z" fill="url(#paint41_linear_404_1430)"/>
<path d="M107.182 100.852C107.341 100.958 107.473 101.1 107.568 101.266C107.662 101.432 107.717 101.618 107.728 101.808C107.728 102.158 107.481 102.302 107.172 102.127C107.012 102.021 106.879 101.88 106.782 101.714C106.686 101.548 106.629 101.362 106.617 101.17C106.617 100.81 106.874 100.677 107.182 100.852Z" fill="url(#paint42_linear_404_1430)"/>
<path d="M107.172 105.121C107.331 105.227 107.463 105.369 107.557 105.535C107.652 105.701 107.707 105.886 107.717 106.077C107.717 106.427 107.47 106.571 107.162 106.396C107 106.293 106.864 106.152 106.768 105.985C106.671 105.819 106.616 105.632 106.606 105.439C106.606 105.121 106.864 104.977 107.172 105.121Z" fill="url(#paint43_linear_404_1430)"/>
<path d="M107.152 109.461C107.313 109.566 107.448 109.707 107.545 109.873C107.641 110.039 107.697 110.226 107.707 110.418C107.72 110.487 107.711 110.559 107.681 110.623C107.652 110.686 107.603 110.739 107.542 110.774C107.481 110.809 107.411 110.825 107.341 110.818C107.271 110.811 107.205 110.783 107.152 110.737C106.989 110.634 106.854 110.493 106.757 110.326C106.661 110.16 106.605 109.973 106.596 109.78C106.596 109.42 106.843 109.287 107.152 109.461Z" fill="url(#paint44_linear_404_1430)"/>
<path d="M107.131 118.092C107.292 118.196 107.426 118.337 107.521 118.504C107.615 118.67 107.669 118.857 107.676 119.049C107.676 119.398 107.429 119.532 107.131 119.357C106.968 119.257 106.833 119.118 106.736 118.953C106.639 118.788 106.584 118.602 106.576 118.411C106.576 118.051 106.822 117.917 107.131 118.092Z" fill="url(#paint45_linear_404_1430)"/>
<path d="M107.141 113.782C107.304 113.885 107.439 114.026 107.536 114.193C107.632 114.359 107.687 114.546 107.697 114.739C107.71 114.808 107.701 114.879 107.671 114.943C107.642 115.007 107.593 115.06 107.532 115.095C107.471 115.13 107.401 115.145 107.331 115.138C107.261 115.132 107.195 115.103 107.141 115.058C106.981 114.952 106.847 114.811 106.75 114.645C106.654 114.479 106.598 114.293 106.586 114.101C106.586 113.741 106.833 113.597 107.141 113.782Z" fill="url(#paint46_linear_404_1430)"/>
<path d="M107.121 122.392C107.279 122.498 107.411 122.64 107.506 122.806C107.601 122.972 107.655 123.158 107.666 123.349C107.666 123.698 107.419 123.842 107.11 123.667C106.95 123.562 106.817 123.42 106.721 123.254C106.624 123.088 106.568 122.902 106.555 122.711C106.555 122.351 106.812 122.217 107.121 122.392Z" fill="url(#paint47_linear_404_1430)"/>
<path d="M107.11 126.722C107.27 126.828 107.403 126.969 107.498 127.135C107.593 127.302 107.647 127.488 107.656 127.679C107.656 128.029 107.409 128.173 107.1 127.998C106.937 127.895 106.802 127.755 106.705 127.588C106.608 127.421 106.553 127.234 106.545 127.041C106.545 126.661 106.802 126.527 107.11 126.722Z" fill="url(#paint48_linear_404_1430)"/>
<path d="M49.8916 56.2061C50.2351 56.2404 50.5566 56.3658 50.833 56.5674L50.8438 56.5752L50.8545 56.582L99.6152 84.7285H99.6162C100.471 85.2836 101.183 86.0391 101.695 86.9199C102.143 87.6955 102.425 88.5525 102.525 89.4365L102.557 89.8174V90.8994L102.395 148.976V148.989L102.396 149.002C102.43 149.336 102.379 149.674 102.242 149.976C102.106 150.276 101.891 150.536 101.619 150.73L98.3379 152.43C98.3342 152.332 98.3264 152.233 98.3164 152.141C98.298 151.97 98.2776 151.818 98.2705 151.682C98.2629 151.535 98.2759 151.467 98.2861 151.445L98.2881 151.44C98.3262 151.356 98.3227 151.271 98.3145 151.215C98.3056 151.154 98.2863 151.094 98.2646 151.037C98.2211 150.924 98.1525 150.793 98.0732 150.657C97.9136 150.384 97.6879 150.053 97.4619 149.729C97.233 149.402 97.0044 149.081 96.8281 148.816C96.7402 148.684 96.6689 148.572 96.6191 148.482L96.5664 148.377L96.5615 148.344L88.6719 98.7773L88.6709 98.7695L88.6689 98.7627L87.7549 94.5996L87.7471 94.5645L87.7295 94.5322L87.5186 94.1797C87.0057 93.3815 86.322 92.7026 85.5156 92.1963L48.1074 60.5254L48.0986 60.5176L48.0889 60.5107L47.9814 60.4219C47.9387 60.3822 47.8885 60.3331 47.8311 60.2744C47.7264 60.1674 47.5911 60.0224 47.4658 59.8965C47.3369 59.7669 47.1977 59.6349 47.0615 59.5322C46.9396 59.4403 46.7846 59.3449 46.6201 59.3242C46.6166 59.3222 46.6058 59.3164 46.5879 59.3008C46.5516 59.2691 46.5053 59.218 46.4502 59.1455C46.3395 58.9999 46.2203 58.8073 46.0918 58.6045C45.9721 58.4156 45.841 58.2142 45.7148 58.0664L48.9072 56.3613C49.212 56.2219 49.5469 56.1716 49.8916 56.2061Z" fill="url(#paint49_linear_404_1430)" stroke="black" stroke-width="0.5"/>
<path d="M45.4053 58.1777C45.8303 57.9374 46.4469 57.9355 47.1846 58.3203L47.334 58.4033L96.1074 86.5527C96.9612 87.1084 97.6769 87.857 98.1875 88.7412C98.6994 89.6277 98.9936 90.6207 99.0498 91.6387V91.6416C99.075 92.0062 99.075 92.3649 99.0498 92.7295L99.0488 92.7373V92.7461L98.8936 150.823V150.824C98.8935 151.736 98.5696 152.314 98.1182 152.573C97.6661 152.833 96.9999 152.823 96.207 152.37H96.2061L63.3721 133.431L53.8613 127.939L47.3809 124.197C46.5266 123.642 45.8149 122.888 45.3096 122.002C44.8667 121.226 44.5867 120.368 44.4902 119.484L44.4609 119.104L44.6299 61.0791V59.918C44.6299 59.0096 44.9528 58.4336 45.4053 58.1777Z" fill="white" stroke="black" stroke-width="0.5"/>
<path d="M75.5586 92.6174C75.9901 92.8655 76.2561 93.3253 76.2561 93.8231C76.2561 94.8926 75.0992 95.5619 74.172 95.0287L55.5628 84.3284C55.1313 84.0803 54.8653 83.6205 54.8653 83.1228C54.8653 82.0532 56.0222 81.3839 56.9494 81.9171L75.5586 92.6174Z" fill="url(#paint50_linear_404_1430)"/>
<path d="M84.5118 125.488C84.9184 125.722 85.1689 126.156 85.1689 126.625C85.1689 127.635 84.0758 128.267 83.2007 127.762L55.5224 111.806C55.1158 111.572 54.8653 111.139 54.8653 110.669C54.8653 109.659 55.9585 109.027 56.8336 109.532L84.5118 125.488Z" fill="url(#paint51_linear_404_1430)"/>
<path d="M84.4731 111.102C84.9036 111.35 85.1689 111.809 85.1689 112.306C85.1689 113.375 84.0114 114.044 83.0848 113.51L55.561 97.6432C55.1305 97.395 54.8652 96.9359 54.8652 96.439C54.8652 95.3695 56.0227 94.7007 56.9493 95.2349L84.4731 111.102Z" fill="url(#paint52_linear_404_1430)"/>
<path d="M84.4758 104.686C84.9046 104.934 85.1689 105.391 85.1689 105.886C85.1689 106.954 84.0105 107.62 83.0875 107.082L55.5182 91.0273C55.1139 90.7919 54.8652 90.3593 54.8652 89.8915C54.8652 88.8801 55.9598 88.2477 56.836 88.7528L84.4758 104.686Z" fill="url(#paint53_linear_404_1430)"/>
<path d="M75.5586 113.056C75.9901 113.304 76.2561 113.764 76.2561 114.262C76.2561 115.331 75.0992 116 74.172 115.467L55.5628 104.767C55.1313 104.519 54.8653 104.059 54.8653 103.561C54.8653 102.492 56.0222 101.823 56.9494 102.356L75.5586 113.056Z" fill="url(#paint54_linear_404_1430)"/>
</g>
<defs>
<filter id="filter0_d_404_1430" x="60.333" y="47.7012" width="55.1074" height="95.2344" filterUnits="userSpaceOnUse" color-interpolation-filters="sRGB">
<feFlood flood-opacity="0" result="BackgroundImageFix"/>
<feColorMatrix in="SourceAlpha" type="matrix" values="0 0 0 0 0 0 0 0 0 0 0 0 0 0 0 0 0 0 127 0" result="hardAlpha"/>
<feOffset/>
<feColorMatrix type="matrix" values="0 0 0 0 0 0 0 0 0 0 0 0 0 0 0 0 0 0 0.1 0"/>
<feBlend mode="normal" in2="BackgroundImageFix" result="effect1_dropShadow_404_1430"/>
<feBlend mode="normal" in="SourceGraphic" in2="effect1_dropShadow_404_1430" result="shape"/>
</filter>
<linearGradient id="paint0_linear_404_1430" x1="96.8269" y1="3.08351" x2="105.004" y2="204.579" gradientUnits="userSpaceOnUse">
<stop offset="0.318529" stop-color="white"/>
<stop offset="1" stop-color="#F5F5F5"/>
</linearGradient>
<linearGradient id="paint1_linear_404_1430" x1="90.1697" y1="-39.1096" x2="93.4174" y2="222.183" gradientUnits="userSpaceOnUse">
<stop offset="0.165558" stop-color="#0D7017"/>
<stop offset="0.394537" stop-color="#128015"/>
<stop offset="0.618606" stop-color="#53BD16"/>
<stop offset="0.832621" stop-color="#AAE86D"/>
</linearGradient>
<linearGradient id="paint2_linear_404_1430" x1="90.1702" y1="-42.9836" x2="93.5113" y2="225.824" gradientUnits="userSpaceOnUse">
<stop offset="0.167379" stop-color="#AAE86D"/>
<stop offset="0.381394" stop-color="#53BD16"/>
<stop offset="0.605463" stop-color="#128015"/>
<stop offset="0.834442" stop-color="#0D7017"/>
</linearGradient>
<linearGradient id="paint3_linear_404_1430" x1="89.995" y1="83.4563" x2="90.5254" y2="178.561" gradientUnits="userSpaceOnUse">
<stop offset="0.165558" stop-color="#0D7017"/>
<stop offset="0.394537" stop-color="#128015"/>
<stop offset="0.618606" stop-color="#53BD16"/>
<stop offset="0.832621" stop-color="#AAE86D"/>
</linearGradient>
<linearGradient id="paint4_linear_404_1430" x1="89.9929" y1="75.9067" x2="90.6067" y2="178.224" gradientUnits="userSpaceOnUse">
<stop offset="0.167379" stop-color="#AAE86D"/>
<stop offset="0.381394" stop-color="#53BD16"/>
<stop offset="0.605463" stop-color="#128015"/>
<stop offset="0.834442" stop-color="#0D7017"/>
</linearGradient>
<linearGradient id="paint5_linear_404_1430" x1="106.993" y1="9.24265" x2="109.596" y2="157.082" gradientUnits="userSpaceOnUse">
<stop offset="0.167379" stop-color="#AAE86D"/>
<stop offset="0.381394" stop-color="#53BD16"/>
<stop offset="0.605463" stop-color="#128015"/>
<stop offset="0.834442" stop-color="#0D7017"/>
</linearGradient>
<linearGradient id="paint6_linear_404_1430" x1="45.8771" y1="-28.65" x2="159.27" y2="144.704" gradientUnits="userSpaceOnUse">
<stop offset="0.167379" stop-color="#FF5C39"/>
<stop offset="0.381394" stop-color="#F4364C"/>
<stop offset="0.605463" stop-color="#C73ECC"/>
<stop offset="0.834442" stop-color="#0078D4"/>
</linearGradient>
<linearGradient id="paint7_linear_404_1430" x1="45.8771" y1="-28.65" x2="159.27" y2="144.704" gradientUnits="userSpaceOnUse">
<stop offset="0.167379" stop-color="#FF5C39"/>
<stop offset="0.381394" stop-color="#F4364C"/>
<stop offset="0.605463" stop-color="#C73ECC"/>
<stop offset="0.834442" stop-color="#0078D4"/>
</linearGradient>
<linearGradient id="paint8_linear_404_1430" x1="45.8771" y1="-28.65" x2="159.27" y2="144.704" gradientUnits="userSpaceOnUse">
<stop offset="0.167379" stop-color="#FF5C39"/>
<stop offset="0.381394" stop-color="#F4364C"/>
<stop offset="0.605463" stop-color="#C73ECC"/>
<stop offset="0.834442" stop-color="#0078D4"/>
</linearGradient>
<linearGradient id="paint9_linear_404_1430" x1="45.8771" y1="-28.65" x2="159.27" y2="144.704" gradientUnits="userSpaceOnUse">
<stop offset="0.167379" stop-color="#FF5C39"/>
<stop offset="0.381394" stop-color="#F4364C"/>
<stop offset="0.605463" stop-color="#C73ECC"/>
<stop offset="0.834442" stop-color="#0078D4"/>
</linearGradient>
<linearGradient id="paint10_linear_404_1430" x1="45.8771" y1="-28.65" x2="159.27" y2="144.704" gradientUnits="userSpaceOnUse">
<stop offset="0.167379" stop-color="#FF5C39"/>
<stop offset="0.381394" stop-color="#F4364C"/>
<stop offset="0.605463" stop-color="#C73ECC"/>
<stop offset="0.834442" stop-color="#0078D4"/>
</linearGradient>
<linearGradient id="paint11_linear_404_1430" x1="45.8771" y1="-28.65" x2="159.27" y2="144.704" gradientUnits="userSpaceOnUse">
<stop offset="0.167379" stop-color="#FF5C39"/>
<stop offset="0.381394" stop-color="#F4364C"/>
<stop offset="0.605463" stop-color="#C73ECC"/>
<stop offset="0.834442" stop-color="#0078D4"/>
</linearGradient>
<linearGradient id="paint12_linear_404_1430" x1="45.8771" y1="-28.65" x2="159.27" y2="144.704" gradientUnits="userSpaceOnUse">
<stop offset="0.167379" stop-color="#FF5C39"/>
<stop offset="0.381394" stop-color="#F4364C"/>
<stop offset="0.605463" stop-color="#C73ECC"/>
<stop offset="0.834442" stop-color="#0078D4"/>
</linearGradient>
<linearGradient id="paint13_linear_404_1430" x1="45.8771" y1="-28.65" x2="159.27" y2="144.704" gradientUnits="userSpaceOnUse">
<stop offset="0.167379" stop-color="#FF5C39"/>
<stop offset="0.381394" stop-color="#F4364C"/>
<stop offset="0.605463" stop-color="#C73ECC"/>
<stop offset="0.834442" stop-color="#0078D4"/>
</linearGradient>
<linearGradient id="paint14_linear_404_1430" x1="45.8771" y1="-28.65" x2="159.27" y2="144.704" gradientUnits="userSpaceOnUse">
<stop offset="0.167379" stop-color="#FF5C39"/>
<stop offset="0.381394" stop-color="#F4364C"/>
<stop offset="0.605463" stop-color="#C73ECC"/>
<stop offset="0.834442" stop-color="#0078D4"/>
</linearGradient>
<linearGradient id="paint15_linear_404_1430" x1="45.8771" y1="-28.65" x2="159.27" y2="144.704" gradientUnits="userSpaceOnUse">
<stop offset="0.167379" stop-color="#FF5C39"/>
<stop offset="0.381394" stop-color="#F4364C"/>
<stop offset="0.605463" stop-color="#C73ECC"/>
<stop offset="0.834442" stop-color="#0078D4"/>
</linearGradient>
<linearGradient id="paint16_linear_404_1430" x1="45.8771" y1="-28.65" x2="159.27" y2="144.704" gradientUnits="userSpaceOnUse">
<stop offset="0.167379" stop-color="#FF5C39"/>
<stop offset="0.381394" stop-color="#F4364C"/>
<stop offset="0.605463" stop-color="#C73ECC"/>
<stop offset="0.834442" stop-color="#0078D4"/>
</linearGradient>
<linearGradient id="paint17_linear_404_1430" x1="45.8771" y1="-28.65" x2="159.27" y2="144.704" gradientUnits="userSpaceOnUse">
<stop offset="0.167379" stop-color="#FF5C39"/>
<stop offset="0.381394" stop-color="#F4364C"/>
<stop offset="0.605463" stop-color="#C73ECC"/>
<stop offset="0.834442" stop-color="#0078D4"/>
</linearGradient>
<linearGradient id="paint18_linear_404_1430" x1="45.8771" y1="-28.65" x2="159.27" y2="144.704" gradientUnits="userSpaceOnUse">
<stop offset="0.167379" stop-color="#FF5C39"/>
<stop offset="0.381394" stop-color="#F4364C"/>
<stop offset="0.605463" stop-color="#C73ECC"/>
<stop offset="0.834442" stop-color="#0078D4"/>
</linearGradient>
<linearGradient id="paint19_linear_404_1430" x1="45.8771" y1="-28.65" x2="159.27" y2="144.704" gradientUnits="userSpaceOnUse">
<stop offset="0.167379" stop-color="#FF5C39"/>
<stop offset="0.381394" stop-color="#F4364C"/>
<stop offset="0.605463" stop-color="#C73ECC"/>
<stop offset="0.834442" stop-color="#0078D4"/>
</linearGradient>
<linearGradient id="paint20_linear_404_1430" x1="45.8771" y1="-28.65" x2="159.27" y2="144.704" gradientUnits="userSpaceOnUse">
<stop offset="0.167379" stop-color="#FF5C39"/>
<stop offset="0.381394" stop-color="#F4364C"/>
<stop offset="0.605463" stop-color="#C73ECC"/>
<stop offset="0.834442" stop-color="#0078D4"/>
</linearGradient>
<linearGradient id="paint21_linear_404_1430" x1="45.8771" y1="-28.65" x2="159.27" y2="144.704" gradientUnits="userSpaceOnUse">
<stop offset="0.167379" stop-color="#FF5C39"/>
<stop offset="0.381394" stop-color="#F4364C"/>
<stop offset="0.605463" stop-color="#C73ECC"/>
<stop offset="0.834442" stop-color="#0078D4"/>
</linearGradient>
<linearGradient id="paint22_linear_404_1430" x1="45.8771" y1="-28.65" x2="159.27" y2="144.704" gradientUnits="userSpaceOnUse">
<stop offset="0.167379" stop-color="#FF5C39"/>
<stop offset="0.381394" stop-color="#F4364C"/>
<stop offset="0.605463" stop-color="#C73ECC"/>
<stop offset="0.834442" stop-color="#0078D4"/>
</linearGradient>
<linearGradient id="paint23_linear_404_1430" x1="45.8771" y1="-28.65" x2="159.27" y2="144.704" gradientUnits="userSpaceOnUse">
<stop offset="0.167379" stop-color="#FF5C39"/>
<stop offset="0.381394" stop-color="#F4364C"/>
<stop offset="0.605463" stop-color="#C73ECC"/>
<stop offset="0.834442" stop-color="#0078D4"/>
</linearGradient>
<linearGradient id="paint24_linear_404_1430" x1="45.8771" y1="-28.65" x2="159.27" y2="144.704" gradientUnits="userSpaceOnUse">
<stop offset="0.167379" stop-color="#FF5C39"/>
<stop offset="0.381394" stop-color="#F4364C"/>
<stop offset="0.605463" stop-color="#C73ECC"/>
<stop offset="0.834442" stop-color="#0078D4"/>
</linearGradient>
<linearGradient id="paint25_linear_404_1430" x1="45.8771" y1="-28.65" x2="159.27" y2="144.704" gradientUnits="userSpaceOnUse">
<stop offset="0.167379" stop-color="#FF5C39"/>
<stop offset="0.381394" stop-color="#F4364C"/>
<stop offset="0.605463" stop-color="#C73ECC"/>
<stop offset="0.834442" stop-color="#0078D4"/>
</linearGradient>
<linearGradient id="paint26_linear_404_1430" x1="45.8771" y1="-28.65" x2="159.27" y2="144.704" gradientUnits="userSpaceOnUse">
<stop offset="0.167379" stop-color="#FF5C39"/>
<stop offset="0.381394" stop-color="#F4364C"/>
<stop offset="0.605463" stop-color="#C73ECC"/>
<stop offset="0.834442" stop-color="#0078D4"/>
</linearGradient>
<linearGradient id="paint27_linear_404_1430" x1="90.1279" y1="18.1196" x2="92.7306" y2="165.959" gradientUnits="userSpaceOnUse">
<stop offset="0.167379" stop-color="#AAE86D"/>
<stop offset="0.381394" stop-color="#53BD16"/>
<stop offset="0.605463" stop-color="#128015"/>
<stop offset="0.834442" stop-color="#0D7017"/>
</linearGradient>
<linearGradient id="paint28_linear_404_1430" x1="27.2008" y1="-23.5073" x2="145.867" y2="157.86" gradientUnits="userSpaceOnUse">
<stop offset="0.167379" stop-color="#FF5C39"/>
<stop offset="0.381394" stop-color="#F4364C"/>
<stop offset="0.605463" stop-color="#C73ECC"/>
<stop offset="0.834442" stop-color="#0078D4"/>
</linearGradient>
<linearGradient id="paint29_linear_404_1430" x1="27.2008" y1="-23.5073" x2="145.867" y2="157.86" gradientUnits="userSpaceOnUse">
<stop offset="0.167379" stop-color="#FF5C39"/>
<stop offset="0.381394" stop-color="#F4364C"/>
<stop offset="0.605463" stop-color="#C73ECC"/>
<stop offset="0.834442" stop-color="#0078D4"/>
</linearGradient>
<linearGradient id="paint30_linear_404_1430" x1="27.2008" y1="-23.5073" x2="145.867" y2="157.86" gradientUnits="userSpaceOnUse">
<stop offset="0.167379" stop-color="#FF5C39"/>
<stop offset="0.381394" stop-color="#F4364C"/>
<stop offset="0.605463" stop-color="#C73ECC"/>
<stop offset="0.834442" stop-color="#0078D4"/>
</linearGradient>
<linearGradient id="paint31_linear_404_1430" x1="27.2008" y1="-23.5073" x2="145.867" y2="157.86" gradientUnits="userSpaceOnUse">
<stop offset="0.167379" stop-color="#FF5C39"/>
<stop offset="0.381394" stop-color="#F4364C"/>
<stop offset="0.605463" stop-color="#C73ECC"/>
<stop offset="0.834442" stop-color="#0078D4"/>
</linearGradient>
<linearGradient id="paint32_linear_404_1430" x1="27.2008" y1="-23.5073" x2="145.867" y2="157.86" gradientUnits="userSpaceOnUse">
<stop offset="0.167379" stop-color="#FF5C39"/>
<stop offset="0.381394" stop-color="#F4364C"/>
<stop offset="0.605463" stop-color="#C73ECC"/>
<stop offset="0.834442" stop-color="#0078D4"/>
</linearGradient>
<linearGradient id="paint33_linear_404_1430" x1="27.2008" y1="-23.5073" x2="145.867" y2="157.86" gradientUnits="userSpaceOnUse">
<stop offset="0.167379" stop-color="#FF5C39"/>
<stop offset="0.381394" stop-color="#F4364C"/>
<stop offset="0.605463" stop-color="#C73ECC"/>
<stop offset="0.834442" stop-color="#0078D4"/>
</linearGradient>
<linearGradient id="paint34_linear_404_1430" x1="27.2008" y1="-23.5073" x2="145.867" y2="157.86" gradientUnits="userSpaceOnUse">
<stop offset="0.167379" stop-color="#FF5C39"/>
<stop offset="0.381394" stop-color="#F4364C"/>
<stop offset="0.605463" stop-color="#C73ECC"/>
<stop offset="0.834442" stop-color="#0078D4"/>
</linearGradient>
<linearGradient id="paint35_linear_404_1430" x1="27.2008" y1="-23.5073" x2="145.867" y2="157.86" gradientUnits="userSpaceOnUse">
<stop offset="0.167379" stop-color="#FF5C39"/>
<stop offset="0.381394" stop-color="#F4364C"/>
<stop offset="0.605463" stop-color="#C73ECC"/>
<stop offset="0.834442" stop-color="#0078D4"/>
</linearGradient>
<linearGradient id="paint36_linear_404_1430" x1="27.2008" y1="-23.5073" x2="145.867" y2="157.86" gradientUnits="userSpaceOnUse">
<stop offset="0.167379" stop-color="#FF5C39"/>
<stop offset="0.381394" stop-color="#F4364C"/>
<stop offset="0.605463" stop-color="#C73ECC"/>
<stop offset="0.834442" stop-color="#0078D4"/>
</linearGradient>
<linearGradient id="paint37_linear_404_1430" x1="27.2008" y1="-23.5073" x2="145.867" y2="157.86" gradientUnits="userSpaceOnUse">
<stop offset="0.167379" stop-color="#FF5C39"/>
<stop offset="0.381394" stop-color="#F4364C"/>
<stop offset="0.605463" stop-color="#C73ECC"/>
<stop offset="0.834442" stop-color="#0078D4"/>
</linearGradient>
<linearGradient id="paint38_linear_404_1430" x1="27.2008" y1="-23.5073" x2="145.867" y2="157.86" gradientUnits="userSpaceOnUse">
<stop offset="0.167379" stop-color="#FF5C39"/>
<stop offset="0.381394" stop-color="#F4364C"/>
<stop offset="0.605463" stop-color="#C73ECC"/>
<stop offset="0.834442" stop-color="#0078D4"/>
</linearGradient>
<linearGradient id="paint39_linear_404_1430" x1="27.2008" y1="-23.5073" x2="145.867" y2="157.86" gradientUnits="userSpaceOnUse">
<stop offset="0.167379" stop-color="#FF5C39"/>
<stop offset="0.381394" stop-color="#F4364C"/>
<stop offset="0.605463" stop-color="#C73ECC"/>
<stop offset="0.834442" stop-color="#0078D4"/>
</linearGradient>
<linearGradient id="paint40_linear_404_1430" x1="27.2008" y1="-23.5073" x2="145.867" y2="157.86" gradientUnits="userSpaceOnUse">
<stop offset="0.167379" stop-color="#FF5C39"/>
<stop offset="0.381394" stop-color="#F4364C"/>
<stop offset="0.605463" stop-color="#C73ECC"/>
<stop offset="0.834442" stop-color="#0078D4"/>
</linearGradient>
<linearGradient id="paint41_linear_404_1430" x1="27.2008" y1="-23.5073" x2="145.867" y2="157.86" gradientUnits="userSpaceOnUse">
<stop offset="0.167379" stop-color="#FF5C39"/>
<stop offset="0.381394" stop-color="#F4364C"/>
<stop offset="0.605463" stop-color="#C73ECC"/>
<stop offset="0.834442" stop-color="#0078D4"/>
</linearGradient>
<linearGradient id="paint42_linear_404_1430" x1="27.2008" y1="-23.5073" x2="145.867" y2="157.86" gradientUnits="userSpaceOnUse">
<stop offset="0.167379" stop-color="#FF5C39"/>
<stop offset="0.381394" stop-color="#F4364C"/>
<stop offset="0.605463" stop-color="#C73ECC"/>
<stop offset="0.834442" stop-color="#0078D4"/>
</linearGradient>
<linearGradient id="paint43_linear_404_1430" x1="27.2008" y1="-23.5073" x2="145.867" y2="157.86" gradientUnits="userSpaceOnUse">
<stop offset="0.167379" stop-color="#FF5C39"/>
<stop offset="0.381394" stop-color="#F4364C"/>
<stop offset="0.605463" stop-color="#C73ECC"/>
<stop offset="0.834442" stop-color="#0078D4"/>
</linearGradient>
<linearGradient id="paint44_linear_404_1430" x1="27.2008" y1="-23.5073" x2="145.867" y2="157.86" gradientUnits="userSpaceOnUse">
<stop offset="0.167379" stop-color="#FF5C39"/>
<stop offset="0.381394" stop-color="#F4364C"/>
<stop offset="0.605463" stop-color="#C73ECC"/>
<stop offset="0.834442" stop-color="#0078D4"/>
</linearGradient>
<linearGradient id="paint45_linear_404_1430" x1="27.2008" y1="-23.5073" x2="145.867" y2="157.86" gradientUnits="userSpaceOnUse">
<stop offset="0.167379" stop-color="#FF5C39"/>
<stop offset="0.381394" stop-color="#F4364C"/>
<stop offset="0.605463" stop-color="#C73ECC"/>
<stop offset="0.834442" stop-color="#0078D4"/>
</linearGradient>
<linearGradient id="paint46_linear_404_1430" x1="27.2008" y1="-23.5073" x2="145.867" y2="157.86" gradientUnits="userSpaceOnUse">
<stop offset="0.167379" stop-color="#FF5C39"/>
<stop offset="0.381394" stop-color="#F4364C"/>
<stop offset="0.605463" stop-color="#C73ECC"/>
<stop offset="0.834442" stop-color="#0078D4"/>
</linearGradient>
<linearGradient id="paint47_linear_404_1430" x1="27.2008" y1="-23.5073" x2="145.867" y2="157.86" gradientUnits="userSpaceOnUse">
<stop offset="0.167379" stop-color="#FF5C39"/>
<stop offset="0.381394" stop-color="#F4364C"/>
<stop offset="0.605463" stop-color="#C73ECC"/>
<stop offset="0.834442" stop-color="#0078D4"/>
</linearGradient>
<linearGradient id="paint48_linear_404_1430" x1="27.2008" y1="-23.5073" x2="145.867" y2="157.86" gradientUnits="userSpaceOnUse">
<stop offset="0.167379" stop-color="#FF5C39"/>
<stop offset="0.381394" stop-color="#F4364C"/>
<stop offset="0.605463" stop-color="#C73ECC"/>
<stop offset="0.834442" stop-color="#0078D4"/>
</linearGradient>
<linearGradient id="paint49_linear_404_1430" x1="74.0039" y1="28.1801" x2="76.6066" y2="176.02" gradientUnits="userSpaceOnUse">
<stop offset="0.167379" stop-color="#AAE86D"/>
<stop offset="0.381394" stop-color="#53BD16"/>
<stop offset="0.605463" stop-color="#128015"/>
<stop offset="0.834442" stop-color="#0D7017"/>
</linearGradient>
<linearGradient id="paint50_linear_404_1430" x1="70.015" y1="66.9227" x2="71.2364" y2="140.384" gradientUnits="userSpaceOnUse">
<stop offset="0.165558" stop-color="#0D7017"/>
<stop offset="0.394537" stop-color="#128015"/>
<stop offset="0.618606" stop-color="#53BD16"/>
<stop offset="0.832621" stop-color="#AAE86D"/>
</linearGradient>
<linearGradient id="paint51_linear_404_1430" x1="70.015" y1="66.9227" x2="71.2364" y2="140.384" gradientUnits="userSpaceOnUse">
<stop offset="0.165558" stop-color="#0D7017"/>
<stop offset="0.394537" stop-color="#128015"/>
<stop offset="0.618606" stop-color="#53BD16"/>
<stop offset="0.832621" stop-color="#AAE86D"/>
</linearGradient>
<linearGradient id="paint52_linear_404_1430" x1="70.015" y1="66.9227" x2="71.2364" y2="140.384" gradientUnits="userSpaceOnUse">
<stop offset="0.165558" stop-color="#0D7017"/>
<stop offset="0.394537" stop-color="#128015"/>
<stop offset="0.618606" stop-color="#53BD16"/>
<stop offset="0.832621" stop-color="#AAE86D"/>
</linearGradient>
<linearGradient id="paint53_linear_404_1430" x1="70.015" y1="66.9227" x2="71.2364" y2="140.384" gradientUnits="userSpaceOnUse">
<stop offset="0.165558" stop-color="#0D7017"/>
<stop offset="0.394537" stop-color="#128015"/>
<stop offset="0.618606" stop-color="#53BD16"/>
<stop offset="0.832621" stop-color="#AAE86D"/>
</linearGradient>
<linearGradient id="paint54_linear_404_1430" x1="70.015" y1="66.9227" x2="71.2364" y2="140.384" gradientUnits="userSpaceOnUse">
<stop offset="0.165558" stop-color="#0D7017"/>
<stop offset="0.394537" stop-color="#128015"/>
<stop offset="0.618606" stop-color="#53BD16"/>
<stop offset="0.832621" stop-color="#AAE86D"/>
</linearGradient>
<clipPath id="clip0_404_1430">
<rect width="180" height="190" fill="white"/>
</clipPath>
</defs>
</svg>
