<svg width="180" height="190" viewBox="0 0 180 190" fill="none" xmlns="http://www.w3.org/2000/svg">
<g clip-path="url(#clip0_384_5499)">
<path d="M90.1859 189.742C93.2459 189.742 96.2559 188.892 98.9159 187.272L160.886 149.612C166.426 146.242 169.856 139.912 169.856 133.072V58.3618C169.856 51.5418 166.426 45.2018 160.886 41.8218L98.9159 4.16176C93.5859 0.921764 86.7659 0.941764 81.4659 4.16176L19.4959 41.8418C13.9559 45.2118 10.5059 51.5418 10.5059 58.3818V133.082C10.5059 138.842 12.9559 144.262 17.0559 147.832V147.862L81.4659 187.292C84.1059 188.892 87.1259 189.742 90.1859 189.742ZM90.8359 8.69176C92.7859 8.69176 95.2659 9.90176 96.9759 10.9518L157.736 48.1418C161.486 50.4218 163.606 57.0218 163.606 61.7718L162.976 133.072C162.976 137.822 159.776 142.092 156.026 144.372L95.6259 180.752C92.1959 182.842 89.4059 182.842 85.9659 180.752L24.7559 144.282C21.0059 142.002 17.9859 137.802 17.9859 133.072V59.4318C17.9859 54.6918 20.7159 49.8018 24.4859 47.5118L85.0659 10.9518C86.7659 9.91176 88.8859 8.69176 90.8359 8.69176Z" fill="#F2F1F0"/>
<path fill-rule="evenodd" clip-rule="evenodd" d="M98.0854 12.2715C95.6354 10.7715 92.9154 10.0215 90.1854 10.0215C87.4554 10.0215 84.7354 10.7815 82.2854 12.2715L26.1554 46.6015C21.1354 49.6715 18.0254 55.4215 18.0254 61.6715V129.771C18.0254 136.001 21.1254 141.771 26.1554 144.841L82.2854 179.171C84.7354 180.671 87.4554 181.421 90.1854 181.421C92.9154 181.421 95.6354 180.681 98.0854 179.171L154.215 144.841C159.235 141.771 162.345 136.001 162.345 129.771V61.6715C162.345 55.4415 159.245 49.6915 154.215 46.6015L98.0854 12.2715Z" fill="url(#paint0_linear_384_5499)"/>
<path d="M90.1846 9.80566C92.682 9.80568 95.035 10.8862 96.959 11.9902L97.7568 12.4619L154.583 47.0088C159.413 49.9443 162.412 55.4576 162.412 61.4648V129.975C162.412 135.982 159.413 141.495 154.583 144.431L97.7568 178.978L97.7559 178.977C95.588 180.295 92.9556 181.448 90.1748 181.448C87.3936 181.448 84.7699 180.286 82.6025 178.968L25.7764 144.421C23.5705 143.084 21.5455 141.513 20.1084 139.15H20.1074C18.6703 136.778 17.9473 133.843 17.9473 129.975V61.4648C17.9473 55.4576 20.9463 49.9443 25.7764 47.0088L82.6123 12.4521L82.6484 12.4307H82.6582C84.6859 11.2104 87.3372 9.80566 90.1846 9.80566ZM90.1846 13.9941C88.5876 13.9941 86.8113 14.8267 84.7793 16.042L27.9541 50.5889C24.4537 52.7179 22.1357 56.8189 22.1357 61.4648V129.975C22.1358 133.319 22.7545 135.448 23.6885 136.973L23.8691 137.257C24.7987 138.653 26.1316 139.734 27.9551 140.85L84.7998 175.387C86.6953 176.537 88.5334 177.251 90.1943 177.251C91.8553 177.251 93.6934 176.538 95.5889 175.387L152.415 140.84C155.915 138.711 158.233 134.601 158.233 129.965V61.4551C158.233 56.8093 155.915 52.7092 152.415 50.5801L95.5791 16.0332C93.5779 14.8189 91.7723 13.9942 90.1846 13.9941Z" fill="url(#paint1_linear_384_5499)" stroke="black" stroke-width="0.3"/>
<path d="M90.1855 7.3418C93.1207 7.34185 95.8625 8.7935 97.9736 10.0742L156.434 45.6143C161.401 48.6333 164.485 54.3038 164.485 60.4824V130.962C164.485 137.141 161.401 142.811 156.434 145.83L97.9736 181.37C95.7437 182.726 93.0355 183.912 90.1758 183.912C87.3156 183.912 84.6172 182.716 82.3877 181.36L23.9277 145.82C21.6586 144.445 19.5756 142.83 18.0977 140.4H18.0967C16.6186 137.961 15.875 134.941 15.875 130.962V60.4824C15.875 54.3036 18.96 48.6333 23.9277 45.6143L82.3975 10.0645L82.4336 10.042H82.4443C84.5304 8.78662 87.2573 7.3418 90.1855 7.3418ZM90.1855 11.6426C88.5412 11.6426 86.7128 12.5006 84.6221 13.751L84.6211 13.75L26.1631 49.29C22.5607 51.4811 20.1758 55.7014 20.1758 60.4824V130.962C20.1758 134.403 20.812 136.594 21.7734 138.164L21.959 138.456C22.9157 139.893 24.2877 141.006 26.1641 142.154L84.6436 177.684C86.5939 178.868 88.4854 179.603 90.1953 179.603C91.9052 179.603 93.7968 178.868 95.7471 177.684L154.207 142.144C157.809 139.953 160.195 135.723 160.195 130.952V60.4727C160.195 55.6917 157.809 51.4714 154.207 49.2803L95.7373 13.7402C93.6787 12.4911 91.8202 11.6426 90.1855 11.6426Z" fill="url(#paint2_linear_384_5499)" stroke="black" stroke-width="0.3"/>
<path opacity="0.15" d="M141.932 131.924C142.173 132.056 143.611 132.688 144.095 132.848C144.143 132.864 144.189 132.885 144.231 132.912L145.136 133.499C145.452 133.704 145.439 134.169 145.113 134.356L92.2864 164.703C90.8118 165.552 88.9975 165.544 87.5384 164.672L33.6383 133.471C33.3084 133.28 33.3031 132.805 33.6287 132.607L34.6313 131.997C34.9618 131.796 35.2281 131.089 35.279 130.706C35.3266 130.348 35.4332 129.999 35.5571 129.935L89.3604 99.377C89.9394 99.0683 90.6883 99.0683 91.2673 99.377L141.932 131.924Z" fill="#1F1D20"/>
<path d="M146.171 128.971L146.2 128.984L146.232 128.985L148.321 129.048C148.321 129.065 148.321 129.084 148.321 129.104C148.32 129.226 148.32 129.393 148.318 129.566C148.316 129.913 148.313 130.292 148.312 130.414C148.312 130.451 148.281 130.514 148.201 130.566L91.3174 163.227H91.3164C90.6402 163.618 89.7462 163.618 89.0615 163.227L31.8115 130.379L31.7998 130.372L31.7871 130.368L31.7627 130.353C31.7533 130.344 31.7426 130.332 31.7324 130.315C31.7121 130.283 31.7041 130.248 31.7041 130.228C31.7041 130.085 31.6985 129.705 31.6934 129.361C31.6908 129.189 31.6885 129.026 31.6865 128.905C31.6859 128.868 31.684 128.835 31.6836 128.808L33.9062 127.855L33.9111 127.854L89.8223 101.479L146.171 128.971Z" fill="url(#paint3_linear_384_5499)"/>
<path d="M146.171 128.971L146.2 128.984L146.232 128.985L148.321 129.048C148.321 129.065 148.321 129.084 148.321 129.104C148.32 129.226 148.32 129.393 148.318 129.566C148.316 129.913 148.313 130.292 148.312 130.414C148.312 130.451 148.281 130.514 148.201 130.566L91.3174 163.227H91.3164C90.6402 163.618 89.7462 163.618 89.0615 163.227L31.8115 130.379L31.7998 130.372L31.7871 130.368L31.7627 130.353C31.7533 130.344 31.7426 130.332 31.7324 130.315C31.7121 130.283 31.7041 130.248 31.7041 130.228C31.7041 130.085 31.6985 129.705 31.6934 129.361C31.6908 129.189 31.6885 129.026 31.6865 128.905C31.6859 128.868 31.684 128.835 31.6836 128.808L33.9062 127.855L33.9111 127.854L89.8223 101.479L146.171 128.971Z" fill="black" fill-opacity="0.4"/>
<path d="M146.171 128.971L146.2 128.984L146.232 128.985L148.321 129.048C148.321 129.065 148.321 129.084 148.321 129.104C148.32 129.226 148.32 129.393 148.318 129.566C148.316 129.913 148.313 130.292 148.312 130.414C148.312 130.451 148.281 130.514 148.201 130.566L91.3174 163.227H91.3164C90.6402 163.618 89.7462 163.618 89.0615 163.227L31.8115 130.379L31.7998 130.372L31.7871 130.368L31.7627 130.353C31.7533 130.344 31.7426 130.332 31.7324 130.315C31.7121 130.283 31.7041 130.248 31.7041 130.228C31.7041 130.085 31.6985 129.705 31.6934 129.361C31.6908 129.189 31.6885 129.026 31.6865 128.905C31.6859 128.868 31.684 128.835 31.6836 128.808L33.9062 127.855L33.9111 127.854L89.8223 101.479L146.171 128.971Z" stroke="black" stroke-width="0.3"/>
<path d="M88.9414 95.4834C89.4835 95.195 90.1608 95.195 90.6943 95.4824L148.233 128.789V128.79C148.357 128.867 148.363 129.043 148.23 129.13L91.3184 161.758C90.5932 162.153 89.7351 162.151 89.0518 161.76L31.7637 128.912C31.6445 128.834 31.6395 128.66 31.7705 128.574L88.9414 95.4834Z" fill="url(#paint4_linear_384_5499)" stroke="black" stroke-width="0.3"/>
<path d="M89.1055 95.7256C89.63 95.4481 90.1243 95.4907 90.6582 95.7773H90.6592L147.96 128.932V128.931C147.963 128.933 147.967 128.935 147.97 128.937L91.2773 161.419C90.5601 161.809 89.712 161.808 89.0361 161.421L32.0273 128.722C32.0263 128.721 32.0254 128.72 32.0244 128.72C32.028 128.717 32.0314 128.714 32.0352 128.712L32.0361 128.713L89.1055 95.7256Z" stroke="white" stroke-width="0.3"/>
<g opacity="0.5">
<path d="M87.3512 102.805C88.4262 102.187 89.6411 101.889 90.856 101.889C92.0893 101.889 93.3263 102.209 94.4197 102.846L111.204 112.597L111.222 115.084L113.052 116.177L113.232 116.059L111.421 114.966L111.399 112.479L94.4971 102.665C92.266 101.37 89.4791 101.352 87.2297 102.647L69.9669 112.497V115.043L68.0156 116.258L68.2549 116.398L70.1877 115.183V112.597L87.3512 102.805Z" fill="#50E6FF"/>
<path d="M87.5891 104.657L71.8983 113.572V116.159L69.8477 117.315L70.1054 117.454L72.156 116.321V113.734L87.7069 104.878C88.6825 104.322 89.7575 104.042 90.8509 104.042C91.9444 104.042 93.0599 104.322 94.0355 104.9L109.266 113.716L109.307 116.185L111.099 117.3L111.398 117.12L109.546 116.045L109.505 113.576L94.1791 104.679C92.1468 103.501 89.6176 103.501 87.5891 104.657Z" fill="#45D6F9"/>
<path d="M88.0884 106.945C88.9425 106.448 89.9218 106.209 90.8753 106.209C91.8509 106.209 92.8265 106.467 93.7028 106.967L107.361 114.849L107.38 117.336L109.191 118.451L109.511 118.234L107.678 117.16L107.637 114.672L93.8206 106.713C91.9908 105.657 89.7193 105.657 87.8859 106.695L73.7708 114.687V117.274L71.6797 118.389L72 118.569L74.0911 117.454L74.1095 114.886L88.0884 106.945Z" fill="#39C7F3"/>
<path d="M88.2636 108.696L75.7021 115.78V118.366L73.6699 119.522L74.0491 119.739L76.0997 118.606L76.0813 116L88.4256 109.035C89.1803 108.615 90.0197 108.398 90.8554 108.398C91.7095 108.398 92.5674 108.615 93.3258 109.053L105.431 115.997L105.453 118.484L107.305 119.577L107.662 119.378L105.81 118.263L105.792 115.776L93.5282 108.733C91.9084 107.78 89.8982 107.78 88.2636 108.696Z" fill="#2EB7ED"/>
<path d="M88.8018 111.084C89.4387 110.727 90.1566 110.547 90.8708 110.547C91.5851 110.547 92.3251 110.727 92.962 111.102L103.296 117.251L103.278 119.757L105.089 120.872L105.487 120.632L103.734 119.477L103.716 116.99L93.1645 110.719C91.7507 109.903 89.9983 109.903 88.5846 110.701L77.5952 116.894L77.5767 119.462L75.666 120.677L76.1225 120.934L77.9928 119.72L78.0112 117.151L88.8018 111.084Z" fill="#22A7E6"/>
<path d="M88.923 112.736L79.5056 118.008V120.577L77.6133 121.791L78.1103 122.071L80.021 120.879L79.9989 118.292L89.1586 113.177C89.6961 112.879 90.2742 112.739 90.8706 112.739C91.467 112.739 92.0634 112.897 92.6046 113.195L101.565 118.251L101.547 120.779L103.417 121.872L103.914 121.592L102.022 120.5L102.04 117.972L92.8402 112.758C91.6511 112.058 90.1379 112.058 88.923 112.736Z" fill="#1797E0"/>
<path d="M89.5426 115.224C89.9586 114.984 90.4372 114.867 90.8974 114.867C91.376 114.867 91.8546 114.984 92.2706 115.224L99.6779 119.363L99.6374 121.891L101.471 123.046L101.99 122.726L100.179 121.593L100.197 119.047L92.532 114.767C91.538 114.212 90.2826 114.212 89.2849 114.767L81.4358 119.124V121.692L79.584 122.907L80.081 123.186L81.9733 121.994V119.422L89.5426 115.224Z" fill="#0B88DA"/>
<path d="M131.132 123.919L115.401 114.786L115.202 114.904L131.029 124.096C132.145 124.751 132.8 125.906 132.8 127.179C132.8 128.474 132.123 129.626 131.007 130.263L115.059 139.436L115.257 139.554L131.092 130.447C132.266 129.77 132.984 128.555 132.984 127.183C133.002 125.81 132.307 124.596 131.132 123.919Z" fill="#50E6FF"/>
<path d="M129.379 127.182C129.379 128.338 128.782 129.372 127.766 129.949L113.213 138.346L113.471 138.486L127.884 130.166C128.959 129.548 129.618 128.415 129.618 127.182C129.618 125.928 128.981 124.813 127.884 124.176L113.511 115.856L113.253 116.015L127.748 124.393C128.782 124.993 129.379 126.027 129.379 127.182Z" fill="#45D6F9"/>
<path d="M125.975 127.201C125.975 128.235 125.437 129.152 124.561 129.67L111.399 137.291L111.72 137.49L124.719 129.946C125.713 129.369 126.291 128.353 126.291 127.22C126.291 126.086 125.695 125.053 124.719 124.493L111.701 116.994L111.381 117.174L124.542 124.754C125.437 125.273 125.975 126.19 125.975 127.201Z" fill="#39C7F3"/>
<path d="M122.551 127.223C122.551 128.117 122.094 128.916 121.317 129.372L109.551 136.216L109.93 136.415L121.52 129.67C122.414 129.151 122.934 128.239 122.934 127.201C122.934 126.167 122.396 125.251 121.501 124.732L109.849 118.05L109.492 118.267L121.336 125.052C122.094 125.53 122.551 126.325 122.551 127.223Z" fill="#2EB7ED"/>
<path d="M119.127 127.242C119.127 128 118.73 128.695 118.071 129.074L107.678 135.164L108.134 135.385L118.31 129.435C119.105 128.979 119.584 128.14 119.565 127.227C119.547 126.311 119.087 125.476 118.291 125.038L107.998 119.165L107.578 119.423L118.089 125.413C118.73 125.788 119.127 126.487 119.127 127.242Z" fill="#22A7E6"/>
<path d="M108.116 138.009L107.976 137.928L107.818 137.828L107.678 137.77" fill="#22A7E6"/>
<path d="M115.722 127.263C115.722 127.9 115.402 128.477 114.846 128.794L105.848 134.107L106.327 134.387L115.085 129.213C115.781 128.794 116.201 128.08 116.182 127.263C116.182 126.446 115.744 125.732 115.048 125.331L106.109 120.275L105.631 120.555L114.809 125.747C115.383 126.067 115.722 126.626 115.722 127.263Z" fill="#1797E0"/>
<path d="M112.296 127.282C112.296 127.778 112.038 128.238 111.618 128.496L103.994 133.033V135.62L101.943 136.712L102.44 137.01L104.531 135.936V133.349L111.898 128.97C112.495 128.614 112.855 127.977 112.855 127.278C112.855 126.579 112.476 125.964 111.861 125.607L104.292 121.372L103.755 121.692L111.6 126.089C112.038 126.325 112.296 126.785 112.296 127.282Z" fill="#0B88DA"/>
<path d="M49.9209 130.365C48.787 129.728 48.1096 128.573 48.0875 127.259C48.0875 125.964 48.7649 124.79 49.8804 124.154L65.9062 115.021L65.7074 114.903L49.7994 123.977C48.6066 124.654 47.8887 125.887 47.8887 127.263C47.8887 128.639 48.6066 129.868 49.8215 130.527L66.1216 139.674C66.15 139.69 66.1676 139.72 66.1676 139.753V142.101C66.1676 142.166 66.2028 142.226 66.2596 142.258L71.4995 145.195C71.5273 145.211 71.5614 145.211 71.5889 145.195L71.7162 145.12C71.7462 145.103 71.7459 145.059 71.7157 145.042L66.4746 142.074C66.4464 142.058 66.429 142.028 66.429 141.995V139.685C66.429 139.619 66.3937 139.559 66.3367 139.527L49.9209 130.365Z" fill="#50E6FF"/>
<path d="M110.784 141.909L94.379 151.339C92.229 152.572 89.5415 152.594 87.3914 151.38L70.7066 142.008L70.5078 142.126L87.3104 151.538C88.4039 152.156 89.6409 152.473 90.8742 152.473C92.1296 152.473 93.3813 152.153 94.4968 151.498L111.001 142.004L111.323 141.827L111.093 141.728L110.784 141.909Z" fill="#50E6FF"/>
<path d="M87.7263 149.47L72.5546 140.915L72.2969 141.073L87.6085 149.691C88.6025 150.246 89.7401 150.544 90.8556 150.544C92.0116 150.544 93.1455 150.246 94.1616 149.669L109.212 140.974L109.569 140.789L109.258 140.668L108.954 140.834L94.0217 149.452C92.0889 150.563 89.6775 150.585 87.7263 149.47Z" fill="#45D6F9"/>
<path d="M51.3535 127.263C51.3535 128.518 52.0088 129.652 53.1243 130.27L67.912 138.601C67.94 138.616 67.9575 138.646 67.9578 138.678L67.9748 140.661C67.9754 140.727 68.0118 140.787 68.0697 140.818L70.5543 142.152L70.7256 142.146L70.78 142.047L68.2335 140.61L68.2159 138.572C68.2154 138.508 68.1804 138.448 68.1242 138.417L53.2458 130.049C52.2297 129.471 51.6149 128.437 51.6149 127.263C51.6149 126.09 52.2113 125.056 53.2274 124.478L67.8616 116.158L67.6039 116.019L53.0838 124.257C52.0088 124.875 51.3535 126.009 51.3535 127.263Z" fill="#45D6F9"/>
<path d="M54.8344 127.264C54.8344 128.419 55.4308 129.431 56.4285 130.009L69.7212 137.544C69.7494 137.56 69.7668 137.59 69.7668 137.623V139.621C69.7668 139.687 69.8035 139.749 69.8624 139.78L72.3066 141.078L72.5475 141.087L72.5668 140.919L70.1118 139.574C70.0829 139.559 70.065 139.528 70.065 139.495V137.39L56.5868 129.751C55.6922 129.232 55.1547 128.32 55.1547 127.282C55.1547 126.248 55.6922 125.313 56.5868 124.813L69.8478 117.31L69.5275 117.13L56.4285 124.515C55.4345 125.093 54.816 126.127 54.8344 127.264Z" fill="#39C7F3"/>
<path d="M88.0885 147.579L74.4299 139.837L74.1133 140.017L87.9302 147.837C88.8469 148.355 89.8409 148.613 90.857 148.613C91.8915 148.613 92.926 148.355 93.8427 147.818L107.442 139.936L107.851 139.705L107.529 139.521L107.122 139.756L93.6844 147.557C91.9688 148.554 89.8188 148.554 88.0885 147.579Z" fill="#39C7F3"/>
<path d="M88.4259 145.687L76.262 138.762L75.8828 138.983L88.2271 146.007C89.0444 146.463 89.939 146.702 90.8557 146.702C91.7724 146.702 92.7075 146.463 93.5248 145.985L105.67 138.92L106.049 138.714L105.645 138.504L105.313 138.703L93.3481 145.668C91.8276 146.544 89.9574 146.544 88.4259 145.687Z" fill="#2EB7ED"/>
<path d="M58.3008 127.282C58.3008 128.315 58.8383 129.25 59.7329 129.769L71.5802 136.514V138.695C71.5802 138.764 71.62 138.828 71.6825 138.858L74.1176 140.021L74.3795 140.029L74.4586 139.824L71.9373 138.61V136.315L59.9133 129.471C59.1181 129.033 58.6579 128.216 58.6579 127.304C58.6579 126.409 59.1365 125.593 59.9133 125.155L71.7826 118.465L71.4255 118.248L59.7403 124.835C58.8383 125.313 58.3008 126.248 58.3008 127.282Z" fill="#2EB7ED"/>
<path d="M61.7656 127.281C61.7656 128.216 62.2442 129.033 63.0394 129.489L73.3736 135.439L73.3552 137.927L75.6046 139.159L76.0022 138.92L73.7933 137.687L73.8117 135.2L63.2603 129.151C62.5829 128.772 62.1853 128.076 62.1853 127.3C62.1853 126.523 62.5829 125.846 63.2603 125.467L73.7344 119.58L73.3147 119.341L63.0394 125.114C62.2442 125.53 61.7656 126.347 61.7656 127.281Z" fill="#22A7E6"/>
<path d="M88.7833 143.799L78.1326 137.669L77.7129 137.908L88.5624 144.138C89.2803 144.535 90.0756 144.756 90.8708 144.756C91.6881 144.756 92.4833 144.535 93.2196 144.119L103.933 137.853L104.24 137.678L103.833 137.431L103.517 137.614L93.0245 143.762C91.6918 144.535 90.0792 144.535 88.7833 143.799Z" fill="#22A7E6"/>
<path d="M65.2285 127.282C65.2285 128.099 65.6482 128.835 66.344 129.232L75.1834 134.365V136.853L77.5323 138.027L77.952 137.787L75.6805 136.573V134.086L66.5833 128.813C66.0274 128.493 65.7071 127.919 65.7071 127.282C65.7071 126.645 66.0458 126.068 66.6017 125.77L75.6989 120.677L75.2203 120.397L66.3845 125.35C65.6666 125.751 65.2285 126.465 65.2285 127.282Z" fill="#1797E0"/>
<path d="M89.1221 141.886L79.9845 136.595L79.5059 136.875L88.8828 142.306C89.5013 142.663 90.1971 142.843 90.8745 142.843C91.5703 142.843 92.2698 142.663 92.8846 142.288L102.144 136.834L101.665 136.555L92.6453 141.886C91.5703 142.527 90.2155 142.527 89.1221 141.886Z" fill="#1797E0"/>
<path d="M89.4784 140L81.8539 135.521L81.3164 135.838L89.1986 140.474C89.7177 140.772 90.2957 140.931 90.87 140.931C91.4665 140.931 92.0445 140.772 92.5636 140.474L100.368 135.838L99.8309 135.521L92.2838 140.018C91.4296 140.515 90.3546 140.515 89.4784 140Z" fill="#0B88DA"/>
<path d="M68.6934 127.282C68.6934 127.977 69.0505 128.614 69.6506 128.975L76.9953 133.294V135.782L79.2263 137.037L79.7049 136.757L77.5144 135.462V132.974L69.9083 128.496C69.4702 128.239 69.2125 127.779 69.2125 127.282C69.2125 126.785 69.4923 126.325 69.9304 126.09L77.6543 121.81L77.1168 121.49L69.669 125.611C69.0726 125.968 68.7154 126.587 68.6934 127.282Z" fill="#0B88DA"/>
<path d="M72.159 127.3C72.1406 127.896 72.4388 128.434 72.9542 128.732L78.8263 132.235L78.8447 134.704L81.1346 135.936L81.6537 135.638L79.4632 134.347L79.4043 131.878L73.2745 128.217C72.9542 128.018 72.7554 127.679 72.7775 127.3C72.7996 126.921 72.9763 126.583 73.315 126.406L79.6473 122.925L79.0509 122.568L73.0352 125.869C72.4977 126.189 72.1811 126.704 72.159 127.3Z" fill="#0078D4"/>
<path d="M89.8172 138.107L83.7058 134.446L83.1094 134.784L89.519 138.604C89.9387 138.861 90.4136 138.983 90.8922 138.983C91.3708 138.983 91.8494 138.865 92.2654 138.604L98.6382 134.762L98.0602 134.424L91.9488 138.107C91.2898 138.486 90.4762 138.486 89.8172 138.107Z" fill="#0078D4"/>
<path d="M108.89 127.3C108.89 127.679 108.71 128.018 108.393 128.195L102.142 131.955V134.542L100.15 135.635L100.669 135.955L102.742 134.88L102.761 132.294L108.714 128.713C109.211 128.415 109.509 127.878 109.509 127.282C109.49 126.686 109.189 126.167 108.673 125.887L102.462 122.443L101.866 122.8L108.375 126.403C108.673 126.605 108.872 126.925 108.89 127.3Z" fill="#0078D4"/>
<path d="M89.6012 116.777L83.3278 120.221L83.3094 122.789L81.498 124.022L82.0356 124.32L83.9058 123.128V120.581L89.8773 117.299C90.1939 117.119 90.5326 117.042 90.8713 117.042C91.21 117.042 91.5671 117.123 91.8653 117.299L97.6601 120.523L97.6417 123.05L99.5745 124.143L100.071 123.845L98.2381 122.712L98.2565 120.166L92.1635 116.784C91.372 116.339 90.4148 116.339 89.6012 116.777Z" fill="#0078D4"/>
<path d="M109.359 110.992C109.359 110.771 109.057 110.594 108.681 110.591C108.306 110.591 108.004 110.767 108.004 110.988C108.004 111.209 108.306 111.386 108.681 111.389C109.057 111.389 109.359 111.213 109.359 110.992Z" fill="#50E6FF"/>
<path d="M109.042 110.992C109.042 110.871 108.884 110.771 108.685 110.771C108.486 110.771 108.324 110.867 108.324 110.989C108.324 111.11 108.483 111.209 108.681 111.209C108.88 111.209 109.042 111.114 109.042 110.992Z" fill="white"/>
<path d="M107.534 112.115C107.534 111.894 107.233 111.718 106.857 111.714C106.482 111.714 106.18 111.89 106.18 112.111C106.18 112.332 106.482 112.509 106.857 112.512C107.229 112.512 107.534 112.336 107.534 112.115Z" fill="#4ED6F7"/>
<path d="M107.214 112.114C107.214 111.993 107.056 111.894 106.857 111.894C106.658 111.894 106.5 111.989 106.496 112.111C106.496 112.232 106.654 112.331 106.853 112.331C107.056 112.331 107.214 112.236 107.214 112.114Z" fill="white"/>
<path d="M105.763 113.296C105.763 113.075 105.461 112.898 105.09 112.895C104.714 112.895 104.412 113.071 104.412 113.292C104.412 113.513 104.714 113.689 105.09 113.693C105.461 113.693 105.763 113.516 105.763 113.296Z" fill="#43C8F1"/>
<path d="M105.447 113.296C105.447 113.175 105.288 113.075 105.09 113.075C104.891 113.075 104.732 113.171 104.732 113.292C104.732 113.414 104.891 113.513 105.09 113.513C105.285 113.513 105.447 113.417 105.447 113.296Z" fill="white"/>
<path d="M103.892 114.462C103.892 114.241 103.59 114.064 103.215 114.061C102.839 114.061 102.537 114.237 102.537 114.458C102.537 114.679 102.839 114.855 103.215 114.859C103.586 114.859 103.888 114.682 103.892 114.462Z" fill="#37B8EB"/>
<path d="M103.572 114.462C103.572 114.341 103.413 114.241 103.215 114.241C103.016 114.241 102.857 114.337 102.857 114.458C102.857 114.58 103.016 114.679 103.215 114.679C103.41 114.679 103.572 114.583 103.572 114.462Z" fill="white"/>
<path d="M101.783 115.666C101.783 115.445 101.481 115.268 101.105 115.265C100.73 115.265 100.428 115.441 100.428 115.662C100.428 115.883 100.73 116.059 101.105 116.063C101.477 116.063 101.783 115.887 101.783 115.666Z" fill="#2EA8E3"/>
<path d="M101.462 115.666C101.462 115.545 101.304 115.445 101.105 115.445C100.906 115.445 100.748 115.541 100.748 115.662C100.748 115.784 100.906 115.883 101.105 115.883C101.304 115.883 101.462 115.788 101.462 115.666Z" fill="white"/>
<path d="M100.179 116.717C100.179 116.497 99.8771 116.32 99.5016 116.316C99.1298 116.316 98.8242 116.493 98.8242 116.714C98.8242 116.935 99.1261 117.111 99.5016 117.115C99.8735 117.115 100.179 116.938 100.179 116.717Z" fill="#2398DD"/>
<path d="M99.8585 116.718C99.8585 116.596 99.7002 116.497 99.5014 116.497C99.3026 116.497 99.1443 116.593 99.1406 116.714C99.1406 116.836 99.2989 116.935 99.4977 116.935C99.6965 116.935 99.8585 116.839 99.8585 116.718Z" fill="white"/>
<path d="M98.2493 117.877C98.2493 117.656 97.9475 117.479 97.5719 117.476C97.1964 117.476 96.8945 117.652 96.8945 117.873C96.8945 118.094 97.1964 118.27 97.5683 118.274C97.9438 118.274 98.2493 118.097 98.2493 117.877Z" fill="#1B8AD7"/>
<path d="M97.9288 117.877C97.9288 117.756 97.7705 117.656 97.5717 117.656C97.3729 117.656 97.2146 117.752 97.2109 117.873C97.2109 117.995 97.3692 118.094 97.568 118.094C97.7705 118.098 97.9288 117.998 97.9288 117.877Z" fill="white"/>
<path d="M96.2786 118.984C96.2786 118.763 95.9768 118.587 95.6012 118.583C95.2257 118.583 94.9238 118.76 94.9238 118.98C94.9238 119.201 95.2257 119.378 95.6012 119.381C95.9731 119.381 96.2786 119.205 96.2786 118.984Z" fill="#137AD1"/>
<path d="M95.962 118.984C95.962 118.863 95.8037 118.764 95.6049 118.764C95.4061 118.764 95.2478 118.859 95.2441 118.981C95.2441 119.102 95.4024 119.202 95.6013 119.202C95.8001 119.202 95.9584 119.102 95.962 118.984Z" fill="white"/>
<path d="M118.777 116.283C118.777 116.062 118.475 115.886 118.099 115.882C117.724 115.882 117.422 116.058 117.422 116.279C117.422 116.5 117.724 116.677 118.096 116.68C118.471 116.68 118.777 116.504 118.777 116.283Z" fill="#50E6FF"/>
<path d="M118.456 116.283C118.456 116.162 118.298 116.062 118.099 116.062C117.9 116.062 117.742 116.158 117.738 116.28C117.738 116.401 117.897 116.5 118.095 116.5C118.298 116.5 118.456 116.405 118.456 116.283Z" fill="white"/>
<path d="M116.947 117.406C116.947 117.185 116.645 117.009 116.269 117.005C115.897 117.005 115.592 117.182 115.592 117.402C115.592 117.623 115.894 117.8 116.269 117.803C116.645 117.803 116.947 117.627 116.947 117.406Z" fill="#4ED6F7"/>
<path d="M116.632 117.406C116.632 117.285 116.474 117.186 116.275 117.186C116.076 117.186 115.918 117.281 115.914 117.403C115.914 117.524 116.072 117.623 116.271 117.623C116.47 117.623 116.632 117.528 116.632 117.406Z" fill="white"/>
<path d="M115.179 118.587C115.179 118.366 114.877 118.189 114.502 118.186C114.13 118.186 113.824 118.362 113.824 118.583C113.824 118.804 114.126 118.98 114.502 118.984C114.873 118.984 115.179 118.807 115.179 118.587Z" fill="#43C8F1"/>
<path d="M114.865 118.587C114.865 118.466 114.706 118.366 114.508 118.366C114.309 118.366 114.15 118.462 114.15 118.583C114.15 118.705 114.309 118.804 114.508 118.804C114.703 118.804 114.861 118.708 114.865 118.587Z" fill="white"/>
<path d="M113.306 119.753C113.306 119.532 113.004 119.355 112.629 119.352C112.257 119.352 111.951 119.528 111.951 119.749C111.951 119.97 112.253 120.146 112.629 120.15C113.004 120.15 113.306 119.973 113.306 119.753Z" fill="#37B8EB"/>
<path d="M112.989 119.753C112.989 119.632 112.831 119.532 112.632 119.532C112.433 119.532 112.275 119.628 112.271 119.749C112.271 119.871 112.43 119.97 112.629 119.97C112.827 119.97 112.989 119.874 112.989 119.753Z" fill="white"/>
<path d="M111.197 120.957C111.197 120.736 110.895 120.559 110.519 120.556C110.147 120.556 109.842 120.732 109.842 120.953C109.842 121.174 110.144 121.35 110.516 121.354C110.895 121.354 111.197 121.178 111.197 120.957Z" fill="#2EA8E3"/>
<path d="M110.88 120.957C110.88 120.836 110.722 120.736 110.523 120.736C110.324 120.736 110.166 120.832 110.162 120.953C110.162 121.075 110.32 121.174 110.519 121.174C110.718 121.174 110.88 121.079 110.88 120.957Z" fill="white"/>
<path d="M109.591 122.009C109.591 121.788 109.289 121.611 108.914 121.607C108.538 121.607 108.236 121.784 108.236 122.005C108.236 122.226 108.538 122.402 108.914 122.406C109.289 122.406 109.591 122.229 109.591 122.009Z" fill="#2398DD"/>
<path d="M109.275 122.009C109.275 121.887 109.116 121.788 108.917 121.788C108.719 121.788 108.56 121.884 108.557 122.005C108.557 122.127 108.715 122.226 108.914 122.226C109.113 122.226 109.275 122.13 109.275 122.009Z" fill="white"/>
<path d="M107.667 123.172C107.667 122.951 107.365 122.774 106.99 122.771C106.618 122.771 106.312 122.947 106.312 123.168C106.312 123.389 106.614 123.565 106.986 123.569C107.362 123.565 107.664 123.389 107.667 123.172Z" fill="#1B8AD7"/>
<path d="M107.347 123.169C107.347 123.048 107.189 122.948 106.99 122.948C106.791 122.948 106.633 123.044 106.629 123.165C106.629 123.287 106.787 123.386 106.986 123.386C107.185 123.39 107.347 123.29 107.347 123.169Z" fill="white"/>
<path d="M105.697 124.275C105.697 124.054 105.395 123.878 105.019 123.874C104.644 123.874 104.342 124.051 104.342 124.271C104.342 124.492 104.644 124.669 105.019 124.673C105.391 124.673 105.693 124.496 105.697 124.275Z" fill="#137AD1"/>
<path d="M105.376 124.275C105.376 124.154 105.218 124.055 105.019 124.055C104.82 124.055 104.658 124.15 104.658 124.272C104.658 124.393 104.817 124.493 105.015 124.493C105.214 124.493 105.376 124.397 105.376 124.275Z" fill="white"/>
<path d="M73.8724 110.701C73.8724 110.48 73.5705 110.303 73.195 110.3C72.8195 110.3 72.5176 110.476 72.5176 110.697C72.5176 110.918 72.8195 111.095 73.195 111.098C73.5668 111.098 73.8724 110.922 73.8724 110.701Z" fill="#50E6FF"/>
<path d="M73.5558 110.701C73.5558 110.58 73.3975 110.48 73.1987 110.48C72.9999 110.48 72.8379 110.576 72.8379 110.698C72.8379 110.819 72.9962 110.918 73.195 110.918C73.3938 110.918 73.5521 110.823 73.5558 110.701Z" fill="white"/>
<path d="M75.765 111.88C75.765 111.659 75.4631 111.482 75.0876 111.479C74.7157 111.479 74.4102 111.655 74.4102 111.876C74.4102 112.097 74.712 112.273 75.0876 112.277C75.4594 112.277 75.765 112.1 75.765 111.88Z" fill="#4ED6F7"/>
<path d="M75.4445 111.879C75.4445 111.758 75.2862 111.658 75.0874 111.658C74.8885 111.658 74.7302 111.754 74.7266 111.875C74.7266 111.997 74.8849 112.096 75.0837 112.096C75.2825 112.096 75.4445 111.997 75.4445 111.879Z" fill="white"/>
<path d="M77.6754 113.035C77.6754 112.814 77.3735 112.637 77.0016 112.634C76.6261 112.634 76.3242 112.81 76.3242 113.031C76.3242 113.252 76.6261 113.429 77.0016 113.432C77.3698 113.432 77.6754 113.256 77.6754 113.035Z" fill="#43C8F1"/>
<path d="M77.3566 113.034C77.3566 112.913 77.1983 112.813 76.9995 112.813C76.8007 112.813 76.6424 112.909 76.6387 113.031C76.6387 113.152 76.797 113.251 76.9958 113.251C77.1983 113.251 77.3566 113.156 77.3566 113.034Z" fill="white"/>
<path d="M79.5638 114.189C79.5638 113.968 79.2619 113.792 78.8864 113.788C78.5109 113.788 78.209 113.965 78.209 114.185C78.209 114.406 78.5109 114.583 78.8864 114.587C79.2619 114.587 79.5638 114.41 79.5638 114.189Z" fill="#37B8EB"/>
<path d="M79.2472 114.19C79.2472 114.068 79.0889 113.969 78.8901 113.969C78.6913 113.969 78.533 114.064 78.5293 114.186C78.5293 114.307 78.6876 114.407 78.8864 114.407C79.0852 114.407 79.2472 114.311 79.2472 114.19Z" fill="white"/>
<path d="M81.4759 115.368C81.4759 115.147 81.174 114.97 80.7985 114.967C80.4267 114.967 80.1211 115.143 80.1211 115.364C80.1211 115.585 80.423 115.762 80.7985 115.765C81.174 115.765 81.4759 115.589 81.4759 115.368Z" fill="#2EA8E3"/>
<path d="M81.1593 115.367C81.1593 115.246 81.001 115.146 80.8022 115.146C80.6034 115.146 80.4451 115.242 80.4414 115.364C80.4414 115.485 80.5997 115.584 80.7985 115.584C80.9973 115.584 81.1593 115.485 81.1593 115.367Z" fill="white"/>
<path d="M83.3861 116.523C83.3861 116.302 83.0842 116.126 82.7087 116.122C82.3331 116.122 82.0312 116.299 82.0312 116.519C82.0312 116.74 82.3331 116.917 82.7087 116.921C83.0842 116.921 83.3861 116.744 83.3861 116.523Z" fill="#2398DD"/>
<path d="M83.0697 116.523C83.0697 116.401 82.9114 116.302 82.7126 116.302C82.5138 116.302 82.3555 116.397 82.3555 116.519C82.3555 116.64 82.5138 116.74 82.7126 116.74C82.9077 116.74 83.0697 116.644 83.0697 116.523Z" fill="white"/>
<path d="M85.2786 117.701C85.2786 117.48 84.9768 117.303 84.6012 117.3C84.2257 117.3 83.9238 117.476 83.9238 117.697C83.9238 117.918 84.2257 118.095 84.6012 118.098C84.9731 118.098 85.2786 117.918 85.2786 117.701Z" fill="#1B8AD7"/>
<path d="M84.9623 117.696C84.9623 117.575 84.804 117.476 84.6052 117.476C84.4064 117.476 84.248 117.571 84.248 117.693C84.248 117.814 84.4064 117.913 84.6052 117.913C84.8003 117.917 84.9586 117.818 84.9623 117.696Z" fill="white"/>
<path d="M87.189 118.856C87.189 118.635 86.8871 118.459 86.5153 118.455C86.1398 118.455 85.8379 118.632 85.8379 118.852C85.8379 119.073 86.1398 119.25 86.5153 119.254C86.8871 119.254 87.189 119.077 87.189 118.856Z" fill="#137AD1"/>
<path d="M86.8722 118.856C86.8722 118.734 86.7139 118.635 86.5151 118.635C86.3163 118.635 86.158 118.73 86.1543 118.852C86.1543 118.973 86.3126 119.073 86.5114 119.073C86.7102 119.073 86.8722 118.973 86.8722 118.856Z" fill="white"/>
<path d="M63.4017 116.592C63.4017 116.372 63.0998 116.195 62.7243 116.191C62.3488 116.191 62.0469 116.368 62.0469 116.589C62.0469 116.81 62.3488 116.986 62.7243 116.99C63.0998 116.99 63.4017 116.813 63.4017 116.592Z" fill="#50E6FF"/>
<path d="M63.0851 116.593C63.0851 116.471 62.9268 116.372 62.728 116.372C62.5292 116.372 62.3709 116.468 62.3672 116.589C62.3672 116.711 62.5255 116.81 62.7243 116.81C62.9231 116.81 63.0851 116.714 63.0851 116.593Z" fill="white"/>
<path d="M65.2943 117.748C65.2943 117.527 64.9924 117.35 64.6169 117.347C64.2413 117.347 63.9395 117.523 63.9395 117.744C63.9395 117.965 64.2413 118.141 64.6169 118.145C64.9887 118.145 65.2943 117.969 65.2943 117.748Z" fill="#4ED6F7"/>
<path d="M64.9738 117.747C64.9738 117.626 64.8155 117.526 64.6167 117.526C64.4178 117.526 64.2595 117.622 64.2559 117.743C64.2559 117.865 64.4142 117.964 64.613 117.964C64.8155 117.964 64.9738 117.869 64.9738 117.747Z" fill="white"/>
<path d="M67.2064 118.925C67.2064 118.705 66.9045 118.528 66.529 118.524C66.1535 118.524 65.8516 118.701 65.8516 118.922C65.8516 119.143 66.1535 119.319 66.529 119.323C66.9008 119.323 67.2064 119.143 67.2064 118.925Z" fill="#43C8F1"/>
<path d="M66.8859 118.922C66.8859 118.801 66.7276 118.701 66.5288 118.701C66.33 118.701 66.1717 118.797 66.168 118.918C66.168 119.04 66.3263 119.139 66.5251 119.139C66.7276 119.143 66.8859 119.043 66.8859 118.922Z" fill="white"/>
<path d="M69.099 120.081C69.099 119.86 68.7971 119.683 68.4215 119.68C68.046 119.68 67.7441 119.856 67.7441 120.077C67.7441 120.298 68.046 120.474 68.4215 120.478C68.7934 120.478 69.0953 120.302 69.099 120.081Z" fill="#37B8EB"/>
<path d="M68.7785 120.08C68.7785 119.959 68.6201 119.859 68.4213 119.859C68.2225 119.859 68.0642 119.955 68.0605 120.076C68.0605 120.198 68.2189 120.297 68.4177 120.297C68.6165 120.297 68.7785 120.198 68.7785 120.08Z" fill="white"/>
<path d="M71.0072 121.259C71.0072 121.038 70.7053 120.861 70.3297 120.857C69.9542 120.857 69.6523 121.034 69.6523 121.255C69.6523 121.476 69.9542 121.652 70.3297 121.656C70.7016 121.652 71.0035 121.476 71.0072 121.259Z" fill="#2EA8E3"/>
<path d="M70.6886 121.255C70.6886 121.134 70.5303 121.034 70.3315 121.034C70.1327 121.034 69.9744 121.13 69.9707 121.251C69.9707 121.373 70.129 121.472 70.3278 121.472C70.5266 121.476 70.6886 121.376 70.6886 121.255Z" fill="white"/>
<path d="M72.9193 122.414C72.9193 122.193 72.6174 122.016 72.2419 122.013C71.8663 122.013 71.5645 122.189 71.5645 122.41C71.5645 122.631 71.8663 122.807 72.2419 122.811C72.6137 122.811 72.9193 122.631 72.9193 122.414Z" fill="#2398DD"/>
<path d="M72.5988 122.41C72.5988 122.289 72.4405 122.189 72.2417 122.189C72.0428 122.189 71.8845 122.285 71.8809 122.407C71.8809 122.528 72.0392 122.627 72.238 122.627C72.4368 122.631 72.5988 122.532 72.5988 122.41Z" fill="white"/>
<path d="M74.8079 123.588C74.8079 123.367 74.506 123.19 74.1305 123.187C73.7587 123.187 73.4531 123.363 73.4531 123.584C73.4531 123.805 73.755 123.981 74.1305 123.985C74.506 123.985 74.8079 123.808 74.8079 123.588Z" fill="#1B8AD7"/>
<path d="M74.4916 123.587C74.4916 123.466 74.3333 123.366 74.1345 123.366C73.9357 123.366 73.7773 123.462 73.7773 123.583C73.7773 123.705 73.9357 123.804 74.1345 123.804C74.3296 123.804 74.4916 123.708 74.4916 123.587Z" fill="white"/>
<path d="M76.72 124.744C76.72 124.523 76.4182 124.346 76.0426 124.343C75.6671 124.343 75.3652 124.519 75.3652 124.74C75.3652 124.961 75.6671 125.138 76.0426 125.141C76.4182 125.141 76.72 124.965 76.72 124.744Z" fill="#137AD1"/>
<path d="M76.4017 124.743C76.4017 124.622 76.2434 124.522 76.0446 124.522C75.8458 124.522 75.6875 124.618 75.6875 124.74C75.6875 124.861 75.8458 124.96 76.0446 124.96C76.2397 124.964 76.4017 124.865 76.4017 124.743Z" fill="white"/>
<path d="M63.0192 138.247C63.3947 138.247 63.6966 138.067 63.6966 137.85C63.6966 137.629 63.3947 137.452 63.0192 137.452C62.6437 137.452 62.3418 137.632 62.3418 137.85C62.3418 138.07 62.6474 138.247 63.0192 138.247Z" fill="#50E6FF"/>
<path d="M63.0192 138.068C63.218 138.068 63.3763 137.968 63.3763 137.847C63.3763 137.726 63.2143 137.63 63.0192 137.63C62.8204 137.63 62.6621 137.729 62.6621 137.851C62.6621 137.972 62.8204 138.068 63.0192 138.068Z" fill="#4047B4"/>
<path d="M65.638 136.783C65.638 136.562 65.3361 136.386 64.9606 136.382C64.5851 136.382 64.2832 136.558 64.2832 136.779C64.2832 137 64.5851 137.177 64.9606 137.18C65.3324 137.18 65.638 137.004 65.638 136.783Z" fill="#4ED6F7"/>
<path d="M65.3175 136.782C65.3175 136.661 65.1592 136.562 64.9604 136.562C64.7616 136.562 64.6033 136.657 64.5996 136.779C64.5996 136.9 64.7579 136.999 64.9567 136.999C65.1555 137.003 65.3175 136.904 65.3175 136.782Z" fill="#4046B3"/>
<path d="M67.5775 135.693C67.5775 135.472 67.2756 135.296 66.9001 135.292C66.5245 135.288 66.2227 135.469 66.2227 135.689C66.2227 135.91 66.5245 136.087 66.9001 136.091C67.2756 136.091 67.5775 135.914 67.5775 135.693Z" fill="#43C8F1"/>
<path d="M67.2609 135.693C67.2609 135.572 67.1026 135.473 66.9038 135.473C66.705 135.473 66.5467 135.568 66.543 135.69C66.543 135.811 66.7013 135.911 66.9001 135.911C67.0989 135.911 67.2609 135.815 67.2609 135.693Z" fill="#3F46B2"/>
<path d="M69.429 134.67C69.429 134.449 69.1271 134.272 68.7516 134.269C68.3761 134.269 68.0742 134.445 68.0742 134.666C68.0742 134.887 68.3761 135.063 68.7516 135.067C69.1235 135.067 69.4253 134.89 69.429 134.67Z" fill="#37B8EB"/>
<path d="M69.1085 134.67C69.1085 134.549 68.9502 134.449 68.7514 134.449C68.5526 134.449 68.3943 134.545 68.3906 134.666C68.3906 134.788 68.5489 134.887 68.7477 134.887C68.9465 134.887 69.1085 134.791 69.1085 134.67Z" fill="white"/>
<path d="M71.3704 133.599C71.3704 133.379 71.0685 133.202 70.693 133.198C70.3175 133.198 70.0156 133.375 70.0156 133.596C70.0156 133.816 70.3175 133.993 70.693 133.997C71.0649 133.997 71.3704 133.82 71.3704 133.599Z" fill="#2EA8E3"/>
<path d="M71.048 133.6C71.048 133.478 70.8897 133.379 70.6909 133.379C70.4921 133.379 70.3338 133.475 70.3301 133.596C70.3301 133.717 70.4884 133.817 70.6872 133.817C70.8897 133.817 71.048 133.721 71.048 133.6Z" fill="white"/>
<path d="M73.2923 132.551C73.2923 132.331 72.9904 132.154 72.6149 132.15C72.2431 132.15 71.9375 132.327 71.9375 132.548C71.9375 132.769 72.2394 132.945 72.6149 132.949C72.9867 132.949 73.2923 132.772 73.2923 132.551Z" fill="#2398DD"/>
<path d="M72.972 132.55C72.972 132.428 72.8137 132.329 72.6149 132.329C72.4161 132.329 72.2578 132.425 72.2578 132.546C72.2578 132.668 72.4161 132.767 72.6149 132.767C72.8137 132.767 72.972 132.668 72.972 132.55Z" fill="white"/>
<path d="M75.2122 131.499C75.2122 131.278 74.9103 131.101 74.5348 131.098C74.163 131.098 73.8574 131.274 73.8574 131.495C73.8574 131.716 74.1593 131.892 74.5311 131.896C74.9067 131.896 75.2086 131.72 75.2122 131.499Z" fill="#1B8AD7"/>
<path d="M74.8939 131.498C74.8939 131.377 74.7356 131.277 74.5368 131.277C74.338 131.277 74.1797 131.373 74.1797 131.494C74.1797 131.616 74.338 131.715 74.5368 131.715C74.7319 131.715 74.8939 131.62 74.8939 131.498Z" fill="white"/>
<path d="M77.1556 130.369C77.1556 130.148 76.8537 129.971 76.4782 129.968C76.1027 129.968 75.8008 130.144 75.8008 130.365C75.8008 130.586 76.1027 130.763 76.4782 130.766C76.85 130.766 77.1519 130.586 77.1556 130.369Z" fill="#137AD1"/>
<path d="M76.837 130.366C76.837 130.245 76.6787 130.146 76.4799 130.146C76.2811 130.146 76.1228 130.241 76.1191 130.363C76.1191 130.484 76.2774 130.583 76.4763 130.583C76.6751 130.587 76.837 130.488 76.837 130.366Z" fill="white"/>
<path d="M73.693 144.274C74.0649 144.274 74.3704 144.094 74.3704 143.877C74.3704 143.656 74.0685 143.479 73.693 143.479C73.3212 143.479 73.0156 143.66 73.0156 143.877C73.0156 144.098 73.3175 144.278 73.693 144.274Z" fill="#50E6FF"/>
<path d="M73.6931 144.097C73.8919 144.097 74.0502 143.998 74.0502 143.876C74.0502 143.755 73.8882 143.659 73.6931 143.659C73.4943 143.659 73.336 143.759 73.336 143.88C73.3323 143.998 73.4943 144.097 73.6931 144.097Z" fill="#454CBA"/>
<path d="M71.6579 145.544C72.0297 145.544 72.3353 145.364 72.3353 145.146C72.3353 144.926 72.0334 144.749 71.6579 144.749C71.286 144.749 70.9805 144.929 70.9805 145.146C70.9805 145.367 71.2824 145.547 71.6579 145.544Z" fill="#50E6FF"/>
<path d="M71.658 145.367C71.8568 145.367 72.0151 145.267 72.0151 145.146C72.0151 145.024 71.8531 144.929 71.658 144.929C71.4591 144.929 71.3008 145.028 71.3008 145.149C71.2972 145.267 71.4591 145.367 71.658 145.367Z" fill="#454CBA"/>
<path d="M76.1771 142.788C76.1771 142.567 75.8752 142.39 75.4997 142.387C75.1242 142.387 74.8223 142.563 74.8223 142.784C74.8223 143.005 75.1242 143.182 75.4997 143.185C75.8752 143.185 76.1771 143.009 76.1771 142.788Z" fill="#4ED6F7"/>
<path d="M75.8605 142.788C75.8605 142.667 75.7022 142.567 75.5034 142.567C75.3046 142.567 75.1463 142.663 75.1426 142.784C75.1426 142.906 75.3009 143.005 75.4997 143.005C75.6985 143.005 75.8605 142.91 75.8605 142.788Z" fill="#444BB8"/>
<path d="M77.9993 141.703C77.9993 141.482 77.6975 141.305 77.3219 141.302C76.9501 141.302 76.6445 141.478 76.6445 141.699C76.6445 141.92 76.9464 142.097 77.3219 142.1C77.6938 142.1 77.9957 141.924 77.9993 141.703Z" fill="#43C8F1"/>
<path d="M77.6788 141.703C77.6788 141.582 77.5205 141.482 77.3217 141.482C77.1229 141.482 76.9646 141.578 76.9609 141.7C76.9609 141.821 77.1192 141.92 77.318 141.92C77.5169 141.92 77.6788 141.821 77.6788 141.703Z" fill="#434AB8"/>
<path d="M79.8021 140.617C79.8021 140.396 79.5002 140.219 79.1247 140.216C78.7528 140.216 78.4473 140.392 78.4473 140.613C78.4473 140.834 78.7492 141.011 79.1247 141.014C79.4965 141.014 79.7984 140.834 79.8021 140.617Z" fill="#37B8EB"/>
<path d="M79.4798 140.617C79.4798 140.496 79.3215 140.396 79.1227 140.396C78.9239 140.396 78.7656 140.492 78.7656 140.614C78.7656 140.735 78.9239 140.834 79.1227 140.834C79.3179 140.834 79.4798 140.735 79.4798 140.617Z" fill="white"/>
<path d="M81.6204 139.532C81.6204 139.311 81.3185 139.135 80.943 139.131C80.5675 139.131 80.2656 139.307 80.2656 139.528C80.2656 139.749 80.5675 139.926 80.943 139.929C81.3149 139.929 81.6204 139.749 81.6204 139.532Z" fill="#2EA8E3"/>
<path d="M81.2999 139.527C81.2999 139.406 81.1416 139.307 80.9428 139.307C80.744 139.307 80.5857 139.402 80.582 139.524C80.582 139.645 80.7403 139.745 80.9391 139.745C81.1416 139.748 81.2999 139.649 81.2999 139.527Z" fill="white"/>
<path d="M83.4193 138.442C83.4193 138.221 83.1174 138.045 82.7419 138.041C82.37 138.041 82.0645 138.218 82.0645 138.438C82.0645 138.659 82.3663 138.836 82.7419 138.839C83.1137 138.839 83.4193 138.663 83.4193 138.442Z" fill="#2398DD"/>
<path d="M83.099 138.442C83.099 138.321 82.9407 138.222 82.7419 138.222C82.5431 138.222 82.3848 138.317 82.3848 138.439C82.3848 138.56 82.5431 138.66 82.7419 138.66C82.9407 138.663 83.099 138.564 83.099 138.442Z" fill="white"/>
<path d="M85.2376 137.356C85.2376 137.135 84.9357 136.959 84.5602 136.955C84.1847 136.955 83.8828 137.132 83.8828 137.352C83.8828 137.573 84.1847 137.75 84.5602 137.754C84.9357 137.754 85.2376 137.577 85.2376 137.356Z" fill="#1B8AD7"/>
<path d="M84.921 137.357C84.921 137.236 84.7627 137.137 84.5639 137.137C84.3651 137.137 84.2068 137.232 84.2031 137.354C84.2031 137.475 84.3614 137.575 84.5602 137.575C84.759 137.575 84.921 137.479 84.921 137.357Z" fill="white"/>
<path d="M87.0384 136.272C87.0384 136.051 86.7365 135.875 86.361 135.871C85.9855 135.871 85.6836 136.048 85.6836 136.268C85.6836 136.489 85.9855 136.666 86.361 136.67C86.7328 136.67 87.0384 136.493 87.0384 136.272Z" fill="#137AD1"/>
<path d="M86.7218 136.271C86.7218 136.149 86.5635 136.05 86.3647 136.05C86.1659 136.05 86.0076 136.145 86.0039 136.267C86.0039 136.388 86.1622 136.488 86.361 136.488C86.5598 136.488 86.7218 136.392 86.7218 136.271Z" fill="white"/>
<path d="M108.839 143.549C108.839 143.328 108.538 143.151 108.166 143.147C107.79 143.147 107.488 143.324 107.488 143.545C107.488 143.766 107.79 143.942 108.166 143.946C108.538 143.946 108.839 143.769 108.839 143.549Z" fill="#50E6FF"/>
<path d="M108.525 143.548C108.525 143.426 108.366 143.327 108.167 143.327C107.969 143.327 107.81 143.423 107.807 143.544C107.807 143.666 107.965 143.765 108.164 143.765C108.363 143.765 108.525 143.669 108.525 143.548Z" fill="#434BB8"/>
<path d="M107.074 142.453C107.074 142.232 106.772 142.055 106.396 142.052C106.024 142.052 105.719 142.228 105.719 142.449C105.719 142.67 106.021 142.847 106.396 142.85C106.768 142.85 107.07 142.674 107.074 142.453Z" fill="#4ED6F7"/>
<path d="M106.753 142.454C106.753 142.333 106.595 142.233 106.396 142.233C106.197 142.233 106.039 142.329 106.035 142.45C106.035 142.572 106.193 142.671 106.392 142.671C106.591 142.671 106.753 142.576 106.753 142.454Z" fill="#424AB7"/>
<path d="M105.281 141.349C105.281 141.129 104.979 140.952 104.603 140.948C104.231 140.948 103.926 141.125 103.926 141.346C103.926 141.566 104.228 141.743 104.603 141.747C104.979 141.747 105.281 141.57 105.281 141.349Z" fill="#43C8F1"/>
<path d="M104.964 141.351C104.964 141.229 104.806 141.13 104.607 141.13C104.408 141.13 104.25 141.226 104.246 141.347C104.246 141.468 104.404 141.568 104.603 141.568C104.802 141.568 104.964 141.472 104.964 141.351Z" fill="#4149B6"/>
<path d="M103.495 140.3C103.495 140.079 103.194 139.902 102.818 139.898C102.446 139.898 102.141 140.075 102.141 140.296C102.141 140.517 102.443 140.693 102.818 140.697C103.19 140.697 103.495 140.517 103.495 140.3Z" fill="#37B8EB"/>
<path d="M103.179 140.296C103.179 140.175 103.021 140.075 102.822 140.075C102.623 140.075 102.465 140.171 102.461 140.292C102.461 140.414 102.619 140.513 102.818 140.513C103.017 140.517 103.175 140.417 103.179 140.296Z" fill="#4149B5"/>
<path d="M101.753 139.248C101.753 139.027 101.452 138.85 101.08 138.847C100.704 138.847 100.402 139.023 100.402 139.244C100.402 139.465 100.704 139.641 101.08 139.645C101.448 139.645 101.75 139.465 101.753 139.248Z" fill="#2EA8E3"/>
<path d="M101.433 139.244C101.433 139.123 101.274 139.023 101.076 139.023C100.877 139.023 100.719 139.119 100.715 139.241C100.715 139.362 100.873 139.461 101.072 139.461C101.271 139.465 101.433 139.366 101.433 139.244Z" fill="white"/>
<path d="M100.007 138.196C100.007 137.975 99.7053 137.799 99.3297 137.795C98.9579 137.795 98.6523 137.972 98.6523 138.192C98.6523 138.413 98.9542 138.59 99.3297 138.593C99.7016 138.593 100.007 138.413 100.007 138.196Z" fill="#2398DD"/>
<path d="M99.6925 138.191C99.6925 138.07 99.5342 137.971 99.3354 137.971C99.1366 137.971 98.9783 138.066 98.9746 138.188C98.9746 138.309 99.1329 138.409 99.3317 138.409C99.5305 138.412 99.6888 138.313 99.6925 138.191Z" fill="white"/>
<path d="M98.2847 137.143C98.2847 136.922 97.9828 136.746 97.611 136.742C97.2355 136.742 96.9336 136.919 96.9336 137.14C96.9336 137.36 97.2355 137.537 97.611 137.541C97.9792 137.541 98.2847 137.36 98.2847 137.143Z" fill="#1B8AD7"/>
<path d="M97.9659 137.144C97.9659 137.022 97.8076 136.923 97.6088 136.923C97.41 136.923 97.2517 137.019 97.248 137.14C97.248 137.261 97.4063 137.361 97.6052 137.361C97.8076 137.361 97.9659 137.261 97.9659 137.144Z" fill="white"/>
<path d="M96.5406 136.091C96.5406 135.87 96.2387 135.693 95.8669 135.689C95.4913 135.689 95.1895 135.866 95.1895 136.087C95.1895 136.308 95.4913 136.484 95.8669 136.488C96.2387 136.488 96.5406 136.311 96.5406 136.091Z" fill="#137AD1"/>
<path d="M96.2238 136.092C96.2238 135.97 96.0655 135.871 95.8667 135.871C95.6679 135.871 95.5095 135.967 95.5059 136.088C95.5059 136.21 95.6642 136.309 95.863 136.309C96.0618 136.309 96.2238 136.21 96.2238 136.092Z" fill="white"/>
<path d="M118.747 137.82C118.747 137.599 118.446 137.423 118.07 137.419C117.698 137.419 117.393 137.596 117.393 137.816C117.393 138.037 117.694 138.214 118.07 138.217C118.446 138.217 118.747 138.041 118.747 137.82Z" fill="#50E6FF"/>
<path d="M118.431 137.82C118.431 137.699 118.273 137.6 118.074 137.6C117.875 137.6 117.717 137.695 117.717 137.817C117.717 137.938 117.875 138.037 118.074 138.037C118.269 138.037 118.431 137.942 118.431 137.82Z" fill="#6F3390"/>
<path d="M116.945 136.757C116.945 136.536 116.643 136.359 116.267 136.355C115.895 136.355 115.59 136.532 115.59 136.753C115.59 136.974 115.892 137.15 116.267 137.154C116.643 137.154 116.945 136.974 116.945 136.757Z" fill="#4ED6F7"/>
<path d="M116.628 136.753C116.628 136.632 116.47 136.532 116.271 136.532C116.072 136.532 115.914 136.628 115.91 136.749C115.91 136.871 116.068 136.97 116.267 136.97C116.466 136.974 116.628 136.874 116.628 136.753Z" fill="#753290"/>
<path d="M115.12 135.69C115.12 135.469 114.819 135.293 114.443 135.289C114.068 135.289 113.766 135.466 113.766 135.686C113.766 135.907 114.068 136.084 114.443 136.088C114.819 136.088 115.12 135.911 115.12 135.69Z" fill="#43C8F1"/>
<path d="M114.804 135.691C114.804 135.569 114.646 135.47 114.447 135.47C114.248 135.47 114.09 135.565 114.086 135.687C114.086 135.808 114.244 135.908 114.443 135.908C114.642 135.908 114.804 135.808 114.804 135.691Z" fill="white"/>
<path d="M113.318 134.623C113.318 134.402 113.016 134.225 112.64 134.222C112.268 134.222 111.963 134.398 111.963 134.619C111.963 134.84 112.265 135.016 112.64 135.02C113.016 135.02 113.318 134.844 113.318 134.623Z" fill="#37B8EB"/>
<path d="M113.001 134.622C113.001 134.501 112.843 134.401 112.644 134.401C112.445 134.401 112.287 134.497 112.283 134.618C112.283 134.74 112.442 134.839 112.64 134.839C112.839 134.839 113.001 134.744 113.001 134.622Z" fill="white"/>
<path d="M111.495 133.555C111.495 133.335 111.194 133.158 110.818 133.154C110.446 133.154 110.141 133.331 110.141 133.552C110.141 133.772 110.443 133.949 110.818 133.953C111.19 133.953 111.495 133.776 111.495 133.555Z" fill="#2EA8E3"/>
<path d="M111.179 133.556C111.179 133.434 111.021 133.335 110.822 133.335C110.623 133.335 110.465 133.431 110.465 133.552C110.465 133.673 110.623 133.773 110.822 133.773C111.017 133.777 111.179 133.677 111.179 133.556Z" fill="white"/>
<path d="M109.691 132.493C109.691 132.272 109.389 132.095 109.017 132.092C108.642 132.092 108.34 132.268 108.34 132.489C108.34 132.71 108.642 132.887 109.017 132.89C109.389 132.89 109.691 132.71 109.691 132.493Z" fill="#2398DD"/>
<path d="M109.374 132.489C109.374 132.368 109.216 132.269 109.017 132.269C108.818 132.269 108.66 132.364 108.656 132.486C108.656 132.607 108.815 132.706 109.013 132.706C109.212 132.71 109.374 132.611 109.374 132.489Z" fill="white"/>
<path d="M107.868 131.425C107.868 131.204 107.567 131.027 107.191 131.023C106.816 131.023 106.514 131.2 106.514 131.421C106.514 131.642 106.816 131.818 107.191 131.822C107.563 131.822 107.868 131.645 107.868 131.425Z" fill="#1B8AD7"/>
<path d="M107.552 131.425C107.552 131.303 107.394 131.204 107.195 131.204C106.996 131.204 106.838 131.3 106.838 131.421C106.838 131.543 106.996 131.642 107.195 131.642C107.39 131.642 107.548 131.546 107.552 131.425Z" fill="white"/>
<path d="M106.064 130.358C106.064 130.137 105.762 129.961 105.386 129.957C105.015 129.957 104.709 130.134 104.709 130.354C104.709 130.575 105.011 130.752 105.386 130.756C105.762 130.756 106.064 130.579 106.064 130.358Z" fill="#137AD1"/>
<path d="M105.747 130.358C105.747 130.237 105.589 130.138 105.39 130.138C105.191 130.138 105.033 130.233 105.029 130.355C105.029 130.476 105.188 130.576 105.386 130.576C105.585 130.576 105.747 130.48 105.747 130.358Z" fill="white"/>
</g>
<path d="M82.8799 37.2676C83.2234 37.3019 83.5449 37.4274 83.8213 37.6289L83.832 37.6367L83.8428 37.6436L132.604 65.79H132.604C133.459 66.3452 134.171 67.1006 134.684 67.9814C135.131 68.7571 135.413 69.614 135.514 70.498L135.545 70.8789V71.9609L135.383 130.037V130.051L135.384 130.063C135.418 130.397 135.367 130.735 135.23 131.037C135.095 131.337 134.879 131.598 134.607 131.792L131.068 133.625C131.003 133.528 130.914 133.407 130.805 133.269C130.547 132.941 130.165 132.488 129.701 131.953C128.773 130.883 127.509 129.474 126.242 128.062C124.974 126.65 123.703 125.236 122.76 124.154C122.288 123.613 121.9 123.157 121.636 122.827C121.503 122.662 121.405 122.532 121.344 122.441C121.338 122.433 121.334 122.425 121.329 122.418C121.348 122.395 121.371 122.37 121.398 122.343C121.466 122.276 121.53 122.224 121.617 122.146C121.715 122.056 121.849 121.925 121.915 121.747H121.962L121.96 121.495L121.663 79.876V79.8496L121.657 79.8242L120.743 75.6611L120.735 75.626L120.718 75.5938L120.507 75.2412C119.994 74.4431 119.31 73.7641 118.504 73.2578L81.0957 41.5869L81.0869 41.5791L81.0771 41.5723L80.9697 41.4834C80.927 41.4438 80.8767 41.3946 80.8193 41.3359C80.7147 41.2289 80.5793 41.0839 80.4541 40.958C80.3252 40.8285 80.186 40.6965 80.0498 40.5938C79.9279 40.5018 79.7728 40.4064 79.6084 40.3857C79.6049 40.3838 79.5941 40.378 79.5762 40.3623C79.5399 40.3306 79.4936 40.2795 79.4385 40.207C79.3278 40.0615 79.2086 39.8689 79.0801 39.666C78.9604 39.4771 78.8292 39.2757 78.7031 39.1279L81.8955 37.4229C82.2003 37.2834 82.5351 37.2331 82.8799 37.2676Z" fill="url(#paint5_linear_384_5499)" stroke="black" stroke-width="0.5"/>
<path d="M78.3916 39.2393C78.8166 38.9989 79.4333 38.997 80.1709 39.3818L80.3203 39.4648L129.094 67.6143C129.948 68.1699 130.663 68.9185 131.174 69.8027C131.686 70.6893 131.98 71.6822 132.036 72.7002V72.7031C132.061 73.0677 132.061 73.4264 132.036 73.791L132.035 73.7988V73.8076L131.88 131.885V131.886C131.88 132.797 131.556 133.375 131.104 133.635C130.652 133.895 129.986 133.885 129.193 133.432H129.192L96.3584 114.492L86.8477 109.001L80.3672 105.259C79.5129 104.704 78.8012 103.949 78.2959 103.063C77.853 102.287 77.573 101.43 77.4766 100.546L77.4473 100.166L77.6162 42.1406V40.9795C77.6162 40.0712 77.9391 39.4951 78.3916 39.2393Z" fill="#282828" stroke="black" stroke-width="0.5"/>
<path d="M86.5407 52.81C86.6935 52.9105 86.8203 53.0457 86.9108 53.2046C87.0014 53.3635 87.0531 53.5415 87.0617 53.7242C87.0617 54.0584 86.8258 54.1961 86.5309 54.029C86.3774 53.9284 86.2495 53.7933 86.1573 53.6346C86.0652 53.4759 86.0113 53.2979 86 53.1147C86 52.81 86.2065 52.6822 86.5407 52.81Z" fill="url(#paint6_linear_384_5499)"/>
<path d="M90.1387 54.9137C90.2938 55.0126 90.423 55.1471 90.5154 55.3062C90.6078 55.4653 90.6606 55.6442 90.6695 55.828C90.6695 56.1524 90.4238 56.29 90.1387 56.1229C89.9847 56.0228 89.8563 55.888 89.7641 55.7291C89.6719 55.5703 89.6184 55.392 89.6079 55.2086C89.5882 54.8842 89.8241 54.7761 90.1387 54.9137Z" fill="url(#paint7_linear_384_5499)"/>
<path d="M93.7072 56.988C93.8617 57.0867 93.9898 57.2216 94.0806 57.3808C94.1713 57.5401 94.222 57.719 94.2282 57.9023C94.2282 58.2365 94.0021 58.384 93.7072 58.207C93.552 58.1082 93.4229 57.9736 93.3305 57.8145C93.2381 57.6554 93.1853 57.4765 93.1764 57.2928C93.1764 56.9487 93.4123 56.8209 93.7072 56.988Z" fill="url(#paint8_linear_384_5499)"/>
<path d="M97.2954 59.0622C97.4485 59.16 97.5758 59.2933 97.6665 59.4507C97.7572 59.6082 97.8086 59.7852 97.8164 59.9667C97.8164 60.3107 97.5805 60.4483 97.2855 60.2812C97.1331 60.178 97.0067 60.0409 96.9163 59.8805C96.8259 59.7202 96.7739 59.541 96.7645 59.3571C96.7645 59.0229 97.0201 58.8853 97.2954 59.0622Z" fill="url(#paint9_linear_384_5499)"/>
<path d="M100.874 61.1267C101.027 61.2273 101.155 61.3623 101.247 61.521C101.339 61.6797 101.393 61.8578 101.405 62.0409C101.405 62.385 101.169 62.5226 100.874 62.3457C100.719 62.2463 100.59 62.1115 100.498 61.9526C100.406 61.7936 100.353 61.615 100.343 61.4315C100.343 61.0874 100.579 60.9596 100.874 61.1267Z" fill="url(#paint10_linear_384_5499)"/>
<path d="M104.452 63.1911C104.605 63.2917 104.733 63.4267 104.826 63.5854C104.918 63.7441 104.972 63.9221 104.983 64.1053C104.983 64.4494 104.747 64.587 104.452 64.41C104.297 64.3106 104.169 64.1759 104.076 64.0169C103.984 63.858 103.931 63.6794 103.921 63.4958C103.901 63.1616 104.157 63.0239 104.452 63.1911Z" fill="url(#paint11_linear_384_5499)"/>
<path d="M108.04 65.2653C108.195 65.3642 108.324 65.4988 108.417 65.6579C108.509 65.8169 108.562 65.9958 108.571 66.1796C108.571 66.5138 108.325 66.6514 108.03 66.4843C107.88 66.3816 107.754 66.2458 107.664 66.0874C107.574 65.929 107.521 65.7521 107.509 65.5701C107.509 65.226 107.745 65.0982 108.04 65.2653Z" fill="url(#paint12_linear_384_5499)"/>
<path d="M111.628 67.3396C111.783 67.4384 111.913 67.573 112.005 67.7321C112.097 67.8911 112.15 68.0701 112.159 68.2538C112.159 68.5881 111.913 68.7257 111.618 68.5586C111.464 68.4571 111.337 68.3203 111.246 68.1596C111.156 67.9989 111.105 67.8189 111.097 67.6345C111.097 67.3003 111.333 67.1725 111.628 67.3396Z" fill="url(#paint13_linear_384_5499)"/>
<path d="M115.216 69.4138C115.37 69.5116 115.497 69.6449 115.588 69.8023C115.678 69.9597 115.73 70.1367 115.737 70.3182C115.737 70.6623 115.502 70.7999 115.216 70.6328C115.062 70.5313 114.933 70.3947 114.841 70.2341C114.749 70.0736 114.695 69.8936 114.686 69.7087C114.715 69.3647 114.922 69.2369 115.216 69.4138Z" fill="url(#paint14_linear_384_5499)"/>
<path d="M118.795 71.4881C118.946 71.5876 119.072 71.7213 119.163 71.8784C119.253 72.0354 119.306 72.2115 119.316 72.3925C119.316 72.7365 119.08 72.8742 118.795 72.7071C118.639 72.6054 118.509 72.4691 118.416 72.3087C118.322 72.1483 118.266 71.9684 118.254 71.783C118.264 71.4881 118.5 71.3013 118.795 71.4881Z" fill="url(#paint15_linear_384_5499)"/>
<path d="M122.373 73.5427C122.528 73.6415 122.657 73.7761 122.75 73.9351C122.842 74.0942 122.895 74.2732 122.904 74.4569C122.916 74.523 122.908 74.5912 122.879 74.6522C122.851 74.7131 122.805 74.7638 122.746 74.7973C122.688 74.8308 122.621 74.8453 122.554 74.8389C122.487 74.8326 122.424 74.8055 122.373 74.7617C122.217 74.6619 122.087 74.5257 121.994 74.3648C121.902 74.2039 121.85 74.023 121.842 73.8376C121.842 73.5033 122.078 73.3756 122.373 73.5427Z" fill="url(#paint16_linear_384_5499)"/>
<path d="M122.353 81.7806C122.506 81.8818 122.634 82.017 122.726 82.1756C122.818 82.3342 122.872 82.5119 122.884 82.6949C122.884 83.0292 122.639 83.1668 122.353 82.9997C122.197 82.8999 122.067 82.7637 121.975 82.6028C121.882 82.4419 121.83 82.261 121.823 82.0756C121.823 81.7512 122.059 81.6135 122.353 81.7806Z" fill="url(#paint17_linear_384_5499)"/>
<path d="M122.363 77.6617C122.518 77.7611 122.647 77.8959 122.739 78.0548C122.831 78.2138 122.884 78.3924 122.894 78.5759C122.906 78.642 122.898 78.7102 122.87 78.7712C122.841 78.8322 122.795 78.8829 122.737 78.9163C122.678 78.9498 122.611 78.9643 122.544 78.9579C122.477 78.9515 122.414 78.9246 122.363 78.8807C122.208 78.7797 122.079 78.6432 121.987 78.4826C121.894 78.3219 121.841 78.1417 121.832 77.9566C121.832 77.6322 122.068 77.4946 122.363 77.6617Z" fill="url(#paint18_linear_384_5499)"/>
<path d="M122.344 85.8997C122.495 86.0014 122.621 86.1369 122.712 86.2955C122.802 86.4542 122.854 86.6317 122.865 86.814C122.865 87.1482 122.629 87.2859 122.344 87.1187C122.188 87.0177 122.057 86.8814 121.963 86.7209C121.87 86.5605 121.815 86.3802 121.803 86.1947C121.813 85.8604 122.049 85.7326 122.344 85.8997Z" fill="url(#paint19_linear_384_5499)"/>
<path d="M122.334 90.0186C122.485 90.1203 122.612 90.2558 122.702 90.4145C122.792 90.5731 122.845 90.7506 122.855 90.9329C122.855 91.2672 122.619 91.4048 122.324 91.2377C122.171 91.1365 122.044 91.0014 121.951 90.8428C121.859 90.6842 121.805 90.5064 121.793 90.3234C121.793 89.9793 122.039 89.8515 122.334 90.0186Z" fill="url(#paint20_linear_384_5499)"/>
<path d="M122.324 94.0983C122.476 94.2 122.602 94.3355 122.692 94.4941C122.782 94.6528 122.835 94.8302 122.845 95.0125C122.845 95.3468 122.609 95.4844 122.314 95.3173C122.159 95.2185 122.03 95.0838 121.937 94.9248C121.845 94.7657 121.792 94.5868 121.783 94.4031C121.783 94.0983 122.029 93.9607 122.324 94.0983Z" fill="url(#paint21_linear_384_5499)"/>
<path d="M122.304 98.2468C122.459 98.3462 122.588 98.4811 122.68 98.64C122.772 98.799 122.825 98.9776 122.835 99.1611C122.847 99.2272 122.839 99.2954 122.811 99.3564C122.782 99.4173 122.736 99.468 122.678 99.5015C122.619 99.5349 122.552 99.5495 122.485 99.5431C122.418 99.5367 122.355 99.5097 122.304 99.4659C122.149 99.367 122.02 99.2324 121.928 99.0733C121.835 98.9143 121.782 98.7354 121.773 98.5516C121.773 98.2076 122.009 98.0797 122.304 98.2468Z" fill="url(#paint22_linear_384_5499)"/>
<path d="M122.285 106.495C122.439 106.594 122.566 106.729 122.657 106.888C122.748 107.047 122.799 107.226 122.806 107.409C122.806 107.743 122.57 107.871 122.285 107.704C122.129 107.608 121.999 107.475 121.907 107.318C121.814 107.16 121.762 106.982 121.754 106.799C121.754 106.455 121.99 106.328 122.285 106.495Z" fill="url(#paint23_linear_384_5499)"/>
<path d="M122.295 102.376C122.45 102.475 122.579 102.609 122.671 102.768C122.764 102.927 122.816 103.106 122.825 103.29C122.838 103.356 122.829 103.424 122.801 103.485C122.773 103.546 122.726 103.597 122.668 103.63C122.61 103.664 122.542 103.678 122.475 103.672C122.409 103.666 122.345 103.639 122.295 103.595C122.141 103.494 122.013 103.359 121.921 103.2C121.829 103.042 121.775 102.864 121.764 102.68C121.764 102.336 122 102.199 122.295 102.376Z" fill="url(#paint24_linear_384_5499)"/>
<path d="M122.275 110.604C122.427 110.706 122.553 110.841 122.643 111C122.733 111.158 122.786 111.336 122.796 111.518C122.796 111.852 122.56 111.99 122.265 111.823C122.112 111.722 121.985 111.587 121.892 111.428C121.8 111.269 121.746 111.092 121.734 110.909C121.734 110.565 121.98 110.437 122.275 110.604Z" fill="url(#paint25_linear_384_5499)"/>
<path d="M122.265 114.743C122.418 114.843 122.545 114.978 122.635 115.137C122.726 115.296 122.777 115.474 122.786 115.657C122.786 115.991 122.55 116.129 122.255 115.961C122.099 115.863 121.97 115.729 121.877 115.57C121.785 115.41 121.732 115.231 121.724 115.047C121.724 114.684 121.97 114.556 122.265 114.743Z" fill="url(#paint26_linear_384_5499)"/>
<path d="M66.0146 46.1445C66.3581 46.1789 66.6797 46.3043 66.9561 46.5059L66.9668 46.5137L66.9775 46.5205L115.738 74.667H115.739C116.594 75.2221 117.306 75.9776 117.818 76.8584C118.266 77.634 118.548 78.491 118.648 79.375L118.68 79.7559V80.8379L118.518 138.914V138.928L118.519 138.94C118.553 139.274 118.502 139.612 118.365 139.914C118.229 140.214 118.014 140.475 117.742 140.669L114.203 142.502C114.138 142.405 114.049 142.284 113.939 142.146C113.682 141.818 113.3 141.365 112.836 140.83C111.908 139.76 110.644 138.35 109.377 136.939C108.109 135.527 106.838 134.113 105.895 133.031C105.422 132.49 105.035 132.034 104.771 131.704C104.638 131.539 104.54 131.409 104.479 131.318C104.473 131.31 104.469 131.302 104.464 131.295C104.483 131.272 104.506 131.247 104.533 131.22C104.6 131.153 104.665 131.101 104.752 131.022C104.85 130.933 104.984 130.802 105.05 130.624H105.097L105.095 130.372L104.798 88.7529V88.7266L104.792 88.7012L103.878 84.5381L103.87 84.5029L103.853 84.4707L103.642 84.1182C103.129 83.32 102.445 82.6411 101.639 82.1348L64.2305 50.4639L64.2217 50.4561L64.2119 50.4492L64.1045 50.3604C64.0617 50.3207 64.0115 50.2716 63.9541 50.2129C63.8494 50.1059 63.7141 49.9608 63.5889 49.835C63.46 49.7054 63.3207 49.5734 63.1846 49.4707C63.0626 49.3788 62.9076 49.2834 62.7432 49.2627C62.7397 49.2607 62.7289 49.2549 62.7109 49.2393C62.6747 49.2076 62.6284 49.1565 62.5732 49.084C62.4626 48.9384 62.3434 48.7458 62.2148 48.543C62.0951 48.3541 61.964 48.1527 61.8379 48.0049L65.0303 46.2998C65.3351 46.1604 65.6699 46.1101 66.0146 46.1445Z" fill="url(#paint27_linear_384_5499)" stroke="black" stroke-width="0.5"/>
<g filter="url(#filter0_d_384_5499)">
<path d="M60.5006 51.017V49.8563C60.5006 47.9306 61.8817 47.1395 63.5805 48.1251L112.36 76.2787C113.248 76.8558 113.994 77.6339 114.525 78.5546C115.057 79.4753 115.362 80.5063 115.42 81.5632C115.446 81.9393 115.446 82.3089 115.42 82.6849L115.265 140.762C115.265 142.695 113.884 143.486 112.204 142.526L79.3691 123.586L69.8571 118.094L63.3666 114.346C62.4782 113.769 61.7391 112.985 61.2139 112.064C60.6887 111.143 60.3839 110.112 60.332 109.055L60.5006 51.017Z" fill="#8F8F8F"/>
<path d="M61.5264 48.1162C61.9514 47.8759 62.568 47.874 63.3057 48.2588L63.4551 48.3418L112.229 76.4912C113.082 77.0469 113.798 77.7955 114.309 78.6797C114.821 79.5662 115.115 80.5592 115.171 81.5771V81.5801C115.196 81.9447 115.196 82.3033 115.171 82.668L115.17 82.6758V82.6846L115.015 140.762V140.763C115.015 141.674 114.691 142.252 114.239 142.512C113.787 142.772 113.121 142.762 112.328 142.309H112.327L79.4932 123.369L69.9824 117.878L63.502 114.136C62.6477 113.581 61.936 112.826 61.4307 111.94C60.9878 111.164 60.7078 110.306 60.6113 109.423L60.582 109.043L60.751 51.0176V49.8564C60.751 48.9481 61.0739 48.372 61.5264 48.1162Z" stroke="black" stroke-width="0.5"/>
</g>
<path d="M69.7299 61.74C69.8897 61.8452 70.0224 61.9867 70.1171 62.153C70.2119 62.3192 70.266 62.5055 70.275 62.6966C70.275 63.0464 70.0282 63.1904 69.7196 63.0155C69.559 62.9103 69.4251 62.769 69.3287 62.6029C69.2323 62.4368 69.1759 62.2506 69.1641 62.0589C69.1641 61.74 69.3801 61.6063 69.7299 61.74Z" fill="url(#paint28_linear_384_5499)"/>
<path d="M73.4948 63.9413C73.6571 64.0448 73.7923 64.1856 73.8889 64.352C73.9856 64.5185 74.0409 64.7057 74.0502 64.898C74.0502 65.2375 73.7931 65.3815 73.4948 65.2066C73.3336 65.1019 73.1993 64.9608 73.1028 64.7946C73.0063 64.6284 72.9503 64.4418 72.9393 64.2499C72.9187 63.9105 73.1656 63.7973 73.4948 63.9413Z" fill="url(#paint29_linear_384_5499)"/>
<path d="M77.2288 66.1119C77.3904 66.2152 77.5245 66.3563 77.6195 66.5229C77.7145 66.6896 77.7675 66.8768 77.774 67.0685C77.774 67.4183 77.5374 67.5726 77.2288 67.3874C77.0665 67.284 76.9313 67.1431 76.8346 66.9767C76.738 66.8102 76.6827 66.623 76.6734 66.4307C76.6734 66.0707 76.9202 65.937 77.2288 66.1119Z" fill="url(#paint30_linear_384_5499)"/>
<path d="M80.9835 68.2823C81.1437 68.3846 81.2769 68.5241 81.3718 68.6888C81.4667 68.8536 81.5205 69.0388 81.5286 69.2287C81.5286 69.5887 81.2818 69.7327 80.9732 69.5578C80.8137 69.4498 80.6814 69.3063 80.5868 69.1385C80.4922 68.9708 80.4378 68.7832 80.4279 68.5909C80.4279 68.2411 80.6954 68.0971 80.9835 68.2823Z" fill="url(#paint31_linear_384_5499)"/>
<path d="M84.7277 70.4426C84.8884 70.5478 85.0222 70.6891 85.1186 70.8552C85.2151 71.0213 85.2715 71.2075 85.2833 71.3992C85.2833 71.7592 85.0363 71.9032 84.7277 71.7181C84.566 71.614 84.4313 71.4731 84.3347 71.3067C84.2381 71.1404 84.1825 70.9535 84.1723 70.7614C84.1723 70.4014 84.4191 70.2677 84.7277 70.4426Z" fill="url(#paint32_linear_384_5499)"/>
<path d="M88.4721 72.6027C88.6327 72.7079 88.7665 72.8492 88.863 73.0153C88.9594 73.1814 89.0157 73.3677 89.0275 73.5593C89.0275 73.9194 88.7807 74.0634 88.4721 73.8782C88.3103 73.7742 88.1756 73.6332 88.079 73.4669C87.9825 73.3005 87.9268 73.1136 87.9166 72.9216C87.896 72.5718 88.1635 72.4278 88.4721 72.6027Z" fill="url(#paint33_linear_384_5499)"/>
<path d="M92.2267 74.7732C92.3891 74.8766 92.5242 75.0175 92.6209 75.1839C92.7175 75.3504 92.7728 75.5376 92.7822 75.7298C92.7822 76.0796 92.525 76.2236 92.2164 76.0487C92.0588 75.9412 91.9278 75.7992 91.8333 75.6334C91.7389 75.4676 91.6834 75.2825 91.6712 75.0921C91.6712 74.732 91.9181 74.5983 92.2267 74.7732Z" fill="url(#paint34_linear_384_5499)"/>
<path d="M95.9813 76.9437C96.1437 77.0471 96.2788 77.1879 96.3755 77.3543C96.4721 77.5208 96.5275 77.7081 96.5368 77.9003C96.5368 78.2501 96.2796 78.3941 95.971 78.2192C95.8098 78.113 95.6763 77.9699 95.5814 77.8017C95.4866 77.6335 95.4333 77.4452 95.4259 77.2523C95.4259 76.9025 95.6727 76.7688 95.9813 76.9437Z" fill="url(#paint35_linear_384_5499)"/>
<path d="M99.736 79.1141C99.8962 79.2165 100.029 79.3559 100.124 79.5206C100.219 79.6854 100.273 79.8706 100.281 80.0605C100.281 80.4205 100.034 80.5646 99.736 80.3897C99.574 80.2834 99.4393 80.1405 99.3428 79.9725C99.2463 79.8045 99.1907 79.6162 99.1804 79.4227C99.2113 79.0627 99.4274 78.929 99.736 79.1141Z" fill="url(#paint36_linear_384_5499)"/>
<path d="M103.48 81.2846C103.639 81.3888 103.771 81.5287 103.865 81.693C103.96 81.8574 104.015 82.0416 104.025 82.231C104.025 82.591 103.779 82.735 103.48 82.5601C103.318 82.4538 103.182 82.3111 103.084 82.1433C102.985 81.9755 102.927 81.7872 102.914 81.5932C102.925 81.2846 103.172 81.0892 103.48 81.2846Z" fill="url(#paint37_linear_384_5499)"/>
<path d="M107.225 83.4345C107.387 83.5379 107.522 83.6787 107.619 83.8452C107.715 84.0117 107.771 84.1989 107.78 84.3912C107.793 84.4603 107.784 84.5317 107.754 84.5955C107.725 84.6593 107.676 84.7124 107.615 84.7474C107.554 84.7824 107.484 84.7976 107.414 84.7909C107.344 84.7842 107.278 84.756 107.225 84.7101C107.061 84.6057 106.925 84.4632 106.828 84.2948C106.731 84.1264 106.677 83.9371 106.669 83.7431C106.669 83.3934 106.916 83.2597 107.225 83.4345Z" fill="url(#paint38_linear_384_5499)"/>
<path d="M107.204 92.0547C107.364 92.1605 107.498 92.3019 107.594 92.4679C107.69 92.6339 107.747 92.8199 107.76 93.0114C107.76 93.3611 107.502 93.5051 107.204 93.3302C107.04 93.2258 106.904 93.0834 106.808 92.915C106.711 92.7466 106.656 92.5573 106.649 92.3633C106.649 92.0238 106.895 91.8798 107.204 92.0547Z" fill="url(#paint39_linear_384_5499)"/>
<path d="M107.214 87.7446C107.376 87.8487 107.511 87.9897 107.607 88.156C107.704 88.3223 107.76 88.5092 107.77 88.7013C107.783 88.7704 107.774 88.8418 107.744 88.9056C107.715 88.9694 107.666 89.0225 107.605 89.0575C107.544 89.0925 107.474 89.1077 107.404 89.101C107.334 89.0943 107.268 89.0661 107.214 89.0202C107.052 88.9145 106.917 88.7717 106.82 88.6036C106.723 88.4355 106.668 88.2469 106.659 88.0532C106.659 87.7138 106.906 87.5698 107.214 87.7446Z" fill="url(#paint40_linear_384_5499)"/>
<path d="M107.194 96.3648C107.352 96.4712 107.484 96.613 107.579 96.779C107.674 96.945 107.728 97.1307 107.739 97.3215C107.739 97.6713 107.492 97.8153 107.194 97.6404C107.03 97.5347 106.894 97.3921 106.796 97.2241C106.698 97.0562 106.64 96.8676 106.628 96.6735C106.638 96.3237 106.885 96.1899 107.194 96.3648Z" fill="url(#paint41_linear_384_5499)"/>
<path d="M107.183 100.675C107.342 100.781 107.474 100.923 107.569 101.089C107.663 101.255 107.718 101.441 107.729 101.632C107.729 101.981 107.482 102.125 107.173 101.95C107.013 101.845 106.88 101.703 106.783 101.537C106.687 101.371 106.63 101.185 106.618 100.994C106.618 100.634 106.875 100.5 107.183 100.675Z" fill="url(#paint42_linear_384_5499)"/>
<path d="M107.173 104.944C107.332 105.05 107.464 105.192 107.558 105.358C107.653 105.524 107.708 105.71 107.718 105.9C107.718 106.25 107.471 106.394 107.163 106.219C107.001 106.116 106.865 105.975 106.769 105.809C106.672 105.642 106.617 105.455 106.607 105.263C106.607 104.944 106.865 104.8 107.173 104.944Z" fill="url(#paint43_linear_384_5499)"/>
<path d="M107.153 109.285C107.314 109.389 107.449 109.53 107.546 109.696C107.642 109.862 107.698 110.049 107.708 110.241C107.721 110.311 107.712 110.382 107.682 110.446C107.653 110.51 107.604 110.563 107.543 110.598C107.482 110.633 107.412 110.648 107.342 110.641C107.272 110.634 107.206 110.606 107.153 110.56C106.99 110.457 106.855 110.316 106.758 110.15C106.662 109.983 106.606 109.796 106.597 109.604C106.597 109.244 106.844 109.11 107.153 109.285Z" fill="url(#paint44_linear_384_5499)"/>
<path d="M107.132 117.915C107.293 118.019 107.427 118.16 107.522 118.327C107.616 118.493 107.67 118.68 107.677 118.872C107.677 119.222 107.43 119.355 107.132 119.181C106.969 119.08 106.834 118.941 106.737 118.776C106.64 118.611 106.585 118.425 106.577 118.234C106.577 117.874 106.823 117.74 107.132 117.915Z" fill="url(#paint45_linear_384_5499)"/>
<path d="M107.142 113.605C107.305 113.709 107.44 113.849 107.537 114.016C107.633 114.182 107.688 114.37 107.698 114.562C107.711 114.631 107.702 114.702 107.672 114.766C107.643 114.83 107.594 114.883 107.533 114.918C107.472 114.953 107.402 114.968 107.332 114.962C107.262 114.955 107.196 114.927 107.142 114.881C106.982 114.775 106.848 114.634 106.751 114.468C106.655 114.302 106.599 114.116 106.587 113.924C106.587 113.564 106.834 113.42 107.142 113.605Z" fill="url(#paint46_linear_384_5499)"/>
<path d="M107.122 122.215C107.28 122.321 107.412 122.463 107.507 122.629C107.602 122.795 107.656 122.981 107.667 123.172C107.667 123.522 107.42 123.666 107.111 123.491C106.951 123.385 106.818 123.243 106.722 123.077C106.625 122.912 106.569 122.725 106.556 122.534C106.556 122.174 106.813 122.04 107.122 122.215Z" fill="url(#paint47_linear_384_5499)"/>
<path d="M107.111 126.546C107.271 126.651 107.404 126.792 107.499 126.959C107.594 127.125 107.648 127.311 107.657 127.502C107.657 127.852 107.41 127.996 107.101 127.821C106.938 127.718 106.803 127.578 106.706 127.411C106.609 127.245 106.554 127.057 106.546 126.865C106.546 126.484 106.803 126.35 107.111 126.546Z" fill="url(#paint48_linear_384_5499)"/>
<path d="M49.8896 56.2041C50.2331 56.2385 50.5547 56.3639 50.8311 56.5654L50.8418 56.5732L50.8525 56.5801L99.6133 84.7266H99.6143C100.469 85.2817 101.181 86.0371 101.693 86.918C102.141 87.6936 102.423 88.5506 102.523 89.4346L102.555 89.8154V90.8975L102.393 148.974V148.987L102.394 149C102.428 149.334 102.377 149.672 102.24 149.974C102.104 150.274 101.889 150.534 101.617 150.729L98.0781 152.562C98.0131 152.465 97.9236 152.344 97.8145 152.205C97.5569 151.878 97.1746 151.424 96.7109 150.89C95.7829 149.819 94.5188 148.41 93.252 146.999C91.9841 145.587 90.7131 144.173 89.7695 143.091C89.2974 142.549 88.9097 142.093 88.6455 141.764C88.5128 141.598 88.4147 141.469 88.3535 141.378C88.348 141.37 88.3435 141.362 88.3389 141.354C88.3575 141.331 88.3809 141.306 88.4082 141.279C88.4754 141.213 88.54 141.161 88.627 141.082C88.7251 140.993 88.8592 140.861 88.9248 140.684H88.9717L88.9697 140.432L88.6729 98.8125V98.7861L88.667 98.7607L87.7529 94.5977L87.7451 94.5625L87.7275 94.5303L87.5166 94.1777C87.0038 93.3796 86.32 92.7007 85.5137 92.1943L48.1055 60.5234L48.0967 60.5156L48.0869 60.5088L47.9795 60.4199C47.9367 60.3803 47.8865 60.3311 47.8291 60.2725C47.7244 60.1655 47.5891 60.0204 47.4639 59.8945C47.335 59.765 47.1957 59.633 47.0596 59.5303C46.9376 59.4383 46.7826 59.343 46.6182 59.3223C46.6147 59.3203 46.6039 59.3145 46.5859 59.2988C46.5497 59.2671 46.5034 59.216 46.4482 59.1436C46.3376 58.998 46.2184 58.8054 46.0898 58.6025C45.9701 58.4137 45.839 58.2123 45.7129 58.0645L48.9053 56.3594C49.2101 56.22 49.5449 56.1696 49.8896 56.2041Z" fill="url(#paint49_linear_384_5499)" stroke="black" stroke-width="0.5"/>
<path d="M45.4014 58.1758C45.8264 57.9355 46.443 57.9336 47.1807 58.3184L47.3301 58.4014L96.1035 86.5508C96.9573 87.1065 97.673 87.855 98.1836 88.7393C98.6955 89.6258 98.9897 90.6187 99.0459 91.6367V91.6396C99.071 92.0043 99.071 92.3629 99.0459 92.7275L99.0449 92.7354V92.7441L98.8896 150.821V150.822C98.8896 151.734 98.5657 152.312 98.1143 152.571C97.6622 152.831 96.996 152.821 96.2031 152.368H96.2021L63.3682 133.429L53.8574 127.938L47.377 124.195C46.5227 123.64 45.811 122.886 45.3057 122C44.8628 121.224 44.5828 120.366 44.4863 119.482L44.457 119.103L44.626 61.0771V59.916C44.626 59.0077 44.9489 58.4316 45.4014 58.1758Z" fill="white" stroke="black" stroke-width="0.5"/>
<path d="M75.5566 92.6164C75.9881 92.8645 76.2541 93.3243 76.2541 93.8221C76.2541 94.8916 75.0973 95.5609 74.1701 95.0278L55.5609 84.3275C55.1294 84.0793 54.8633 83.6195 54.8633 83.1218C54.8633 82.0522 56.0202 81.383 56.9474 81.9161L75.5566 92.6164Z" fill="url(#paint50_linear_384_5499)"/>
<path d="M84.5099 125.487C84.9165 125.721 85.167 126.155 85.167 126.624C85.167 127.634 84.0738 128.266 83.1987 127.761L55.5204 111.806C55.1139 111.571 54.8633 111.138 54.8633 110.668C54.8633 109.658 55.9565 109.027 56.8316 109.531L84.5099 125.487Z" fill="url(#paint51_linear_384_5499)"/>
<path d="M84.4712 111.101C84.9016 111.349 85.1669 111.808 85.1669 112.305C85.1669 113.374 84.0095 114.043 83.0829 113.509L55.559 97.6422C55.1285 97.394 54.8633 96.9349 54.8633 96.438C54.8633 95.3685 56.0207 94.6997 56.9473 95.2339L84.4712 111.101Z" fill="url(#paint52_linear_384_5499)"/>
<path d="M84.4738 104.685C84.9027 104.933 85.1669 105.39 85.1669 105.885C85.1669 106.953 84.0086 107.619 83.0855 107.081L55.5162 91.0263C55.1119 90.7909 54.8633 90.3583 54.8633 89.8905C54.8633 88.8791 55.9578 88.2467 56.8341 88.7518L84.4738 104.685Z" fill="url(#paint53_linear_384_5499)"/>
<path d="M75.5566 113.055C75.9881 113.303 76.2541 113.763 76.2541 114.261C76.2541 115.33 75.0973 116 74.1701 115.466L55.5609 104.766C55.1294 104.518 54.8633 104.058 54.8633 103.56C54.8633 102.491 56.0202 101.822 56.9474 102.355L75.5566 113.055Z" fill="url(#paint54_linear_384_5499)"/>
</g>
<defs>
<filter id="filter0_d_384_5499" x="60.332" y="47.7002" width="55.1074" height="95.2334" filterUnits="userSpaceOnUse" color-interpolation-filters="sRGB">
<feFlood flood-opacity="0" result="BackgroundImageFix"/>
<feColorMatrix in="SourceAlpha" type="matrix" values="0 0 0 0 0 0 0 0 0 0 0 0 0 0 0 0 0 0 127 0" result="hardAlpha"/>
<feOffset/>
<feColorMatrix type="matrix" values="0 0 0 0 0 0 0 0 0 0 0 0 0 0 0 0 0 0 0.1 0"/>
<feBlend mode="normal" in2="BackgroundImageFix" result="effect1_dropShadow_384_5499"/>
<feBlend mode="normal" in="SourceGraphic" in2="effect1_dropShadow_384_5499" result="shape"/>
</filter>
<linearGradient id="paint0_linear_384_5499" x1="96.8259" y1="3.08351" x2="105.003" y2="204.579" gradientUnits="userSpaceOnUse">
<stop offset="0.318529" stop-color="white"/>
<stop offset="1" stop-color="#F5F5F5"/>
</linearGradient>
<linearGradient id="paint1_linear_384_5499" x1="86.6223" y1="-39.1757" x2="95.4599" y2="310.105" gradientUnits="userSpaceOnUse">
<stop offset="0.394537" stop-color="#3A41AC"/>
<stop offset="0.618606" stop-color="#5059C9"/>
<stop offset="0.832621" stop-color="#7B83EB"/>
</linearGradient>
<linearGradient id="paint2_linear_384_5499" x1="86.5208" y1="-43.0526" x2="95.6125" y2="316.274" gradientUnits="userSpaceOnUse">
<stop offset="0.167379" stop-color="#7B83EB"/>
<stop offset="0.381394" stop-color="#5059C9"/>
<stop offset="0.605463" stop-color="#3A41AC"/>
<stop offset="0.943285" stop-color="#282E86"/>
</linearGradient>
<linearGradient id="paint3_linear_384_5499" x1="63.2691" y1="28.9837" x2="177.053" y2="187.563" gradientUnits="userSpaceOnUse">
<stop offset="0.167379" stop-color="#FF5C39"/>
<stop offset="0.381394" stop-color="#F4364C"/>
<stop offset="0.605463" stop-color="#C73ECC"/>
<stop offset="0.834442" stop-color="#0078D4"/>
</linearGradient>
<linearGradient id="paint4_linear_384_5499" x1="87.115" y1="75.8804" x2="88.7858" y2="212.703" gradientUnits="userSpaceOnUse">
<stop offset="0.394537" stop-color="#3A41AC"/>
<stop offset="0.618606" stop-color="#5059C9"/>
<stop offset="0.832621" stop-color="#7B83EB"/>
</linearGradient>
<linearGradient id="paint5_linear_384_5499" x1="60.3193" y1="9.95026" x2="201.358" y2="216.971" gradientUnits="userSpaceOnUse">
<stop offset="0.167379" stop-color="#7B83EB"/>
<stop offset="0.381394" stop-color="#5059C9"/>
<stop offset="0.605463" stop-color="#3A41AC"/>
<stop offset="0.943285" stop-color="#282E86"/>
</linearGradient>
<linearGradient id="paint6_linear_384_5499" x1="45.878" y1="-28.8268" x2="159.271" y2="144.527" gradientUnits="userSpaceOnUse">
<stop offset="0.167379" stop-color="#FF5C39"/>
<stop offset="0.381394" stop-color="#F4364C"/>
<stop offset="0.605463" stop-color="#C73ECC"/>
<stop offset="0.834442" stop-color="#0078D4"/>
</linearGradient>
<linearGradient id="paint7_linear_384_5499" x1="45.878" y1="-28.8268" x2="159.271" y2="144.527" gradientUnits="userSpaceOnUse">
<stop offset="0.167379" stop-color="#FF5C39"/>
<stop offset="0.381394" stop-color="#F4364C"/>
<stop offset="0.605463" stop-color="#C73ECC"/>
<stop offset="0.834442" stop-color="#0078D4"/>
</linearGradient>
<linearGradient id="paint8_linear_384_5499" x1="45.878" y1="-28.8268" x2="159.271" y2="144.527" gradientUnits="userSpaceOnUse">
<stop offset="0.167379" stop-color="#FF5C39"/>
<stop offset="0.381394" stop-color="#F4364C"/>
<stop offset="0.605463" stop-color="#C73ECC"/>
<stop offset="0.834442" stop-color="#0078D4"/>
</linearGradient>
<linearGradient id="paint9_linear_384_5499" x1="45.878" y1="-28.8268" x2="159.271" y2="144.527" gradientUnits="userSpaceOnUse">
<stop offset="0.167379" stop-color="#FF5C39"/>
<stop offset="0.381394" stop-color="#F4364C"/>
<stop offset="0.605463" stop-color="#C73ECC"/>
<stop offset="0.834442" stop-color="#0078D4"/>
</linearGradient>
<linearGradient id="paint10_linear_384_5499" x1="45.878" y1="-28.8268" x2="159.271" y2="144.527" gradientUnits="userSpaceOnUse">
<stop offset="0.167379" stop-color="#FF5C39"/>
<stop offset="0.381394" stop-color="#F4364C"/>
<stop offset="0.605463" stop-color="#C73ECC"/>
<stop offset="0.834442" stop-color="#0078D4"/>
</linearGradient>
<linearGradient id="paint11_linear_384_5499" x1="45.878" y1="-28.8268" x2="159.271" y2="144.527" gradientUnits="userSpaceOnUse">
<stop offset="0.167379" stop-color="#FF5C39"/>
<stop offset="0.381394" stop-color="#F4364C"/>
<stop offset="0.605463" stop-color="#C73ECC"/>
<stop offset="0.834442" stop-color="#0078D4"/>
</linearGradient>
<linearGradient id="paint12_linear_384_5499" x1="45.878" y1="-28.8268" x2="159.271" y2="144.527" gradientUnits="userSpaceOnUse">
<stop offset="0.167379" stop-color="#FF5C39"/>
<stop offset="0.381394" stop-color="#F4364C"/>
<stop offset="0.605463" stop-color="#C73ECC"/>
<stop offset="0.834442" stop-color="#0078D4"/>
</linearGradient>
<linearGradient id="paint13_linear_384_5499" x1="45.878" y1="-28.8268" x2="159.271" y2="144.527" gradientUnits="userSpaceOnUse">
<stop offset="0.167379" stop-color="#FF5C39"/>
<stop offset="0.381394" stop-color="#F4364C"/>
<stop offset="0.605463" stop-color="#C73ECC"/>
<stop offset="0.834442" stop-color="#0078D4"/>
</linearGradient>
<linearGradient id="paint14_linear_384_5499" x1="45.878" y1="-28.8268" x2="159.271" y2="144.527" gradientUnits="userSpaceOnUse">
<stop offset="0.167379" stop-color="#FF5C39"/>
<stop offset="0.381394" stop-color="#F4364C"/>
<stop offset="0.605463" stop-color="#C73ECC"/>
<stop offset="0.834442" stop-color="#0078D4"/>
</linearGradient>
<linearGradient id="paint15_linear_384_5499" x1="45.878" y1="-28.8268" x2="159.271" y2="144.527" gradientUnits="userSpaceOnUse">
<stop offset="0.167379" stop-color="#FF5C39"/>
<stop offset="0.381394" stop-color="#F4364C"/>
<stop offset="0.605463" stop-color="#C73ECC"/>
<stop offset="0.834442" stop-color="#0078D4"/>
</linearGradient>
<linearGradient id="paint16_linear_384_5499" x1="45.878" y1="-28.8268" x2="159.271" y2="144.527" gradientUnits="userSpaceOnUse">
<stop offset="0.167379" stop-color="#FF5C39"/>
<stop offset="0.381394" stop-color="#F4364C"/>
<stop offset="0.605463" stop-color="#C73ECC"/>
<stop offset="0.834442" stop-color="#0078D4"/>
</linearGradient>
<linearGradient id="paint17_linear_384_5499" x1="45.878" y1="-28.8268" x2="159.271" y2="144.527" gradientUnits="userSpaceOnUse">
<stop offset="0.167379" stop-color="#FF5C39"/>
<stop offset="0.381394" stop-color="#F4364C"/>
<stop offset="0.605463" stop-color="#C73ECC"/>
<stop offset="0.834442" stop-color="#0078D4"/>
</linearGradient>
<linearGradient id="paint18_linear_384_5499" x1="45.878" y1="-28.8268" x2="159.271" y2="144.527" gradientUnits="userSpaceOnUse">
<stop offset="0.167379" stop-color="#FF5C39"/>
<stop offset="0.381394" stop-color="#F4364C"/>
<stop offset="0.605463" stop-color="#C73ECC"/>
<stop offset="0.834442" stop-color="#0078D4"/>
</linearGradient>
<linearGradient id="paint19_linear_384_5499" x1="45.878" y1="-28.8268" x2="159.271" y2="144.527" gradientUnits="userSpaceOnUse">
<stop offset="0.167379" stop-color="#FF5C39"/>
<stop offset="0.381394" stop-color="#F4364C"/>
<stop offset="0.605463" stop-color="#C73ECC"/>
<stop offset="0.834442" stop-color="#0078D4"/>
</linearGradient>
<linearGradient id="paint20_linear_384_5499" x1="45.878" y1="-28.8268" x2="159.271" y2="144.527" gradientUnits="userSpaceOnUse">
<stop offset="0.167379" stop-color="#FF5C39"/>
<stop offset="0.381394" stop-color="#F4364C"/>
<stop offset="0.605463" stop-color="#C73ECC"/>
<stop offset="0.834442" stop-color="#0078D4"/>
</linearGradient>
<linearGradient id="paint21_linear_384_5499" x1="45.878" y1="-28.8268" x2="159.271" y2="144.527" gradientUnits="userSpaceOnUse">
<stop offset="0.167379" stop-color="#FF5C39"/>
<stop offset="0.381394" stop-color="#F4364C"/>
<stop offset="0.605463" stop-color="#C73ECC"/>
<stop offset="0.834442" stop-color="#0078D4"/>
</linearGradient>
<linearGradient id="paint22_linear_384_5499" x1="45.878" y1="-28.8268" x2="159.271" y2="144.527" gradientUnits="userSpaceOnUse">
<stop offset="0.167379" stop-color="#FF5C39"/>
<stop offset="0.381394" stop-color="#F4364C"/>
<stop offset="0.605463" stop-color="#C73ECC"/>
<stop offset="0.834442" stop-color="#0078D4"/>
</linearGradient>
<linearGradient id="paint23_linear_384_5499" x1="45.878" y1="-28.8268" x2="159.271" y2="144.527" gradientUnits="userSpaceOnUse">
<stop offset="0.167379" stop-color="#FF5C39"/>
<stop offset="0.381394" stop-color="#F4364C"/>
<stop offset="0.605463" stop-color="#C73ECC"/>
<stop offset="0.834442" stop-color="#0078D4"/>
</linearGradient>
<linearGradient id="paint24_linear_384_5499" x1="45.878" y1="-28.8268" x2="159.271" y2="144.527" gradientUnits="userSpaceOnUse">
<stop offset="0.167379" stop-color="#FF5C39"/>
<stop offset="0.381394" stop-color="#F4364C"/>
<stop offset="0.605463" stop-color="#C73ECC"/>
<stop offset="0.834442" stop-color="#0078D4"/>
</linearGradient>
<linearGradient id="paint25_linear_384_5499" x1="45.878" y1="-28.8268" x2="159.271" y2="144.527" gradientUnits="userSpaceOnUse">
<stop offset="0.167379" stop-color="#FF5C39"/>
<stop offset="0.381394" stop-color="#F4364C"/>
<stop offset="0.605463" stop-color="#C73ECC"/>
<stop offset="0.834442" stop-color="#0078D4"/>
</linearGradient>
<linearGradient id="paint26_linear_384_5499" x1="45.878" y1="-28.8268" x2="159.271" y2="144.527" gradientUnits="userSpaceOnUse">
<stop offset="0.167379" stop-color="#FF5C39"/>
<stop offset="0.381394" stop-color="#F4364C"/>
<stop offset="0.605463" stop-color="#C73ECC"/>
<stop offset="0.834442" stop-color="#0078D4"/>
</linearGradient>
<linearGradient id="paint27_linear_384_5499" x1="43.454" y1="18.8272" x2="184.493" y2="225.848" gradientUnits="userSpaceOnUse">
<stop offset="0.167379" stop-color="#7B83EB"/>
<stop offset="0.381394" stop-color="#5059C9"/>
<stop offset="0.605463" stop-color="#3A41AC"/>
<stop offset="0.943285" stop-color="#282E86"/>
</linearGradient>
<linearGradient id="paint28_linear_384_5499" x1="27.2018" y1="-23.6841" x2="145.868" y2="157.684" gradientUnits="userSpaceOnUse">
<stop offset="0.167379" stop-color="#FF5C39"/>
<stop offset="0.381394" stop-color="#F4364C"/>
<stop offset="0.605463" stop-color="#C73ECC"/>
<stop offset="0.834442" stop-color="#0078D4"/>
</linearGradient>
<linearGradient id="paint29_linear_384_5499" x1="27.2018" y1="-23.6841" x2="145.868" y2="157.684" gradientUnits="userSpaceOnUse">
<stop offset="0.167379" stop-color="#FF5C39"/>
<stop offset="0.381394" stop-color="#F4364C"/>
<stop offset="0.605463" stop-color="#C73ECC"/>
<stop offset="0.834442" stop-color="#0078D4"/>
</linearGradient>
<linearGradient id="paint30_linear_384_5499" x1="27.2018" y1="-23.6841" x2="145.868" y2="157.684" gradientUnits="userSpaceOnUse">
<stop offset="0.167379" stop-color="#FF5C39"/>
<stop offset="0.381394" stop-color="#F4364C"/>
<stop offset="0.605463" stop-color="#C73ECC"/>
<stop offset="0.834442" stop-color="#0078D4"/>
</linearGradient>
<linearGradient id="paint31_linear_384_5499" x1="27.2018" y1="-23.6841" x2="145.868" y2="157.684" gradientUnits="userSpaceOnUse">
<stop offset="0.167379" stop-color="#FF5C39"/>
<stop offset="0.381394" stop-color="#F4364C"/>
<stop offset="0.605463" stop-color="#C73ECC"/>
<stop offset="0.834442" stop-color="#0078D4"/>
</linearGradient>
<linearGradient id="paint32_linear_384_5499" x1="27.2018" y1="-23.6841" x2="145.868" y2="157.684" gradientUnits="userSpaceOnUse">
<stop offset="0.167379" stop-color="#FF5C39"/>
<stop offset="0.381394" stop-color="#F4364C"/>
<stop offset="0.605463" stop-color="#C73ECC"/>
<stop offset="0.834442" stop-color="#0078D4"/>
</linearGradient>
<linearGradient id="paint33_linear_384_5499" x1="27.2018" y1="-23.6841" x2="145.868" y2="157.684" gradientUnits="userSpaceOnUse">
<stop offset="0.167379" stop-color="#FF5C39"/>
<stop offset="0.381394" stop-color="#F4364C"/>
<stop offset="0.605463" stop-color="#C73ECC"/>
<stop offset="0.834442" stop-color="#0078D4"/>
</linearGradient>
<linearGradient id="paint34_linear_384_5499" x1="27.2018" y1="-23.6841" x2="145.868" y2="157.684" gradientUnits="userSpaceOnUse">
<stop offset="0.167379" stop-color="#FF5C39"/>
<stop offset="0.381394" stop-color="#F4364C"/>
<stop offset="0.605463" stop-color="#C73ECC"/>
<stop offset="0.834442" stop-color="#0078D4"/>
</linearGradient>
<linearGradient id="paint35_linear_384_5499" x1="27.2018" y1="-23.6841" x2="145.868" y2="157.684" gradientUnits="userSpaceOnUse">
<stop offset="0.167379" stop-color="#FF5C39"/>
<stop offset="0.381394" stop-color="#F4364C"/>
<stop offset="0.605463" stop-color="#C73ECC"/>
<stop offset="0.834442" stop-color="#0078D4"/>
</linearGradient>
<linearGradient id="paint36_linear_384_5499" x1="27.2018" y1="-23.6841" x2="145.868" y2="157.684" gradientUnits="userSpaceOnUse">
<stop offset="0.167379" stop-color="#FF5C39"/>
<stop offset="0.381394" stop-color="#F4364C"/>
<stop offset="0.605463" stop-color="#C73ECC"/>
<stop offset="0.834442" stop-color="#0078D4"/>
</linearGradient>
<linearGradient id="paint37_linear_384_5499" x1="27.2018" y1="-23.6841" x2="145.868" y2="157.684" gradientUnits="userSpaceOnUse">
<stop offset="0.167379" stop-color="#FF5C39"/>
<stop offset="0.381394" stop-color="#F4364C"/>
<stop offset="0.605463" stop-color="#C73ECC"/>
<stop offset="0.834442" stop-color="#0078D4"/>
</linearGradient>
<linearGradient id="paint38_linear_384_5499" x1="27.2018" y1="-23.6841" x2="145.868" y2="157.684" gradientUnits="userSpaceOnUse">
<stop offset="0.167379" stop-color="#FF5C39"/>
<stop offset="0.381394" stop-color="#F4364C"/>
<stop offset="0.605463" stop-color="#C73ECC"/>
<stop offset="0.834442" stop-color="#0078D4"/>
</linearGradient>
<linearGradient id="paint39_linear_384_5499" x1="27.2018" y1="-23.6841" x2="145.868" y2="157.684" gradientUnits="userSpaceOnUse">
<stop offset="0.167379" stop-color="#FF5C39"/>
<stop offset="0.381394" stop-color="#F4364C"/>
<stop offset="0.605463" stop-color="#C73ECC"/>
<stop offset="0.834442" stop-color="#0078D4"/>
</linearGradient>
<linearGradient id="paint40_linear_384_5499" x1="27.2018" y1="-23.6841" x2="145.868" y2="157.684" gradientUnits="userSpaceOnUse">
<stop offset="0.167379" stop-color="#FF5C39"/>
<stop offset="0.381394" stop-color="#F4364C"/>
<stop offset="0.605463" stop-color="#C73ECC"/>
<stop offset="0.834442" stop-color="#0078D4"/>
</linearGradient>
<linearGradient id="paint41_linear_384_5499" x1="27.2018" y1="-23.6841" x2="145.868" y2="157.684" gradientUnits="userSpaceOnUse">
<stop offset="0.167379" stop-color="#FF5C39"/>
<stop offset="0.381394" stop-color="#F4364C"/>
<stop offset="0.605463" stop-color="#C73ECC"/>
<stop offset="0.834442" stop-color="#0078D4"/>
</linearGradient>
<linearGradient id="paint42_linear_384_5499" x1="27.2018" y1="-23.6841" x2="145.868" y2="157.684" gradientUnits="userSpaceOnUse">
<stop offset="0.167379" stop-color="#FF5C39"/>
<stop offset="0.381394" stop-color="#F4364C"/>
<stop offset="0.605463" stop-color="#C73ECC"/>
<stop offset="0.834442" stop-color="#0078D4"/>
</linearGradient>
<linearGradient id="paint43_linear_384_5499" x1="27.2018" y1="-23.6841" x2="145.868" y2="157.684" gradientUnits="userSpaceOnUse">
<stop offset="0.167379" stop-color="#FF5C39"/>
<stop offset="0.381394" stop-color="#F4364C"/>
<stop offset="0.605463" stop-color="#C73ECC"/>
<stop offset="0.834442" stop-color="#0078D4"/>
</linearGradient>
<linearGradient id="paint44_linear_384_5499" x1="27.2018" y1="-23.6841" x2="145.868" y2="157.684" gradientUnits="userSpaceOnUse">
<stop offset="0.167379" stop-color="#FF5C39"/>
<stop offset="0.381394" stop-color="#F4364C"/>
<stop offset="0.605463" stop-color="#C73ECC"/>
<stop offset="0.834442" stop-color="#0078D4"/>
</linearGradient>
<linearGradient id="paint45_linear_384_5499" x1="27.2018" y1="-23.6841" x2="145.868" y2="157.684" gradientUnits="userSpaceOnUse">
<stop offset="0.167379" stop-color="#FF5C39"/>
<stop offset="0.381394" stop-color="#F4364C"/>
<stop offset="0.605463" stop-color="#C73ECC"/>
<stop offset="0.834442" stop-color="#0078D4"/>
</linearGradient>
<linearGradient id="paint46_linear_384_5499" x1="27.2018" y1="-23.6841" x2="145.868" y2="157.684" gradientUnits="userSpaceOnUse">
<stop offset="0.167379" stop-color="#FF5C39"/>
<stop offset="0.381394" stop-color="#F4364C"/>
<stop offset="0.605463" stop-color="#C73ECC"/>
<stop offset="0.834442" stop-color="#0078D4"/>
</linearGradient>
<linearGradient id="paint47_linear_384_5499" x1="27.2018" y1="-23.6841" x2="145.868" y2="157.684" gradientUnits="userSpaceOnUse">
<stop offset="0.167379" stop-color="#FF5C39"/>
<stop offset="0.381394" stop-color="#F4364C"/>
<stop offset="0.605463" stop-color="#C73ECC"/>
<stop offset="0.834442" stop-color="#0078D4"/>
</linearGradient>
<linearGradient id="paint48_linear_384_5499" x1="27.2018" y1="-23.6841" x2="145.868" y2="157.684" gradientUnits="userSpaceOnUse">
<stop offset="0.167379" stop-color="#FF5C39"/>
<stop offset="0.381394" stop-color="#F4364C"/>
<stop offset="0.605463" stop-color="#C73ECC"/>
<stop offset="0.834442" stop-color="#0078D4"/>
</linearGradient>
<linearGradient id="paint49_linear_384_5499" x1="27.329" y1="28.8868" x2="168.368" y2="235.908" gradientUnits="userSpaceOnUse">
<stop offset="0.167379" stop-color="#7B83EB"/>
<stop offset="0.381394" stop-color="#5059C9"/>
<stop offset="0.605463" stop-color="#3A41AC"/>
<stop offset="0.943285" stop-color="#282E86"/>
</linearGradient>
<linearGradient id="paint50_linear_384_5499" x1="45.4572" y1="67.2738" x2="113.99" y2="173.788" gradientUnits="userSpaceOnUse">
<stop offset="0.167379" stop-color="#7B83EB"/>
<stop offset="0.381394" stop-color="#5059C9"/>
<stop offset="0.605463" stop-color="#3A41AC"/>
<stop offset="0.943285" stop-color="#282E86"/>
</linearGradient>
<linearGradient id="paint51_linear_384_5499" x1="45.4572" y1="67.2738" x2="113.99" y2="173.788" gradientUnits="userSpaceOnUse">
<stop offset="0.167379" stop-color="#7B83EB"/>
<stop offset="0.381394" stop-color="#5059C9"/>
<stop offset="0.605463" stop-color="#3A41AC"/>
<stop offset="0.943285" stop-color="#282E86"/>
</linearGradient>
<linearGradient id="paint52_linear_384_5499" x1="45.4572" y1="67.2738" x2="113.99" y2="173.788" gradientUnits="userSpaceOnUse">
<stop offset="0.167379" stop-color="#7B83EB"/>
<stop offset="0.381394" stop-color="#5059C9"/>
<stop offset="0.605463" stop-color="#3A41AC"/>
<stop offset="0.943285" stop-color="#282E86"/>
</linearGradient>
<linearGradient id="paint53_linear_384_5499" x1="45.4572" y1="67.2738" x2="113.99" y2="173.788" gradientUnits="userSpaceOnUse">
<stop offset="0.167379" stop-color="#7B83EB"/>
<stop offset="0.381394" stop-color="#5059C9"/>
<stop offset="0.605463" stop-color="#3A41AC"/>
<stop offset="0.943285" stop-color="#282E86"/>
</linearGradient>
<linearGradient id="paint54_linear_384_5499" x1="45.4572" y1="67.2738" x2="113.99" y2="173.788" gradientUnits="userSpaceOnUse">
<stop offset="0.167379" stop-color="#7B83EB"/>
<stop offset="0.381394" stop-color="#5059C9"/>
<stop offset="0.605463" stop-color="#3A41AC"/>
<stop offset="0.943285" stop-color="#282E86"/>
</linearGradient>
<clipPath id="clip0_384_5499">
<rect width="180" height="190" fill="white"/>
</clipPath>
</defs>
</svg>
