<svg width="102" height="102" viewBox="0 0 102 102" fill="none" xmlns="http://www.w3.org/2000/svg">
<path d="M51 97.3516C25.4034 97.3516 4.64893 76.607 4.64893 51.0005C4.64893 25.394 25.4034 4.64941 51 4.64941C76.5966 4.64941 97.3511 25.4039 97.3511 51.0005C97.3511 76.5971 76.5966 97.3516 51 97.3516Z" fill="url(#paint0_linear_136_5240)"/>
<path fill-rule="evenodd" clip-rule="evenodd" d="M96.4501 51C96.4501 76.1015 76.1016 96.45 51.0001 96.45C25.8987 96.45 5.55013 76.1015 5.55013 51C5.55013 25.8985 25.8987 5.55002 51.0001 5.55002C76.1016 5.55002 96.4501 25.8985 96.4501 51ZM51.0001 1.84668C78.1513 1.84668 100.153 23.8488 100.153 51C100.153 78.1512 78.1414 100.153 51.0001 100.153C23.849 100.153 1.8468 78.1413 1.8468 51C1.8468 23.8488 23.849 1.84668 51.0001 1.84668Z" fill="#F2F1F0"/>
<path d="M51 5.77246C75.9747 5.77257 96.2266 26.0253 96.2266 51C96.2264 75.9746 75.9746 96.2264 51 96.2266C26.0253 96.2266 5.77257 75.9747 5.77246 51C5.77246 26.0252 26.0156 5.77246 51 5.77246ZM51 9.67285C28.1738 9.67285 9.67285 28.1738 9.67285 51C9.67296 73.8261 28.1739 92.3271 51 92.3271C73.826 92.327 92.327 73.826 92.3271 51C92.3271 28.1739 73.8261 9.67296 51 9.67285Z" fill="url(#paint1_linear_136_5240)" stroke="black" stroke-width="0.3" stroke-linejoin="round"/>
<path d="M51 4.47852C76.6892 4.47863 97.5205 25.3108 97.5205 51C97.5204 76.6891 76.6891 97.5204 51 97.5205C25.3108 97.5205 4.47863 76.6892 4.47852 51C4.47852 25.3107 25.3008 4.47852 51 4.47852ZM51 8.48242C27.5162 8.48242 8.48242 27.5162 8.48242 51C8.48254 74.4837 27.5162 93.5176 51 93.5176C74.4837 93.5175 93.5175 74.4837 93.5176 51C93.5176 27.5162 74.4837 8.48254 51 8.48242Z" fill="url(#paint2_linear_136_5240)" stroke="black" stroke-width="0.3" stroke-linejoin="round"/>
<g filter="url(#filter0_dddd_136_5240)">
<path fill-rule="evenodd" clip-rule="evenodd" d="M62.0598 22.7274C63.7013 22.7274 65.1583 23.9601 65.6809 25.7522C66.2034 27.5442 69.2651 38.6318 69.2651 38.6318V60.6594H58.1775L58.4019 22.6906H62.0598V22.7274Z" fill="url(#paint3_linear_136_5240)"/>
<path d="M78.3363 39.9389C78.3363 39.1551 77.703 38.5587 76.9561 38.5587H70.421C65.8285 38.5587 62.0938 42.2935 62.0938 46.8859V60.7H70.0091C74.6015 60.7 78.3363 56.9652 78.3363 52.3728V39.9389Z" fill="url(#paint4_linear_136_5240)"/>
<path fill-rule="evenodd" clip-rule="evenodd" d="M62.06 22.7267C60.7905 22.7267 59.7823 23.7349 59.7823 25.0044L59.5579 66.9325C59.5579 73.0557 54.5935 78.02 48.4703 78.02H28.3455C27.3741 78.02 26.7409 77.0856 27.0391 76.1911L43.1678 30.1563C44.7355 25.7145 48.916 22.7267 53.6222 22.7267H62.0969H62.06Z" fill="url(#paint5_linear_136_5240)"/>
</g>
<path d="M51 97.3516C25.4034 97.3516 4.64893 76.607 4.64893 51.0005C4.64893 25.394 25.4034 4.64941 51 4.64941C76.5966 4.64941 97.3511 25.4039 97.3511 51.0005C97.3511 76.5971 76.5966 97.3516 51 97.3516Z" fill="url(#paint6_linear_136_5240)"/>
<path fill-rule="evenodd" clip-rule="evenodd" d="M96.4501 51C96.4501 76.1015 76.1016 96.45 51.0001 96.45C25.8987 96.45 5.55013 76.1015 5.55013 51C5.55013 25.8985 25.8987 5.55002 51.0001 5.55002C76.1016 5.55002 96.4501 25.8985 96.4501 51ZM51.0001 1.84668C78.1513 1.84668 100.153 23.8488 100.153 51C100.153 78.1512 78.1414 100.153 51.0001 100.153C23.849 100.153 1.8468 78.1413 1.8468 51C1.8468 23.8488 23.849 1.84668 51.0001 1.84668Z" fill="#F2F1F0"/>
<path d="M51 5.77246C75.9747 5.77257 96.2266 26.0253 96.2266 51C96.2264 75.9746 75.9746 96.2264 51 96.2266C26.0253 96.2266 5.77257 75.9747 5.77246 51C5.77246 26.0252 26.0156 5.77246 51 5.77246ZM51 9.67285C28.1738 9.67285 9.67285 28.1738 9.67285 51C9.67296 73.8261 28.1739 92.3271 51 92.3271C73.826 92.327 92.327 73.826 92.3271 51C92.3271 28.1739 73.8261 9.67296 51 9.67285Z" fill="url(#paint7_linear_136_5240)" stroke="black" stroke-width="0.3" stroke-linejoin="round"/>
<path d="M51 4.47852C76.6892 4.47863 97.5205 25.3108 97.5205 51C97.5204 76.6891 76.6891 97.5204 51 97.5205C25.3108 97.5205 4.47863 76.6892 4.47852 51C4.47852 25.3107 25.3008 4.47852 51 4.47852ZM51 8.48242C27.5162 8.48242 8.48242 27.5162 8.48242 51C8.48254 74.4837 27.5162 93.5176 51 93.5176C74.4837 93.5175 93.5175 74.4837 93.5176 51C93.5176 27.5162 74.4837 8.48254 51 8.48242Z" fill="url(#paint8_linear_136_5240)" stroke="black" stroke-width="0.3" stroke-linejoin="round"/>
<g filter="url(#filter1_dddd_136_5240)">
<path fill-rule="evenodd" clip-rule="evenodd" d="M62.0598 22.7274C63.7013 22.7274 65.1583 23.9601 65.6809 25.7522C66.2034 27.5442 69.2651 38.6318 69.2651 38.6318V60.6594H58.1775L58.4019 22.6906H62.0598V22.7274Z" fill="url(#paint9_linear_136_5240)"/>
<path d="M78.3363 39.9389C78.3363 39.1551 77.703 38.5587 76.9561 38.5587H70.421C65.8285 38.5587 62.0938 42.2935 62.0938 46.8859V60.7H70.0091C74.6015 60.7 78.3363 56.9652 78.3363 52.3728V39.9389Z" fill="url(#paint10_linear_136_5240)"/>
<path fill-rule="evenodd" clip-rule="evenodd" d="M62.06 22.7267C60.7905 22.7267 59.7823 23.7349 59.7823 25.0044L59.5579 66.9325C59.5579 73.0557 54.5935 78.02 48.4703 78.02H28.3455C27.3741 78.02 26.7409 77.0856 27.0391 76.1911L43.1678 30.1563C44.7355 25.7145 48.916 22.7267 53.6222 22.7267H62.0969H62.06Z" fill="url(#paint11_linear_136_5240)"/>
</g>
<path d="M51 97.3516C25.4034 97.3516 4.64893 76.607 4.64893 51.0005C4.64893 25.394 25.4034 4.64941 51 4.64941C76.5966 4.64941 97.3511 25.4039 97.3511 51.0005C97.3511 76.5971 76.5966 97.3516 51 97.3516Z" fill="url(#paint12_linear_136_5240)"/>
<path fill-rule="evenodd" clip-rule="evenodd" d="M96.4501 51C96.4501 76.1015 76.1016 96.45 51.0001 96.45C25.8987 96.45 5.55013 76.1015 5.55013 51C5.55013 25.8985 25.8987 5.55002 51.0001 5.55002C76.1016 5.55002 96.4501 25.8985 96.4501 51ZM51.0001 1.84668C78.1513 1.84668 100.153 23.8488 100.153 51C100.153 78.1512 78.1414 100.153 51.0001 100.153C23.849 100.153 1.8468 78.1413 1.8468 51C1.8468 23.8488 23.849 1.84668 51.0001 1.84668Z" fill="#F2F1F0"/>
<path d="M51 5.77246C75.9747 5.77257 96.2266 26.0253 96.2266 51C96.2264 75.9746 75.9746 96.2264 51 96.2266C26.0253 96.2266 5.77257 75.9747 5.77246 51C5.77246 26.0252 26.0156 5.77246 51 5.77246ZM51 9.67285C28.1738 9.67285 9.67285 28.1738 9.67285 51C9.67296 73.8261 28.1739 92.3271 51 92.3271C73.826 92.327 92.327 73.826 92.3271 51C92.3271 28.1739 73.8261 9.67296 51 9.67285Z" fill="url(#paint13_linear_136_5240)" stroke="black" stroke-width="0.3"/>
<path d="M51 4.47852C76.6892 4.47863 97.5205 25.3108 97.5205 51C97.5204 76.6891 76.6891 97.5204 51 97.5205C25.3108 97.5205 4.47863 76.6892 4.47852 51C4.47852 25.3107 25.3008 4.47852 51 4.47852ZM51 8.48242C27.5162 8.48242 8.48242 27.5162 8.48242 51C8.48254 74.4837 27.5162 93.5176 51 93.5176C74.4837 93.5175 93.5175 74.4837 93.5176 51C93.5176 27.5162 74.4837 8.48254 51 8.48242Z" fill="url(#paint14_linear_136_5240)" stroke="black" stroke-width="0.3"/>
<path d="M47.0227 20.3203C47.2126 20.3393 47.3903 20.409 47.5432 20.5205L47.5491 20.5254L47.5559 20.5293L74.7942 36.252C75.2079 36.5219 75.561 36.8768 75.8333 37.2881L75.9456 37.4688C76.2306 37.9624 76.3937 38.5152 76.425 39.082V39.6855L76.3342 72.1201V72.1279L76.3352 72.1357C76.3543 72.3203 76.3256 72.5071 76.2502 72.6738C76.1753 72.8394 76.0563 72.9833 75.9065 73.0908L74.0891 74.0312C74.0867 73.9822 74.0824 73.933 74.0774 73.8867C74.0671 73.7909 74.056 73.7068 74.052 73.6309C74.0478 73.5498 74.0553 73.5135 74.0598 73.5039L74.0608 73.5C74.0835 73.4497 74.0808 73.4006 74.0745 73.3662C74.0679 73.3309 74.0552 73.2971 74.0413 73.2676C74.0132 73.2082 73.97 73.1423 73.9221 73.0771C73.8257 72.9459 73.6905 72.7904 73.5569 72.6396C73.4209 72.4862 73.2861 72.3376 73.1829 72.2129C73.1313 72.1507 73.0907 72.0974 73.0627 72.0557C73.0505 72.0374 73.0418 72.0232 73.0364 72.0127L73.0354 72.0029L68.6917 44.084L68.6897 44.0752L68.179 41.75L68.175 41.7285L68.1643 41.71L68.0461 41.5127C67.7592 41.066 67.3761 40.6869 66.925 40.4033L46.0334 22.7148L46.0286 22.71L46.0227 22.7061L45.8801 22.5752C45.822 22.5158 45.7459 22.4344 45.676 22.3643C45.604 22.2919 45.526 22.2179 45.4495 22.1602C45.3816 22.109 45.2935 22.0553 45.1995 22.043C45.205 22.0449 45.2003 22.0448 45.1848 22.0312C45.1653 22.0142 45.1402 21.9855 45.1096 21.9453C45.0483 21.8645 44.9822 21.7578 44.9104 21.6445C44.8461 21.5431 44.7748 21.4348 44.7063 21.3525L46.4749 20.4082C46.6442 20.33 46.8307 20.3011 47.0227 20.3203Z" fill="url(#paint15_linear_136_5240)" stroke="black" stroke-width="0.3"/>
<path d="M44.522 21.4209C44.7398 21.2977 45.0514 21.2877 45.4253 21.4609L45.5894 21.5469L72.8247 37.2646V37.2656C73.3013 37.5753 73.701 37.9931 73.9858 38.4863C74.2708 38.9799 74.434 39.5328 74.4653 40.0996V40.1016C74.4793 40.3046 74.4793 40.504 74.4653 40.707V40.7178L74.3784 73.1523C74.3784 73.6591 74.1985 73.9775 73.9507 74.1201C73.7025 74.2629 73.334 74.2588 72.8931 74.0068L54.5571 63.4297L49.2446 60.3633L45.6196 58.2695C45.1468 57.9608 44.7533 57.5419 44.4731 57.0508C44.1926 56.559 44.0294 56.0089 44.0005 55.4453L44.0942 23.0322V22.3838C44.0942 21.8789 44.2737 21.5613 44.522 21.4209Z" fill="#282828" stroke="black" stroke-width="0.3"/>
<path d="M49.2257 30.057C49.311 30.1132 49.3818 30.1887 49.4324 30.2774C49.4829 30.3662 49.5118 30.4656 49.5166 30.5676C49.5166 30.7543 49.3849 30.8311 49.2202 30.7378C49.1345 30.6816 49.063 30.6062 49.0116 30.5176C48.9601 30.4289 48.93 30.3295 48.9237 30.2272C48.9237 30.057 49.039 29.9857 49.2257 30.057Z" fill="url(#paint16_linear_136_5240)"/>
<path d="M51.2351 31.2319C51.3217 31.2871 51.3938 31.3623 51.4454 31.4511C51.497 31.54 51.5265 31.6399 51.5315 31.7425C51.5315 31.9237 51.3943 32.0005 51.2351 31.9072C51.149 31.8513 51.0774 31.776 51.0259 31.6873C50.9744 31.5986 50.9445 31.499 50.9386 31.3966C50.9276 31.2154 51.0594 31.1551 51.2351 31.2319Z" fill="url(#paint17_linear_136_5240)"/>
<path d="M53.228 32.3904C53.3142 32.4455 53.3858 32.5208 53.4365 32.6097C53.4872 32.6987 53.5154 32.7986 53.5189 32.9009C53.5189 33.0876 53.3927 33.1699 53.228 33.0711C53.1413 33.0159 53.0692 32.9408 53.0176 32.8519C52.966 32.7631 52.9365 32.6632 52.9315 32.5606C52.9315 32.3684 53.0633 32.297 53.228 32.3904Z" fill="url(#paint18_linear_136_5240)"/>
<path d="M55.2319 33.5487C55.3174 33.6034 55.3885 33.6778 55.4391 33.7657C55.4898 33.8536 55.5185 33.9525 55.5228 34.0539C55.5228 34.246 55.3911 34.3228 55.2264 34.2295C55.1412 34.1719 55.0706 34.0953 55.0202 34.0057C54.9697 33.9162 54.9406 33.8161 54.9354 33.7134C54.9354 33.5268 55.0781 33.4499 55.2319 33.5487Z" fill="url(#paint19_linear_136_5240)"/>
<path d="M57.2302 34.7017C57.316 34.7579 57.3874 34.8333 57.4389 34.9219C57.4903 35.0106 57.5204 35.11 57.5267 35.2123C57.5267 35.4044 57.3949 35.4813 57.2302 35.3825C57.1439 35.3269 57.072 35.2517 57.0205 35.1629C56.9689 35.0741 56.9392 34.9744 56.9338 34.8719C56.9338 34.6797 57.0655 34.6084 57.2302 34.7017Z" fill="url(#paint20_linear_136_5240)"/>
<path d="M59.2286 35.8546C59.3144 35.9108 59.3858 35.9862 59.4373 36.0748C59.4887 36.1634 59.5188 36.2629 59.5251 36.3652C59.5251 36.5573 59.3933 36.6342 59.2286 36.5354C59.1423 36.4798 59.0704 36.4046 59.0189 36.3158C58.9673 36.227 58.9376 36.1273 58.9322 36.0248C58.9212 35.8381 59.0639 35.7613 59.2286 35.8546Z" fill="url(#paint21_linear_136_5240)"/>
<path d="M61.2325 37.013C61.3192 37.0682 61.3913 37.1434 61.4429 37.2322C61.4945 37.3211 61.524 37.421 61.529 37.5236C61.529 37.7103 61.3917 37.7871 61.227 37.6938C61.1429 37.6364 61.073 37.5606 61.0226 37.4721C60.9722 37.3836 60.9425 37.2848 60.9361 37.1832C60.9361 36.9911 61.0678 36.9197 61.2325 37.013Z" fill="url(#paint22_linear_136_5240)"/>
<path d="M63.2364 38.1714C63.3231 38.2266 63.3952 38.3018 63.4468 38.3906C63.4984 38.4795 63.5279 38.5794 63.5329 38.682C63.5329 38.8687 63.3956 38.9455 63.2309 38.8522C63.1449 38.7955 63.0736 38.7191 63.023 38.6294C62.9724 38.5396 62.9439 38.4391 62.94 38.3361C62.94 38.1495 63.0717 38.0781 63.2364 38.1714Z" fill="url(#paint23_linear_136_5240)"/>
<path d="M65.2403 39.3298C65.3258 39.3845 65.3969 39.4589 65.4476 39.5468C65.4982 39.6347 65.5269 39.7335 65.5313 39.8349C65.5313 40.0271 65.3995 40.1039 65.2403 40.0106C65.1539 39.9539 65.082 39.8776 65.0305 39.7879C64.979 39.6983 64.9493 39.5978 64.9438 39.4945C64.9603 39.3024 65.0756 39.231 65.2403 39.3298Z" fill="url(#paint24_linear_136_5240)"/>
<path d="M67.2387 40.4882C67.3233 40.5438 67.3937 40.6185 67.4442 40.7062C67.4947 40.7939 67.524 40.8922 67.5297 40.9933C67.5297 41.1855 67.3979 41.2623 67.2387 41.169C67.1518 41.1123 67.0793 41.0361 67.0269 40.9465C66.9745 40.857 66.9436 40.7565 66.9367 40.6529C66.9422 40.4882 67.074 40.3839 67.2387 40.4882Z" fill="url(#paint25_linear_136_5240)"/>
<path d="M69.2371 41.6357C69.3237 41.6909 69.3959 41.766 69.4475 41.8549C69.499 41.9437 69.5286 42.0436 69.5336 42.1463C69.5404 42.1831 69.5356 42.2212 69.5199 42.2553C69.5041 42.2893 69.4782 42.3177 69.4456 42.3364C69.4131 42.355 69.3755 42.3632 69.3382 42.3596C69.3008 42.356 69.2655 42.341 69.2371 42.3164C69.1497 42.2607 69.0771 42.1847 69.0255 42.0948C68.9739 42.005 68.9447 41.9039 68.9406 41.8004C68.9406 41.6137 69.0724 41.5423 69.2371 41.6357Z" fill="url(#paint26_linear_136_5240)"/>
<path d="M67.2277 45.0835C67.3126 45.1387 67.3832 45.2133 67.4338 45.3011C67.4844 45.3889 67.5134 45.4874 67.5187 45.5885C67.5187 45.7807 67.3869 45.8521 67.2222 45.7642C67.1355 45.7078 67.0634 45.6316 67.0118 45.5419C66.9603 45.4522 66.9308 45.3515 66.9258 45.2481C66.9258 45.0615 67.063 44.9846 67.2277 45.0835Z" fill="url(#paint27_linear_136_5240)"/>
<path d="M69.2261 46.2363C69.3116 46.2928 69.3828 46.3683 69.4342 46.4569C69.4856 46.5455 69.5159 46.6448 69.5226 46.747C69.5226 46.9336 69.3853 47.0105 69.2261 46.9172C69.1387 46.8614 69.0661 46.7854 69.0145 46.6955C68.9629 46.6057 68.9338 46.5046 68.9296 46.4011C68.9296 46.2199 69.0614 46.143 69.2261 46.2363Z" fill="url(#paint28_linear_136_5240)"/>
<path d="M67.2332 42.7831C67.3178 42.8387 67.3882 42.9134 67.4387 43.0011C67.4893 43.0888 67.5185 43.1871 67.5242 43.2882C67.5242 43.4803 67.3924 43.5572 67.2277 43.4639C67.1419 43.4065 67.0705 43.3301 67.019 43.2406C66.9676 43.151 66.9376 43.0508 66.9313 42.9478C66.9313 42.7611 67.0685 42.6843 67.2332 42.7831Z" fill="url(#paint29_linear_136_5240)"/>
<path d="M69.2316 43.936C69.318 43.9916 69.3898 44.0668 69.4414 44.1556C69.4929 44.2444 69.5226 44.3441 69.5281 44.4466C69.5349 44.4835 69.5301 44.5216 69.5144 44.5556C69.4986 44.5897 69.4727 44.618 69.4401 44.6367C69.4076 44.6554 69.37 44.6635 69.3327 44.6599C69.2953 44.6564 69.26 44.6413 69.2316 44.6168C69.1449 44.5604 69.0727 44.4842 69.0212 44.3945C68.9696 44.3048 68.9402 44.2041 68.9351 44.1007C68.9351 43.9196 69.0669 43.8427 69.2316 43.936Z" fill="url(#paint30_linear_136_5240)"/>
<path d="M67.2167 47.3783C67.3031 47.4338 67.375 47.5091 67.4265 47.5979C67.4781 47.6866 67.5078 47.7864 67.5132 47.8889C67.5132 48.081 67.3759 48.1524 67.2167 48.0591C67.1288 48.0053 67.0556 47.9305 67.0039 47.8413C66.9521 47.7522 66.9234 47.6515 66.9203 47.5485C66.9203 47.3618 67.052 47.285 67.2167 47.3783Z" fill="url(#paint31_linear_136_5240)"/>
<path d="M69.2206 48.5367C69.3053 48.5935 69.3757 48.6692 69.4262 48.7578C69.4767 48.8464 69.5059 48.9455 69.5116 49.0473C69.5116 49.234 69.3798 49.3109 69.2206 49.2175C69.1335 49.1611 69.0608 49.085 69.0083 48.9954C68.9559 48.9057 68.9252 48.8051 68.9187 48.7015C68.9242 48.5148 69.0559 48.4434 69.2206 48.5367Z" fill="url(#paint32_linear_136_5240)"/>
<path d="M67.2112 49.6787C67.298 49.7351 67.3701 49.8113 67.4217 49.901C67.4732 49.9907 67.5027 50.0914 67.5077 50.1947C67.5077 50.3759 67.3704 50.4528 67.2112 50.3594C67.1233 50.3057 67.0501 50.2308 66.9984 50.1417C66.9466 50.0525 66.9179 49.9519 66.9148 49.8489C66.9148 49.6622 67.0465 49.5853 67.2112 49.6787Z" fill="url(#paint33_linear_136_5240)"/>
<path d="M69.2151 50.8371C69.2998 50.8938 69.3702 50.9695 69.4207 51.0581C69.4712 51.1467 69.5005 51.2458 69.5061 51.3477C69.5061 51.5343 69.3743 51.6112 69.2096 51.5179C69.1242 51.4614 69.053 51.3859 69.0016 51.2973C68.9502 51.2087 68.9199 51.1094 68.9132 51.0072C68.9132 50.8151 69.0504 50.7437 69.2151 50.8371Z" fill="url(#paint34_linear_136_5240)"/>
<path d="M67.2058 51.979C67.2924 52.0338 67.3642 52.109 67.4149 52.1981C67.4656 52.2871 67.4937 52.3872 67.4967 52.4896C67.4967 52.6763 67.365 52.7476 67.2058 52.6598C67.1188 52.605 67.0464 52.5299 66.9948 52.441C66.9431 52.352 66.9138 52.2519 66.9093 52.1492C66.9093 51.9571 67.0411 51.8802 67.2058 51.979Z" fill="url(#paint35_linear_136_5240)"/>
<path d="M69.2096 53.1154C69.2943 53.1722 69.3647 53.2479 69.4152 53.3365C69.4657 53.4251 69.495 53.5242 69.5006 53.626C69.5006 53.8127 69.3688 53.8895 69.2041 53.7962C69.1175 53.741 69.0454 53.6658 68.9938 53.577C68.9422 53.4881 68.9127 53.3882 68.9077 53.2856C68.9077 53.1154 69.0449 53.0386 69.2096 53.1154Z" fill="url(#paint36_linear_136_5240)"/>
<path d="M67.2003 54.2739C67.2857 54.3312 67.3565 54.4078 67.407 54.4974C67.4576 54.587 67.4864 54.6872 67.4912 54.7899C67.4912 54.9766 67.3595 55.048 67.1948 54.9546C67.1084 54.8991 67.0365 54.8239 66.985 54.7351C66.9334 54.6463 66.9038 54.5466 66.8983 54.4441C66.8983 54.2574 67.0356 54.1805 67.2003 54.2739Z" fill="url(#paint37_linear_136_5240)"/>
<path d="M69.1987 55.4323C69.285 55.4878 69.3569 55.5631 69.4084 55.6518C69.46 55.7406 69.4897 55.8404 69.4951 55.9429C69.502 55.9798 69.4972 56.0178 69.4814 56.0519C69.4657 56.086 69.4397 56.1143 69.4072 56.133C69.3746 56.1516 69.3371 56.1598 69.2997 56.1562C69.2624 56.1526 69.2271 56.1376 69.1987 56.1131C69.112 56.0579 69.0399 55.9827 68.9883 55.8938C68.9367 55.805 68.9072 55.7051 68.9022 55.6025C68.9022 55.4103 69.0339 55.3389 69.1987 55.4323Z" fill="url(#paint38_linear_136_5240)"/>
<path d="M67.1838 58.8856C67.27 58.9399 67.3419 59.0141 67.3935 59.102C67.4451 59.1899 67.4749 59.2889 67.4803 59.3907C67.4803 59.5828 67.343 59.6542 67.1838 59.5608C67.0965 59.5063 67.0239 59.4313 66.9722 59.3423C66.9205 59.2533 66.8914 59.1531 66.8873 59.0503C66.8873 58.8636 67.0191 58.7868 67.1838 58.8856Z" fill="url(#paint39_linear_136_5240)"/>
<path d="M69.1877 60.0385C69.2736 60.0939 69.3449 60.1693 69.3956 60.2582C69.4462 60.3471 69.4747 60.4468 69.4787 60.549C69.4787 60.7357 69.3469 60.8071 69.1877 60.7138C69.1008 60.6601 69.0284 60.5861 68.9767 60.498C68.925 60.41 68.8957 60.3106 68.8912 60.2087C68.8912 60.0165 69.023 59.9451 69.1877 60.0385Z" fill="url(#paint40_linear_136_5240)"/>
<path d="M67.1948 56.5797C67.2795 56.6365 67.3499 56.7121 67.4004 56.8007C67.4509 56.8893 67.4801 56.9884 67.4857 57.0903C67.4857 57.2824 67.354 57.3538 67.1893 57.2605C67.1033 57.2046 67.0316 57.1293 66.9801 57.0406C66.9286 56.9519 66.8987 56.8523 66.8928 56.7499C66.8928 56.5632 67.0301 56.4864 67.1948 56.5797Z" fill="url(#paint41_linear_136_5240)"/>
<path d="M69.1932 57.7382C69.2798 57.7933 69.352 57.8685 69.4036 57.9574C69.4551 58.0462 69.4847 58.1461 69.4896 58.2487C69.4965 58.2856 69.4917 58.3237 69.4759 58.3578C69.4602 58.3919 69.4343 58.4202 69.4017 58.4389C69.3692 58.4575 69.3316 58.4656 69.2943 58.4621C69.2569 58.4585 69.2216 58.4434 69.1932 58.4189C69.1075 58.3627 69.036 58.2873 68.9846 58.1987C68.9331 58.1101 68.903 58.0106 68.8967 57.9083C68.8967 57.7162 69.0285 57.6393 69.1932 57.7382Z" fill="url(#paint42_linear_136_5240)"/>
<path d="M67.1563 61.1804C67.243 61.2356 67.3151 61.3108 67.3667 61.3996C67.4183 61.4885 67.4478 61.5884 67.4528 61.691C67.4528 61.8776 67.3156 61.949 67.1563 61.8557C67.0691 61.8012 66.9964 61.7262 66.9448 61.6372C66.8931 61.5482 66.864 61.4479 66.8599 61.3451C66.8819 61.1584 67.0136 61.0871 67.1563 61.1804Z" fill="url(#paint43_linear_136_5240)"/>
<path d="M69.1822 62.3334C69.2669 62.3901 69.3373 62.4658 69.3878 62.5544C69.4383 62.643 69.4675 62.7421 69.4732 62.8439C69.4732 63.0306 69.3414 63.1075 69.1767 63.0142C69.0913 62.9577 69.0201 62.8822 68.9686 62.7936C68.9172 62.705 68.887 62.6058 68.8802 62.5036C68.8802 62.3114 69.0175 62.24 69.1822 62.3334Z" fill="url(#paint44_linear_136_5240)"/>
<path d="M67.1563 63.4808C67.2419 63.5354 67.3129 63.6098 67.3636 63.6977C67.4143 63.7856 67.443 63.8845 67.4473 63.9859C67.4473 64.178 67.3156 64.2549 67.1563 64.1615C67.0686 64.1062 66.9958 64.0302 66.9441 63.9403C66.8925 63.8503 66.8635 63.7491 66.8599 63.6455C66.8764 63.4588 67.0081 63.3875 67.1563 63.4808Z" fill="url(#paint45_linear_136_5240)"/>
<path d="M69.1767 64.6446C69.262 64.7008 69.3328 64.7763 69.3834 64.865C69.434 64.9538 69.4629 65.0532 69.4677 65.1552C69.4677 65.3419 69.3359 65.4187 69.1712 65.3254C69.0842 65.2706 69.0119 65.1955 68.9602 65.1066C68.9086 65.0177 68.8793 64.9176 68.8748 64.8148C68.8748 64.6117 69.012 64.5403 69.1767 64.6446Z" fill="url(#paint46_linear_136_5240)"/>
<path d="M37.6035 25.2775C37.7934 25.2965 37.9711 25.3662 38.124 25.4777L38.1299 25.4825L38.1367 25.4865L65.375 41.2091C65.7887 41.4791 66.1418 41.8339 66.4141 42.2452L66.5264 42.4259C66.8114 42.9195 66.9745 43.4723 67.0059 44.0392V44.6427L66.915 77.0773V77.0851L66.916 77.0929C66.9351 77.2774 66.9065 77.4643 66.8311 77.631C66.7561 77.7966 66.6371 77.9405 66.4873 78.048L64.6699 78.9884C64.6675 78.9394 64.6632 78.8901 64.6582 78.8439C64.6479 78.7481 64.6368 78.664 64.6328 78.588C64.6286 78.5069 64.6362 78.4707 64.6406 78.4611L64.6416 78.4572C64.6814 78.369 64.6495 78.2822 64.627 78.2355C64.6007 78.1812 64.5604 78.1256 64.5176 78.0734C64.4311 77.9677 64.3094 77.8473 64.1914 77.7325C64.0704 77.6149 63.9529 77.5023 63.8623 77.4054C63.8171 77.3571 63.782 77.3167 63.7588 77.2843C63.7514 77.274 63.7447 77.2668 63.7412 77.2609L63.7393 77.2472L59.2725 49.0411L59.2705 49.0323L58.7598 46.7072L58.7559 46.6857L58.7451 46.6671L58.627 46.4698C58.34 46.0232 57.957 45.644 57.5059 45.3605L36.6143 27.672L36.6094 27.6671L36.6035 27.6632L36.4609 27.5323C36.4028 27.4729 36.3267 27.3916 36.2568 27.3214C36.1848 27.249 36.1068 27.1751 36.0303 27.1173C35.9624 27.0661 35.8743 27.0125 35.7803 27.0001C35.7858 27.0021 35.7811 27.0019 35.7656 26.9884C35.7462 26.9714 35.721 26.9426 35.6904 26.9025C35.6291 26.8217 35.563 26.7149 35.4912 26.6017C35.4269 26.5002 35.3557 26.392 35.2871 26.3097L37.0557 25.3654C37.225 25.2872 37.4115 25.2583 37.6035 25.2775Z" fill="url(#paint47_linear_136_5240)" stroke="black" stroke-width="0.3"/>
<g filter="url(#filter2_d_136_5240)">
<path d="M34.5258 27.989V27.3409C34.5258 26.2654 35.2971 25.8236 36.2458 26.374L63.4877 42.097C63.9838 42.4193 64.4003 42.8539 64.6972 43.3681C64.9941 43.8823 65.1643 44.458 65.1969 45.0483C65.2114 45.2583 65.2114 45.4647 65.1969 45.6747L65.11 78.1093C65.11 79.1884 64.3387 79.6302 63.4008 79.0943L45.0633 68.5169L39.7511 65.4498L36.1263 63.3568C35.6302 63.0345 35.2174 62.5964 34.9241 62.0821C34.6308 61.5679 34.4606 60.9922 34.4316 60.4019L34.5258 27.989Z" fill="#8F8F8F"/>
<path d="M35.1035 26.3779C35.3213 26.2548 35.6329 26.2448 36.0068 26.418L36.1709 26.5039L63.4062 42.2217V42.2227C63.8829 42.5323 64.2825 42.9501 64.5674 43.4434C64.8524 43.937 65.0156 44.4898 65.0469 45.0566V45.0586C65.0609 45.2616 65.0609 45.461 65.0469 45.6641V45.6748L64.96 78.1094C64.96 78.6161 64.7801 78.9346 64.5322 79.0771C64.284 79.2199 63.9155 79.2158 63.4746 78.9639L45.1387 68.3867L39.8262 65.3203L36.2012 63.2266C35.7283 62.9178 35.3348 62.4989 35.0547 62.0078C34.7741 61.516 34.6109 60.9659 34.582 60.4023L34.6758 27.9893V27.3408C34.6758 26.8359 34.8553 26.5184 35.1035 26.3779Z" stroke="black" stroke-width="0.3"/>
</g>
<path d="M39.679 34.0756C39.7683 34.1344 39.8424 34.2134 39.8953 34.3063C39.9482 34.3991 39.9784 34.5032 39.9835 34.6099C39.9835 34.8052 39.8456 34.8857 39.6733 34.788C39.5836 34.7292 39.5088 34.6503 39.455 34.5576C39.4011 34.4648 39.3696 34.3608 39.363 34.2537C39.363 34.0756 39.4837 34.001 39.679 34.0756Z" fill="url(#paint48_linear_136_5240)"/>
<path d="M41.7816 35.305C41.8723 35.3628 41.9477 35.4414 42.0017 35.5344C42.0557 35.6274 42.0866 35.7319 42.0918 35.8393C42.0918 36.0289 41.9482 36.1093 41.7816 36.0116C41.6916 35.9532 41.6166 35.8744 41.5627 35.7816C41.5088 35.6887 41.4775 35.5845 41.4714 35.4774C41.4599 35.2878 41.5978 35.2246 41.7816 35.305Z" fill="url(#paint49_linear_136_5240)"/>
<path d="M43.867 36.5172C43.9572 36.5749 44.0321 36.6537 44.0852 36.7468C44.1382 36.8399 44.1678 36.9444 44.1714 37.0515C44.1714 37.2468 44.0393 37.333 43.867 37.2296C43.7763 37.1718 43.7008 37.0931 43.6468 37.0002C43.5928 36.9072 43.562 36.8027 43.5567 36.6953C43.5567 36.4942 43.6946 36.4196 43.867 36.5172Z" fill="url(#paint50_linear_136_5240)"/>
<path d="M45.9638 37.7293C46.0533 37.7865 46.1277 37.8644 46.1807 37.9564C46.2337 38.0484 46.2637 38.1518 46.2683 38.2579C46.2683 38.459 46.1304 38.5393 45.9581 38.4417C45.869 38.3814 45.7951 38.3012 45.7423 38.2075C45.6895 38.1138 45.6591 38.0091 45.6536 37.9017C45.6536 37.7064 45.803 37.6259 45.9638 37.7293Z" fill="url(#paint51_linear_136_5240)"/>
<path d="M48.0549 38.9358C48.1446 38.9946 48.2193 39.0735 48.2732 39.1662C48.3271 39.259 48.3586 39.363 48.3651 39.47C48.3651 39.6711 48.2272 39.7515 48.0549 39.6481C47.9646 39.59 47.8893 39.5113 47.8354 39.4184C47.7815 39.3255 47.7504 39.2211 47.7447 39.1139C47.7447 38.9128 47.8826 38.8381 48.0549 38.9358Z" fill="url(#paint52_linear_136_5240)"/>
<path d="M50.146 40.1422C50.2357 40.2009 50.3105 40.2798 50.3643 40.3726C50.4182 40.4653 50.4496 40.5694 50.4562 40.6764C50.4562 40.8775 50.3183 40.9579 50.146 40.8545C50.0557 40.7964 49.9804 40.7177 49.9265 40.6248C49.8726 40.5319 49.8415 40.4275 49.8358 40.3202C49.8243 40.1249 49.9737 40.0445 50.146 40.1422Z" fill="url(#paint53_linear_136_5240)"/>
<path d="M39.6733 36.5057C39.7619 36.5651 39.8355 36.6443 39.8884 36.737C39.9412 36.8297 39.9718 36.9334 39.9777 37.04C39.9777 37.2353 39.8399 37.3157 39.6675 37.218C39.5772 37.1599 39.5019 37.0812 39.448 36.9883C39.394 36.8954 39.363 36.791 39.3573 36.6838C39.3573 36.4885 39.4837 36.408 39.6733 36.5057Z" fill="url(#paint54_linear_136_5240)"/>
<path d="M41.7356 37.6432C41.8266 37.7006 41.9024 37.7791 41.9564 37.8722C42.0104 37.9652 42.0411 38.07 42.0459 38.1774C42.0459 38.367 41.908 38.4532 41.7356 38.3555C41.6453 38.2974 41.5701 38.2187 41.5161 38.1258C41.4622 38.0329 41.4311 37.9285 41.4254 37.8213C41.4254 37.6259 41.5633 37.5225 41.7356 37.6432Z" fill="url(#paint55_linear_136_5240)"/>
<path d="M43.8612 38.9243C43.9502 38.9833 44.024 39.0624 44.0769 39.1552C44.1298 39.248 44.1602 39.3519 44.1657 39.4585C44.1657 39.6538 44.0278 39.74 43.8555 39.6366C43.7651 39.5785 43.6899 39.4998 43.636 39.4069C43.582 39.314 43.5509 39.2096 43.5452 39.1024C43.5452 38.907 43.6889 38.8266 43.8612 38.9243Z" fill="url(#paint56_linear_136_5240)"/>
<path d="M45.9523 40.1364C46.0419 40.1939 46.1167 40.2718 46.1706 40.3636C46.2244 40.4554 46.256 40.5586 46.2625 40.6649C46.2625 40.866 46.1247 40.9464 45.9523 40.8488C45.8616 40.7902 45.7865 40.7104 45.7335 40.6163C45.6804 40.5222 45.651 40.4167 45.6478 40.3087C45.6478 40.1192 45.803 40.033 45.9523 40.1364Z" fill="url(#paint57_linear_136_5240)"/>
<path d="M48.0491 41.3428C48.1389 41.4016 48.2136 41.4805 48.2675 41.5733C48.3213 41.666 48.3528 41.7701 48.3594 41.8771C48.3594 42.0782 48.2215 42.1586 48.0491 42.0552C47.9588 41.9971 47.8836 41.9183 47.8297 41.8254C47.7757 41.7326 47.7446 41.6282 47.7389 41.5209C47.7389 41.3256 47.8768 41.2452 48.0491 41.3428Z" fill="url(#paint58_linear_136_5240)"/>
<path d="M50.1403 42.5492C50.2296 42.6083 50.3042 42.6873 50.358 42.78C50.4118 42.8727 50.4435 42.9766 50.4505 43.0835C50.4505 43.2846 50.3068 43.365 50.1345 43.2616C50.0449 43.2032 49.9706 43.1242 49.9176 43.0313C49.8646 42.9384 49.8346 42.8342 49.83 42.7273C49.8243 42.532 49.9679 42.4516 50.1403 42.5492Z" fill="url(#paint59_linear_136_5240)"/>
<path d="M52.2429 41.3543C52.3335 41.4121 52.409 41.4907 52.463 41.5837C52.517 41.6767 52.5479 41.7812 52.5531 41.8886C52.5531 42.0839 52.4095 42.1643 52.2371 42.0667C52.1491 42.0066 52.0759 41.9273 52.0232 41.8347C51.9704 41.7422 51.9394 41.6388 51.9326 41.5324C51.9326 41.3313 52.0705 41.2567 52.2429 41.3543Z" fill="url(#paint60_linear_136_5240)"/>
<path d="M54.3397 42.5665C54.4304 42.6242 54.5059 42.7029 54.5598 42.7958C54.6138 42.8888 54.6447 42.9934 54.65 43.1007C54.65 43.2961 54.5063 43.3765 54.334 43.2788C54.2439 43.2195 54.1693 43.1396 54.1164 43.0457C54.0634 42.9517 54.0337 42.8466 54.0295 42.7388C54.0295 42.5435 54.1674 42.4688 54.3397 42.5665Z" fill="url(#paint61_linear_136_5240)"/>
<path d="M56.4366 43.7786C56.5261 43.8358 56.6004 43.9136 56.6534 44.0056C56.7064 44.0976 56.7365 44.2011 56.741 44.3071C56.741 44.5082 56.6032 44.5886 56.4366 44.491C56.3461 44.4316 56.2709 44.3518 56.217 44.258C56.1631 44.1642 56.132 44.059 56.1263 43.951C56.1436 43.7499 56.2642 43.6752 56.4366 43.7786Z" fill="url(#paint62_linear_136_5240)"/>
<path d="M58.5277 44.9908C58.6162 45.049 58.6898 45.1271 58.7427 45.2189C58.7956 45.3106 58.8262 45.4135 58.8321 45.5193C58.8321 45.7204 58.6943 45.8008 58.5277 45.7031C58.4368 45.6437 58.3609 45.564 58.3061 45.4703C58.2513 45.3766 58.2189 45.2714 58.2117 45.1631C58.2174 44.9908 58.3553 44.8816 58.5277 44.9908Z" fill="url(#paint63_linear_136_5240)"/>
<path d="M60.6188 46.1914C60.7094 46.2492 60.7849 46.3278 60.8389 46.4208C60.8929 46.5138 60.9238 46.6183 60.929 46.7257C60.9362 46.7643 60.9312 46.8042 60.9147 46.8398C60.8982 46.8754 60.871 46.9051 60.837 46.9246C60.8029 46.9442 60.7636 46.9527 60.7246 46.949C60.6855 46.9452 60.6485 46.9294 60.6188 46.9038C60.5273 46.8455 60.4514 46.7659 60.3973 46.6719C60.3433 46.5778 60.3129 46.4721 60.3086 46.3638C60.3086 46.1685 60.4464 46.0938 60.6188 46.1914Z" fill="url(#paint64_linear_136_5240)"/>
<path d="M58.5162 49.7992C58.605 49.857 58.6789 49.935 58.7318 50.0269C58.7847 50.1188 58.8152 50.2218 58.8206 50.3277C58.8206 50.5287 58.6828 50.6034 58.5104 50.5115C58.4197 50.4525 58.3442 50.3728 58.2903 50.2789C58.2363 50.185 58.2055 50.0796 58.2002 49.9715C58.2002 49.7762 58.3438 49.6958 58.5162 49.7992Z" fill="url(#paint65_linear_136_5240)"/>
<path d="M60.6073 51.0055C60.6967 51.0647 60.7712 51.1437 60.825 51.2363C60.8788 51.329 60.9105 51.4329 60.9175 51.5398C60.9175 51.7352 60.7739 51.8156 60.6073 51.7179C60.5159 51.6596 60.4399 51.5801 60.3859 51.486C60.3319 51.392 60.3014 51.2863 60.2971 51.1779C60.2971 50.9883 60.435 50.9079 60.6073 51.0055Z" fill="url(#paint66_linear_136_5240)"/>
<path d="M52.2314 43.7614C52.3224 43.8188 52.3981 43.8974 52.4521 43.9904C52.5062 44.0834 52.5368 44.1882 52.5416 44.2956C52.5416 44.491 52.4037 44.5714 52.2314 44.4737C52.1413 44.4144 52.0668 44.3345 52.0138 44.2406C51.9609 44.1467 51.931 44.0414 51.9269 43.9337C51.9269 43.7441 52.0648 43.6637 52.2314 43.7614Z" fill="url(#paint67_linear_136_5240)"/>
<path d="M54.334 44.9908C54.4243 45.0489 54.4996 45.1276 54.5535 45.2205C54.6074 45.3134 54.6385 45.4178 54.6442 45.525C54.6442 45.7204 54.5006 45.8008 54.3282 45.7031C54.2385 45.6435 54.1642 45.5635 54.1113 45.4696C54.0584 45.3758 54.0284 45.2708 54.0238 45.1631C54.0238 44.9563 54.1616 44.8759 54.334 44.9908Z" fill="url(#paint68_linear_136_5240)"/>
<path d="M56.4308 46.1857C56.5197 46.2436 56.5935 46.3216 56.6465 46.4135C56.6994 46.5053 56.7298 46.6084 56.7353 46.7142C56.7353 46.9153 56.5974 46.99 56.4251 46.8923C56.3346 46.833 56.2594 46.7532 56.2055 46.6594C56.1516 46.5655 56.1206 46.4603 56.1149 46.3523C56.1436 46.1398 56.2585 46.0823 56.4308 46.1857Z" fill="url(#paint69_linear_136_5240)"/>
<path d="M58.5219 47.3921C58.6105 47.4503 58.6841 47.5284 58.737 47.6202C58.7899 47.712 58.8205 47.8148 58.8264 47.9206C58.8264 48.1217 58.6885 48.2021 58.5162 48.1044C58.4264 48.0444 58.3516 47.9645 58.2978 47.8708C58.244 47.7771 58.2126 47.6723 58.206 47.5644C58.206 47.3691 58.3496 47.2887 58.5219 47.3921Z" fill="url(#paint70_linear_136_5240)"/>
<path d="M60.6131 48.5985C60.7034 48.6566 60.7786 48.7354 60.8326 48.8283C60.8865 48.9211 60.9176 49.0255 60.9233 49.1328C60.9304 49.1714 60.9254 49.2112 60.9089 49.2469C60.8924 49.2825 60.8653 49.3121 60.8312 49.3317C60.7972 49.3512 60.7579 49.3597 60.7188 49.356C60.6797 49.3523 60.6428 49.3365 60.6131 49.3109C60.5223 49.2519 60.4468 49.1721 60.3929 49.0782C60.3389 48.9843 60.3081 48.879 60.3028 48.7709C60.3028 48.5813 60.4407 48.5009 60.6131 48.5985Z" fill="url(#paint71_linear_136_5240)"/>
<path d="M58.5047 52.2005C58.595 52.2586 58.6703 52.3373 58.7242 52.4302C58.7782 52.5231 58.8092 52.6275 58.8149 52.7347C58.8149 52.9358 58.6713 53.0105 58.5047 52.9128C58.4127 52.8566 58.3361 52.7783 58.282 52.685C58.2278 52.5917 58.1977 52.4864 58.1945 52.3786C58.1945 52.1832 58.3323 52.1028 58.5047 52.2005Z" fill="url(#paint72_linear_136_5240)"/>
<path d="M60.6016 53.4127C60.6902 53.4721 60.7638 53.5513 60.8167 53.644C60.8695 53.7367 60.9001 53.8404 60.906 53.9469C60.906 54.1423 60.7682 54.2227 60.6016 54.125C60.5103 54.066 60.4343 53.9863 60.3794 53.8926C60.3245 53.7988 60.2924 53.6935 60.2856 53.585C60.2913 53.3897 60.4292 53.315 60.6016 53.4127Z" fill="url(#paint73_linear_136_5240)"/>
<path d="M58.4989 54.6076C58.5897 54.6666 58.6652 54.7463 58.7191 54.8402C58.7731 54.9341 58.8039 55.0394 58.8092 55.1476C58.8092 55.3371 58.6655 55.4176 58.4989 55.3199C58.4069 55.2636 58.3304 55.1853 58.2762 55.0921C58.2221 54.9988 58.192 54.8935 58.1887 54.7856C58.1887 54.5903 58.3266 54.5099 58.4989 54.6076Z" fill="url(#paint74_linear_136_5240)"/>
<path d="M60.5958 55.8197C60.6844 55.8791 60.7581 55.9583 60.8109 56.051C60.8638 56.1437 60.8944 56.2474 60.9003 56.354C60.9003 56.5493 60.7624 56.6297 60.5901 56.5321C60.5007 56.473 60.4262 56.394 60.3723 56.3013C60.3185 56.2086 60.2869 56.1047 60.2798 55.9978C60.2798 55.7967 60.4235 55.722 60.5958 55.8197Z" fill="url(#paint75_linear_136_5240)"/>
<path d="M58.4932 57.0147C58.5838 57.072 58.659 57.1507 58.7121 57.2438C58.7651 57.337 58.7945 57.4417 58.7977 57.5489C58.7977 57.7442 58.6598 57.8189 58.4932 57.727C58.4022 57.6696 58.3265 57.591 58.2724 57.498C58.2184 57.405 58.1877 57.3002 58.183 57.1927C58.183 56.9917 58.3209 56.9112 58.4932 57.0147Z" fill="url(#paint76_linear_136_5240)"/>
<path d="M60.5901 58.2038C60.6787 58.2632 60.7523 58.3424 60.8052 58.4351C60.858 58.5278 60.8886 58.6315 60.8945 58.738C60.8945 58.9333 60.7566 59.0138 60.5843 58.9161C60.4936 58.8584 60.4182 58.7797 60.3642 58.6867C60.3102 58.5938 60.2793 58.4892 60.2741 58.3819C60.2741 58.2038 60.4177 58.1233 60.5901 58.2038Z" fill="url(#paint77_linear_136_5240)"/>
<path d="M58.4875 59.4159C58.5769 59.4759 58.6509 59.556 58.7038 59.6498C58.7567 59.7436 58.7869 59.8484 58.7919 59.956C58.7919 60.1513 58.6541 60.226 58.4817 60.1283C58.3914 60.0702 58.3161 59.9915 58.2622 59.8986C58.2083 59.8057 58.1772 59.7013 58.1715 59.594C58.1715 59.3987 58.3151 59.3183 58.4875 59.4159Z" fill="url(#paint78_linear_136_5240)"/>
<path d="M60.5786 60.6281C60.6689 60.6862 60.7442 60.765 60.7981 60.8578C60.852 60.9507 60.8831 61.0551 60.8888 61.1624C60.8959 61.201 60.8909 61.2408 60.8745 61.2765C60.858 61.3121 60.8308 61.3417 60.7968 61.3613C60.7627 61.3808 60.7234 61.3893 60.6843 61.3856C60.6453 61.3818 60.6083 61.3661 60.5786 61.3405C60.4879 61.2827 60.4124 61.204 60.3584 61.1111C60.3044 61.0181 60.2736 60.9136 60.2683 60.8062C60.2683 60.6051 60.4062 60.5304 60.5786 60.6281Z" fill="url(#paint79_linear_136_5240)"/>
<path d="M58.4702 64.2416C58.5604 64.2984 58.6357 64.3761 58.6897 64.4681C58.7437 64.56 58.7748 64.6636 58.7805 64.7701C58.7805 64.9712 58.6368 65.0459 58.4702 64.9482C58.3789 64.8912 58.3029 64.8127 58.2488 64.7195C58.1948 64.6264 58.1643 64.5215 58.16 64.4139C58.16 64.2186 58.2979 64.1382 58.4702 64.2416Z" fill="url(#paint80_linear_136_5240)"/>
<path d="M60.5671 65.448C60.657 65.506 60.7316 65.5849 60.7846 65.6779C60.8376 65.7709 60.8674 65.8753 60.8715 65.9822C60.8715 66.1776 60.7337 66.2523 60.5671 66.1546C60.4762 66.0985 60.4004 66.021 60.3463 65.9289C60.2923 65.8367 60.2615 65.7328 60.2568 65.6261C60.2568 65.425 60.3947 65.3503 60.5671 65.448Z" fill="url(#paint81_linear_136_5240)"/>
<path d="M58.4817 61.8287C58.5704 61.8881 58.644 61.9673 58.6968 62.06C58.7497 62.1528 58.7802 62.2565 58.7862 62.363C58.7862 62.5641 58.6483 62.6387 58.476 62.5411C58.386 62.4826 58.311 62.4038 58.2571 62.311C58.2032 62.2182 58.1719 62.114 58.1658 62.0068C58.1658 61.8115 58.3094 61.7311 58.4817 61.8287Z" fill="url(#paint82_linear_136_5240)"/>
<path d="M60.5728 63.0409C60.6635 63.0987 60.739 63.1774 60.793 63.2703C60.8469 63.3633 60.8778 63.4678 60.883 63.5752C60.8902 63.6138 60.8852 63.6537 60.8687 63.6893C60.8522 63.725 60.8251 63.7546 60.791 63.7742C60.757 63.7937 60.7177 63.8022 60.6786 63.7985C60.6395 63.7947 60.6026 63.7789 60.5728 63.7533C60.4831 63.6945 60.4084 63.6156 60.3545 63.5229C60.3007 63.4301 60.2692 63.3261 60.2626 63.219C60.2626 63.018 60.4005 62.9375 60.5728 63.0409Z" fill="url(#paint83_linear_136_5240)"/>
<path d="M58.4415 66.6429C58.5322 66.7006 58.6077 66.7793 58.6616 66.8723C58.7156 66.9652 58.7465 67.0698 58.7517 67.1771C58.7517 67.3725 58.6081 67.4471 58.4415 67.3495C58.3502 67.2924 58.2742 67.214 58.2201 67.1209C58.166 67.0277 58.1356 66.9228 58.1313 66.8152C58.1543 66.6199 58.2921 66.5452 58.4415 66.6429Z" fill="url(#paint84_linear_136_5240)"/>
<path d="M60.5613 67.8493C60.65 67.9087 60.7236 67.9879 60.7765 68.0806C60.8293 68.1734 60.8599 68.277 60.8658 68.3836C60.8658 68.5789 60.7279 68.6594 60.5556 68.5617C60.4662 68.5026 60.3917 68.4236 60.3379 68.3309C60.2841 68.2382 60.2524 68.1344 60.2454 68.0274C60.2454 67.8263 60.389 67.7517 60.5613 67.8493Z" fill="url(#paint85_linear_136_5240)"/>
<path d="M58.4415 69.05C58.531 69.1071 58.6054 69.185 58.6584 69.277C58.7114 69.369 58.7415 69.4724 58.746 69.5785C58.746 69.7796 58.6081 69.86 58.4415 69.7623C58.3497 69.7044 58.2735 69.6249 58.2194 69.5308C58.1654 69.4367 58.1351 69.3308 58.1313 69.2223C58.1485 69.027 58.2864 68.9523 58.4415 69.05Z" fill="url(#paint86_linear_136_5240)"/>
<path d="M60.5556 70.2678C60.6449 70.3266 60.719 70.4056 60.7719 70.4985C60.8248 70.5913 60.855 70.6954 60.8601 70.8021C60.8601 70.9974 60.7222 71.0778 60.5498 70.9802C60.4588 70.9228 60.3831 70.8442 60.3291 70.7512C60.2751 70.6582 60.2444 70.5534 60.2396 70.4459C60.2396 70.2334 60.3832 70.1587 60.5556 70.2678Z" fill="url(#paint87_linear_136_5240)"/>
<path d="M28.5984 30.8955C28.7883 30.9145 28.966 30.9842 29.1189 31.0957L29.1248 31.1006L29.1316 31.1045L56.3699 46.8271C56.7836 47.0971 57.1367 47.452 57.4089 47.8633L57.5212 48.0439C57.8063 48.5376 57.9694 49.0904 58.0007 49.6572V50.2607L57.9099 82.6953V82.7031L57.9109 82.7109C57.93 82.8955 57.9013 83.0823 57.8259 83.249C57.751 83.4146 57.632 83.5585 57.4822 83.666L55.6648 84.6064C55.6624 84.5574 55.6581 84.5082 55.6531 84.4619C55.6427 84.3661 55.6317 84.282 55.6277 84.2061C55.6235 84.1249 55.631 84.0887 55.6355 84.0791L55.6365 84.0752C55.6732 83.9938 55.6506 83.9118 55.6316 83.8633C55.6101 83.8083 55.576 83.7512 55.5388 83.6973C55.464 83.5887 55.3572 83.4648 55.2537 83.3467C55.1473 83.2254 55.0439 83.1093 54.9636 83.0098C54.9239 82.9605 54.8927 82.9191 54.8718 82.8857C54.8627 82.8711 54.8566 82.8603 54.8533 82.8535L54.8513 82.8389L50.2673 54.6582L50.2654 54.6504L49.7546 52.3252L49.7507 52.3037L49.74 52.2852L49.6218 52.0879C49.3349 51.6412 48.9518 51.2621 48.5007 50.9785L27.6091 33.29L27.6042 33.2852L27.5984 33.2812L27.4558 33.1504C27.3977 33.091 27.3215 33.0096 27.2517 32.9395C27.1797 32.8671 27.1017 32.7931 27.0251 32.7354C26.9573 32.6842 26.8692 32.6305 26.7751 32.6182C26.7807 32.6201 26.776 32.62 26.7605 32.6064C26.741 32.5894 26.7158 32.5607 26.6853 32.5205C26.6239 32.4397 26.5579 32.333 26.4861 32.2197C26.4218 32.1183 26.3505 32.01 26.282 31.9277L28.0505 30.9834C28.2198 30.9052 28.4063 30.8763 28.5984 30.8955Z" fill="url(#paint88_linear_136_5240)" stroke="black" stroke-width="0.3"/>
<path d="M26.0977 31.9961C26.3155 31.8729 26.627 31.8629 27.001 32.0361L27.165 32.1221L54.4004 47.8398V47.8408C54.877 48.1505 55.2767 48.5682 55.5615 49.0615C55.8465 49.5551 56.0097 50.108 56.041 50.6748V50.6768C56.055 50.8798 56.055 51.0792 56.041 51.2822V51.293L55.9541 83.7275C55.9541 84.2343 55.7742 84.5527 55.5264 84.6953C55.2782 84.8381 54.9097 84.834 54.4688 84.582L36.1328 74.0049L30.8203 70.9385L27.1953 68.8447C26.7225 68.536 26.329 68.1171 26.0488 67.626C25.7683 67.1342 25.6051 66.5841 25.5762 66.0205L25.6699 33.6074V32.959C25.6699 32.4541 25.8494 32.1365 26.0977 31.9961Z" fill="white" stroke="black" stroke-width="0.3"/>
<path d="M42.9337 51.2212C43.1747 51.3598 43.3233 51.6166 43.3233 51.8946C43.3233 52.4919 42.6772 52.8656 42.1594 52.5679L31.7667 46.5921C31.5257 46.4535 31.3771 46.1967 31.3771 45.9187C31.3771 45.3214 32.0232 44.9477 32.541 45.2454L42.9337 51.2212Z" fill="url(#paint89_linear_136_5240)"/>
<path d="M47.9339 69.5784C48.1609 69.7093 48.3009 69.9514 48.3009 70.2135C48.3009 70.7776 47.6904 71.1304 47.2016 70.8486L31.7441 61.9378C31.517 61.8069 31.3771 61.5648 31.3771 61.3027C31.3771 60.7386 31.9876 60.3858 32.4763 60.6676L47.9339 69.5784Z" fill="url(#paint90_linear_136_5240)"/>
<path d="M47.9123 61.5441C48.1527 61.6827 48.3008 61.9391 48.3008 62.2166C48.3008 62.8139 47.6544 63.1874 47.1369 62.8891L31.7656 54.028C31.5252 53.8894 31.3771 53.633 31.3771 53.3555C31.3771 52.7582 32.0235 52.3847 32.541 52.683L47.9123 61.5441Z" fill="url(#paint91_linear_136_5240)"/>
<path d="M47.9137 57.9614C48.1532 58.0995 48.3008 58.3549 48.3008 58.6313C48.3008 59.2279 47.6539 59.5997 47.1384 59.2995L31.7417 50.3332C31.5159 50.2017 31.3771 49.9602 31.3771 49.6989C31.3771 49.1341 31.9883 48.7809 32.4777 49.063L47.9137 57.9614Z" fill="url(#paint92_linear_136_5240)"/>
<path d="M42.9337 62.6356C43.1747 62.7742 43.3233 63.031 43.3233 63.309C43.3233 63.9063 42.6772 64.2801 42.1594 63.9823L31.7667 58.0065C31.5257 57.8679 31.3771 57.6111 31.3771 57.3332C31.3771 56.7358 32.0232 56.3621 32.541 56.6598L42.9337 62.6356Z" fill="url(#paint93_linear_136_5240)"/>
<defs>
<filter id="filter0_dddd_136_5240" x="24.9648" y="21.6906" width="62.3715" height="70.3295" filterUnits="userSpaceOnUse" color-interpolation-filters="sRGB">
<feFlood flood-opacity="0" result="BackgroundImageFix"/>
<feColorMatrix in="SourceAlpha" type="matrix" values="0 0 0 0 0 0 0 0 0 0 0 0 0 0 0 0 0 0 127 0" result="hardAlpha"/>
<feOffset dy="1"/>
<feGaussianBlur stdDeviation="1"/>
<feColorMatrix type="matrix" values="0 0 0 0 0 0 0 0 0 0 0 0 0 0 0 0 0 0 0.1 0"/>
<feBlend mode="normal" in2="BackgroundImageFix" result="effect1_dropShadow_136_5240"/>
<feColorMatrix in="SourceAlpha" type="matrix" values="0 0 0 0 0 0 0 0 0 0 0 0 0 0 0 0 0 0 127 0" result="hardAlpha"/>
<feOffset dx="1" dy="3"/>
<feGaussianBlur stdDeviation="1.5"/>
<feColorMatrix type="matrix" values="0 0 0 0 0 0 0 0 0 0 0 0 0 0 0 0 0 0 0.09 0"/>
<feBlend mode="normal" in2="effect1_dropShadow_136_5240" result="effect2_dropShadow_136_5240"/>
<feColorMatrix in="SourceAlpha" type="matrix" values="0 0 0 0 0 0 0 0 0 0 0 0 0 0 0 0 0 0 127 0" result="hardAlpha"/>
<feOffset dx="3" dy="6"/>
<feGaussianBlur stdDeviation="2"/>
<feColorMatrix type="matrix" values="0 0 0 0 0 0 0 0 0 0 0 0 0 0 0 0 0 0 0.05 0"/>
<feBlend mode="normal" in2="effect2_dropShadow_136_5240" result="effect3_dropShadow_136_5240"/>
<feColorMatrix in="SourceAlpha" type="matrix" values="0 0 0 0 0 0 0 0 0 0 0 0 0 0 0 0 0 0 127 0" result="hardAlpha"/>
<feOffset dx="5" dy="10"/>
<feGaussianBlur stdDeviation="2"/>
<feColorMatrix type="matrix" values="0 0 0 0 0 0 0 0 0 0 0 0 0 0 0 0 0 0 0.01 0"/>
<feBlend mode="normal" in2="effect3_dropShadow_136_5240" result="effect4_dropShadow_136_5240"/>
<feBlend mode="normal" in="SourceGraphic" in2="effect4_dropShadow_136_5240" result="shape"/>
</filter>
<filter id="filter1_dddd_136_5240" x="24.9648" y="21.6906" width="62.3715" height="70.3295" filterUnits="userSpaceOnUse" color-interpolation-filters="sRGB">
<feFlood flood-opacity="0" result="BackgroundImageFix"/>
<feColorMatrix in="SourceAlpha" type="matrix" values="0 0 0 0 0 0 0 0 0 0 0 0 0 0 0 0 0 0 127 0" result="hardAlpha"/>
<feOffset dy="1"/>
<feGaussianBlur stdDeviation="1"/>
<feColorMatrix type="matrix" values="0 0 0 0 0 0 0 0 0 0 0 0 0 0 0 0 0 0 0.1 0"/>
<feBlend mode="normal" in2="BackgroundImageFix" result="effect1_dropShadow_136_5240"/>
<feColorMatrix in="SourceAlpha" type="matrix" values="0 0 0 0 0 0 0 0 0 0 0 0 0 0 0 0 0 0 127 0" result="hardAlpha"/>
<feOffset dx="1" dy="3"/>
<feGaussianBlur stdDeviation="1.5"/>
<feColorMatrix type="matrix" values="0 0 0 0 0 0 0 0 0 0 0 0 0 0 0 0 0 0 0.09 0"/>
<feBlend mode="normal" in2="effect1_dropShadow_136_5240" result="effect2_dropShadow_136_5240"/>
<feColorMatrix in="SourceAlpha" type="matrix" values="0 0 0 0 0 0 0 0 0 0 0 0 0 0 0 0 0 0 127 0" result="hardAlpha"/>
<feOffset dx="3" dy="6"/>
<feGaussianBlur stdDeviation="2"/>
<feColorMatrix type="matrix" values="0 0 0 0 0 0 0 0 0 0 0 0 0 0 0 0 0 0 0.05 0"/>
<feBlend mode="normal" in2="effect2_dropShadow_136_5240" result="effect3_dropShadow_136_5240"/>
<feColorMatrix in="SourceAlpha" type="matrix" values="0 0 0 0 0 0 0 0 0 0 0 0 0 0 0 0 0 0 127 0" result="hardAlpha"/>
<feOffset dx="5" dy="10"/>
<feGaussianBlur stdDeviation="2"/>
<feColorMatrix type="matrix" values="0 0 0 0 0 0 0 0 0 0 0 0 0 0 0 0 0 0 0.01 0"/>
<feBlend mode="normal" in2="effect3_dropShadow_136_5240" result="effect4_dropShadow_136_5240"/>
<feBlend mode="normal" in="SourceGraphic" in2="effect4_dropShadow_136_5240" result="shape"/>
</filter>
<filter id="filter2_d_136_5240" x="34.4316" y="26.1367" width="30.7761" height="53.1854" filterUnits="userSpaceOnUse" color-interpolation-filters="sRGB">
<feFlood flood-opacity="0" result="BackgroundImageFix"/>
<feColorMatrix in="SourceAlpha" type="matrix" values="0 0 0 0 0 0 0 0 0 0 0 0 0 0 0 0 0 0 127 0" result="hardAlpha"/>
<feOffset/>
<feColorMatrix type="matrix" values="0 0 0 0 0 0 0 0 0 0 0 0 0 0 0 0 0 0 0.1 0"/>
<feBlend mode="normal" in2="BackgroundImageFix" result="effect1_dropShadow_136_5240"/>
<feBlend mode="normal" in="SourceGraphic" in2="effect1_dropShadow_136_5240" result="shape"/>
</filter>
<linearGradient id="paint0_linear_136_5240" x1="55.2654" y1="0.896992" x2="58.9909" y2="109.929" gradientUnits="userSpaceOnUse">
<stop offset="0.318529" stop-color="white"/>
<stop offset="1" stop-color="#F5F5F5"/>
</linearGradient>
<linearGradient id="paint1_linear_136_5240" x1="26.3756" y1="10.7392" x2="49.8101" y2="135.71" gradientUnits="userSpaceOnUse">
<stop offset="0.0511799" stop-color="#7C2579"/>
<stop offset="0.49" stop-color="#C12C93"/>
<stop offset="0.775" stop-color="#E32F9F"/>
<stop offset="0.995" stop-color="#9A2884"/>
</linearGradient>
<linearGradient id="paint2_linear_136_5240" x1="41.8357" y1="-8.6405" x2="47.8298" y2="135.942" gradientUnits="userSpaceOnUse">
<stop offset="0.101092" stop-color="#BD7BD3"/>
<stop offset="0.225081" stop-color="#8678DB"/>
<stop offset="0.404045" stop-color="#1771EB"/>
</linearGradient>
<linearGradient id="paint3_linear_136_5240" x1="66.6768" y1="61.4832" x2="57.3414" y2="24.1107" gradientUnits="userSpaceOnUse">
<stop stop-color="#712575"/>
<stop offset="0.09" stop-color="#9A2884"/>
<stop offset="0.18" stop-color="#BF2C92"/>
<stop offset="0.27" stop-color="#DA2E9C"/>
<stop offset="0.34" stop-color="#EB30A2"/>
<stop offset="0.4" stop-color="#F131A5"/>
<stop offset="0.5" stop-color="#EC30A3"/>
<stop offset="0.61" stop-color="#DF2F9E"/>
<stop offset="0.72" stop-color="#C92D96"/>
<stop offset="0.83" stop-color="#AA2A8A"/>
<stop offset="0.95" stop-color="#83267C"/>
<stop offset="1" stop-color="#712575"/>
</linearGradient>
<linearGradient id="paint4_linear_136_5240" x1="70.215" y1="23.512" x2="70.215" y2="76.2294" gradientUnits="userSpaceOnUse">
<stop stop-color="#DA7ED0"/>
<stop offset="0.08" stop-color="#B17BD5"/>
<stop offset="0.19" stop-color="#8778DB"/>
<stop offset="0.3" stop-color="#6276E1"/>
<stop offset="0.41" stop-color="#4574E5"/>
<stop offset="0.54" stop-color="#2E72E8"/>
<stop offset="0.67" stop-color="#1D71EB"/>
<stop offset="0.81" stop-color="#1471EC"/>
<stop offset="1" stop-color="#1171ED"/>
</linearGradient>
<linearGradient id="paint5_linear_136_5240" x1="67.0613" y1="24.7063" x2="32.1141" y2="80.7435" gradientUnits="userSpaceOnUse">
<stop stop-color="#DA7ED0"/>
<stop offset="0.05" stop-color="#B77BD4"/>
<stop offset="0.11" stop-color="#9079DA"/>
<stop offset="0.18" stop-color="#6E77DF"/>
<stop offset="0.25" stop-color="#5175E3"/>
<stop offset="0.33" stop-color="#3973E7"/>
<stop offset="0.42" stop-color="#2772E9"/>
<stop offset="0.54" stop-color="#1A71EB"/>
<stop offset="0.68" stop-color="#1371EC"/>
<stop offset="1" stop-color="#1171ED"/>
</linearGradient>
<linearGradient id="paint6_linear_136_5240" x1="55.2654" y1="0.896992" x2="58.9909" y2="109.929" gradientUnits="userSpaceOnUse">
<stop offset="0.318529" stop-color="white"/>
<stop offset="1" stop-color="#F5F5F5"/>
</linearGradient>
<linearGradient id="paint7_linear_136_5240" x1="26.3756" y1="10.7392" x2="49.8101" y2="135.71" gradientUnits="userSpaceOnUse">
<stop offset="0.0511799" stop-color="#7C2579"/>
<stop offset="0.49" stop-color="#C12C93"/>
<stop offset="0.775" stop-color="#E32F9F"/>
<stop offset="0.995" stop-color="#9A2884"/>
</linearGradient>
<linearGradient id="paint8_linear_136_5240" x1="41.8357" y1="-8.6405" x2="47.8298" y2="135.942" gradientUnits="userSpaceOnUse">
<stop offset="0.101092" stop-color="#BD7BD3"/>
<stop offset="0.225081" stop-color="#8678DB"/>
<stop offset="0.404045" stop-color="#1771EB"/>
</linearGradient>
<linearGradient id="paint9_linear_136_5240" x1="66.6768" y1="61.4832" x2="57.3414" y2="24.1107" gradientUnits="userSpaceOnUse">
<stop stop-color="#712575"/>
<stop offset="0.09" stop-color="#9A2884"/>
<stop offset="0.18" stop-color="#BF2C92"/>
<stop offset="0.27" stop-color="#DA2E9C"/>
<stop offset="0.34" stop-color="#EB30A2"/>
<stop offset="0.4" stop-color="#F131A5"/>
<stop offset="0.5" stop-color="#EC30A3"/>
<stop offset="0.61" stop-color="#DF2F9E"/>
<stop offset="0.72" stop-color="#C92D96"/>
<stop offset="0.83" stop-color="#AA2A8A"/>
<stop offset="0.95" stop-color="#83267C"/>
<stop offset="1" stop-color="#712575"/>
</linearGradient>
<linearGradient id="paint10_linear_136_5240" x1="70.215" y1="23.512" x2="70.215" y2="76.2294" gradientUnits="userSpaceOnUse">
<stop stop-color="#DA7ED0"/>
<stop offset="0.08" stop-color="#B17BD5"/>
<stop offset="0.19" stop-color="#8778DB"/>
<stop offset="0.3" stop-color="#6276E1"/>
<stop offset="0.41" stop-color="#4574E5"/>
<stop offset="0.54" stop-color="#2E72E8"/>
<stop offset="0.67" stop-color="#1D71EB"/>
<stop offset="0.81" stop-color="#1471EC"/>
<stop offset="1" stop-color="#1171ED"/>
</linearGradient>
<linearGradient id="paint11_linear_136_5240" x1="67.0613" y1="24.7063" x2="32.1141" y2="80.7435" gradientUnits="userSpaceOnUse">
<stop stop-color="#DA7ED0"/>
<stop offset="0.05" stop-color="#B77BD4"/>
<stop offset="0.11" stop-color="#9079DA"/>
<stop offset="0.18" stop-color="#6E77DF"/>
<stop offset="0.25" stop-color="#5175E3"/>
<stop offset="0.33" stop-color="#3973E7"/>
<stop offset="0.42" stop-color="#2772E9"/>
<stop offset="0.54" stop-color="#1A71EB"/>
<stop offset="0.68" stop-color="#1371EC"/>
<stop offset="1" stop-color="#1171ED"/>
</linearGradient>
<linearGradient id="paint12_linear_136_5240" x1="55.2654" y1="0.896992" x2="58.9909" y2="109.929" gradientUnits="userSpaceOnUse">
<stop offset="0.318529" stop-color="white"/>
<stop offset="1" stop-color="#F5F5F5"/>
</linearGradient>
<linearGradient id="paint13_linear_136_5240" x1="53.5691" y1="-1.41113" x2="43.6215" y2="103.012" gradientUnits="userSpaceOnUse">
<stop offset="0.0969042" stop-color="#055678"/>
<stop offset="0.341009" stop-color="#199A8F"/>
<stop offset="0.560673" stop-color="#39B79E"/>
<stop offset="0.924315" stop-color="#83D88A"/>
</linearGradient>
<linearGradient id="paint14_linear_136_5240" x1="53.6428" y1="-2.9156" x2="43.4097" y2="104.505" gradientUnits="userSpaceOnUse">
<stop offset="0.0756847" stop-color="#83D88A"/>
<stop offset="0.439327" stop-color="#39B79E"/>
<stop offset="0.658991" stop-color="#199A8F"/>
<stop offset="0.903096" stop-color="#055678"/>
</linearGradient>
<linearGradient id="paint15_linear_136_5240" x1="61.4085" y1="15.76" x2="51.5135" y2="77.4626" gradientUnits="userSpaceOnUse">
<stop offset="0.0756847" stop-color="#83D88A"/>
<stop offset="0.439327" stop-color="#39B79E"/>
<stop offset="0.658991" stop-color="#199A8F"/>
<stop offset="0.903096" stop-color="#055678"/>
</linearGradient>
<linearGradient id="paint16_linear_136_5240" x1="26.5164" y1="-15.5348" x2="89.8435" y2="81.2787" gradientUnits="userSpaceOnUse">
<stop offset="0.167379" stop-color="#FF5C39"/>
<stop offset="0.381394" stop-color="#F4364C"/>
<stop offset="0.605463" stop-color="#C73ECC"/>
<stop offset="0.834442" stop-color="#0078D4"/>
</linearGradient>
<linearGradient id="paint17_linear_136_5240" x1="26.5164" y1="-15.5348" x2="89.8435" y2="81.2787" gradientUnits="userSpaceOnUse">
<stop offset="0.167379" stop-color="#FF5C39"/>
<stop offset="0.381394" stop-color="#F4364C"/>
<stop offset="0.605463" stop-color="#C73ECC"/>
<stop offset="0.834442" stop-color="#0078D4"/>
</linearGradient>
<linearGradient id="paint18_linear_136_5240" x1="26.5164" y1="-15.5348" x2="89.8435" y2="81.2787" gradientUnits="userSpaceOnUse">
<stop offset="0.167379" stop-color="#FF5C39"/>
<stop offset="0.381394" stop-color="#F4364C"/>
<stop offset="0.605463" stop-color="#C73ECC"/>
<stop offset="0.834442" stop-color="#0078D4"/>
</linearGradient>
<linearGradient id="paint19_linear_136_5240" x1="26.5164" y1="-15.5348" x2="89.8435" y2="81.2787" gradientUnits="userSpaceOnUse">
<stop offset="0.167379" stop-color="#FF5C39"/>
<stop offset="0.381394" stop-color="#F4364C"/>
<stop offset="0.605463" stop-color="#C73ECC"/>
<stop offset="0.834442" stop-color="#0078D4"/>
</linearGradient>
<linearGradient id="paint20_linear_136_5240" x1="26.5164" y1="-15.5348" x2="89.8435" y2="81.2787" gradientUnits="userSpaceOnUse">
<stop offset="0.167379" stop-color="#FF5C39"/>
<stop offset="0.381394" stop-color="#F4364C"/>
<stop offset="0.605463" stop-color="#C73ECC"/>
<stop offset="0.834442" stop-color="#0078D4"/>
</linearGradient>
<linearGradient id="paint21_linear_136_5240" x1="26.5164" y1="-15.5348" x2="89.8435" y2="81.2787" gradientUnits="userSpaceOnUse">
<stop offset="0.167379" stop-color="#FF5C39"/>
<stop offset="0.381394" stop-color="#F4364C"/>
<stop offset="0.605463" stop-color="#C73ECC"/>
<stop offset="0.834442" stop-color="#0078D4"/>
</linearGradient>
<linearGradient id="paint22_linear_136_5240" x1="26.5164" y1="-15.5348" x2="89.8435" y2="81.2787" gradientUnits="userSpaceOnUse">
<stop offset="0.167379" stop-color="#FF5C39"/>
<stop offset="0.381394" stop-color="#F4364C"/>
<stop offset="0.605463" stop-color="#C73ECC"/>
<stop offset="0.834442" stop-color="#0078D4"/>
</linearGradient>
<linearGradient id="paint23_linear_136_5240" x1="26.5164" y1="-15.5348" x2="89.8435" y2="81.2787" gradientUnits="userSpaceOnUse">
<stop offset="0.167379" stop-color="#FF5C39"/>
<stop offset="0.381394" stop-color="#F4364C"/>
<stop offset="0.605463" stop-color="#C73ECC"/>
<stop offset="0.834442" stop-color="#0078D4"/>
</linearGradient>
<linearGradient id="paint24_linear_136_5240" x1="26.5164" y1="-15.5348" x2="89.8435" y2="81.2787" gradientUnits="userSpaceOnUse">
<stop offset="0.167379" stop-color="#FF5C39"/>
<stop offset="0.381394" stop-color="#F4364C"/>
<stop offset="0.605463" stop-color="#C73ECC"/>
<stop offset="0.834442" stop-color="#0078D4"/>
</linearGradient>
<linearGradient id="paint25_linear_136_5240" x1="26.5164" y1="-15.5348" x2="89.8435" y2="81.2787" gradientUnits="userSpaceOnUse">
<stop offset="0.167379" stop-color="#FF5C39"/>
<stop offset="0.381394" stop-color="#F4364C"/>
<stop offset="0.605463" stop-color="#C73ECC"/>
<stop offset="0.834442" stop-color="#0078D4"/>
</linearGradient>
<linearGradient id="paint26_linear_136_5240" x1="26.5164" y1="-15.5348" x2="89.8435" y2="81.2787" gradientUnits="userSpaceOnUse">
<stop offset="0.167379" stop-color="#FF5C39"/>
<stop offset="0.381394" stop-color="#F4364C"/>
<stop offset="0.605463" stop-color="#C73ECC"/>
<stop offset="0.834442" stop-color="#0078D4"/>
</linearGradient>
<linearGradient id="paint27_linear_136_5240" x1="26.5164" y1="-15.5348" x2="89.8435" y2="81.2787" gradientUnits="userSpaceOnUse">
<stop offset="0.167379" stop-color="#FF5C39"/>
<stop offset="0.381394" stop-color="#F4364C"/>
<stop offset="0.605463" stop-color="#C73ECC"/>
<stop offset="0.834442" stop-color="#0078D4"/>
</linearGradient>
<linearGradient id="paint28_linear_136_5240" x1="26.5164" y1="-15.5348" x2="89.8435" y2="81.2787" gradientUnits="userSpaceOnUse">
<stop offset="0.167379" stop-color="#FF5C39"/>
<stop offset="0.381394" stop-color="#F4364C"/>
<stop offset="0.605463" stop-color="#C73ECC"/>
<stop offset="0.834442" stop-color="#0078D4"/>
</linearGradient>
<linearGradient id="paint29_linear_136_5240" x1="26.5164" y1="-15.5348" x2="89.8435" y2="81.2787" gradientUnits="userSpaceOnUse">
<stop offset="0.167379" stop-color="#FF5C39"/>
<stop offset="0.381394" stop-color="#F4364C"/>
<stop offset="0.605463" stop-color="#C73ECC"/>
<stop offset="0.834442" stop-color="#0078D4"/>
</linearGradient>
<linearGradient id="paint30_linear_136_5240" x1="26.5164" y1="-15.5348" x2="89.8435" y2="81.2787" gradientUnits="userSpaceOnUse">
<stop offset="0.167379" stop-color="#FF5C39"/>
<stop offset="0.381394" stop-color="#F4364C"/>
<stop offset="0.605463" stop-color="#C73ECC"/>
<stop offset="0.834442" stop-color="#0078D4"/>
</linearGradient>
<linearGradient id="paint31_linear_136_5240" x1="26.5164" y1="-15.5348" x2="89.8435" y2="81.2787" gradientUnits="userSpaceOnUse">
<stop offset="0.167379" stop-color="#FF5C39"/>
<stop offset="0.381394" stop-color="#F4364C"/>
<stop offset="0.605463" stop-color="#C73ECC"/>
<stop offset="0.834442" stop-color="#0078D4"/>
</linearGradient>
<linearGradient id="paint32_linear_136_5240" x1="26.5164" y1="-15.5348" x2="89.8435" y2="81.2787" gradientUnits="userSpaceOnUse">
<stop offset="0.167379" stop-color="#FF5C39"/>
<stop offset="0.381394" stop-color="#F4364C"/>
<stop offset="0.605463" stop-color="#C73ECC"/>
<stop offset="0.834442" stop-color="#0078D4"/>
</linearGradient>
<linearGradient id="paint33_linear_136_5240" x1="26.5164" y1="-15.5348" x2="89.8435" y2="81.2787" gradientUnits="userSpaceOnUse">
<stop offset="0.167379" stop-color="#FF5C39"/>
<stop offset="0.381394" stop-color="#F4364C"/>
<stop offset="0.605463" stop-color="#C73ECC"/>
<stop offset="0.834442" stop-color="#0078D4"/>
</linearGradient>
<linearGradient id="paint34_linear_136_5240" x1="26.5164" y1="-15.5348" x2="89.8435" y2="81.2787" gradientUnits="userSpaceOnUse">
<stop offset="0.167379" stop-color="#FF5C39"/>
<stop offset="0.381394" stop-color="#F4364C"/>
<stop offset="0.605463" stop-color="#C73ECC"/>
<stop offset="0.834442" stop-color="#0078D4"/>
</linearGradient>
<linearGradient id="paint35_linear_136_5240" x1="26.5164" y1="-15.5348" x2="89.8435" y2="81.2787" gradientUnits="userSpaceOnUse">
<stop offset="0.167379" stop-color="#FF5C39"/>
<stop offset="0.381394" stop-color="#F4364C"/>
<stop offset="0.605463" stop-color="#C73ECC"/>
<stop offset="0.834442" stop-color="#0078D4"/>
</linearGradient>
<linearGradient id="paint36_linear_136_5240" x1="26.5164" y1="-15.5348" x2="89.8435" y2="81.2787" gradientUnits="userSpaceOnUse">
<stop offset="0.167379" stop-color="#FF5C39"/>
<stop offset="0.381394" stop-color="#F4364C"/>
<stop offset="0.605463" stop-color="#C73ECC"/>
<stop offset="0.834442" stop-color="#0078D4"/>
</linearGradient>
<linearGradient id="paint37_linear_136_5240" x1="26.5164" y1="-15.5348" x2="89.8435" y2="81.2787" gradientUnits="userSpaceOnUse">
<stop offset="0.167379" stop-color="#FF5C39"/>
<stop offset="0.381394" stop-color="#F4364C"/>
<stop offset="0.605463" stop-color="#C73ECC"/>
<stop offset="0.834442" stop-color="#0078D4"/>
</linearGradient>
<linearGradient id="paint38_linear_136_5240" x1="26.5164" y1="-15.5348" x2="89.8435" y2="81.2787" gradientUnits="userSpaceOnUse">
<stop offset="0.167379" stop-color="#FF5C39"/>
<stop offset="0.381394" stop-color="#F4364C"/>
<stop offset="0.605463" stop-color="#C73ECC"/>
<stop offset="0.834442" stop-color="#0078D4"/>
</linearGradient>
<linearGradient id="paint39_linear_136_5240" x1="26.5164" y1="-15.5348" x2="89.8435" y2="81.2787" gradientUnits="userSpaceOnUse">
<stop offset="0.167379" stop-color="#FF5C39"/>
<stop offset="0.381394" stop-color="#F4364C"/>
<stop offset="0.605463" stop-color="#C73ECC"/>
<stop offset="0.834442" stop-color="#0078D4"/>
</linearGradient>
<linearGradient id="paint40_linear_136_5240" x1="26.5164" y1="-15.5348" x2="89.8435" y2="81.2787" gradientUnits="userSpaceOnUse">
<stop offset="0.167379" stop-color="#FF5C39"/>
<stop offset="0.381394" stop-color="#F4364C"/>
<stop offset="0.605463" stop-color="#C73ECC"/>
<stop offset="0.834442" stop-color="#0078D4"/>
</linearGradient>
<linearGradient id="paint41_linear_136_5240" x1="26.5164" y1="-15.5348" x2="89.8435" y2="81.2787" gradientUnits="userSpaceOnUse">
<stop offset="0.167379" stop-color="#FF5C39"/>
<stop offset="0.381394" stop-color="#F4364C"/>
<stop offset="0.605463" stop-color="#C73ECC"/>
<stop offset="0.834442" stop-color="#0078D4"/>
</linearGradient>
<linearGradient id="paint42_linear_136_5240" x1="26.5164" y1="-15.5348" x2="89.8435" y2="81.2787" gradientUnits="userSpaceOnUse">
<stop offset="0.167379" stop-color="#FF5C39"/>
<stop offset="0.381394" stop-color="#F4364C"/>
<stop offset="0.605463" stop-color="#C73ECC"/>
<stop offset="0.834442" stop-color="#0078D4"/>
</linearGradient>
<linearGradient id="paint43_linear_136_5240" x1="26.5164" y1="-15.5348" x2="89.8435" y2="81.2787" gradientUnits="userSpaceOnUse">
<stop offset="0.167379" stop-color="#FF5C39"/>
<stop offset="0.381394" stop-color="#F4364C"/>
<stop offset="0.605463" stop-color="#C73ECC"/>
<stop offset="0.834442" stop-color="#0078D4"/>
</linearGradient>
<linearGradient id="paint44_linear_136_5240" x1="26.5164" y1="-15.5348" x2="89.8435" y2="81.2787" gradientUnits="userSpaceOnUse">
<stop offset="0.167379" stop-color="#FF5C39"/>
<stop offset="0.381394" stop-color="#F4364C"/>
<stop offset="0.605463" stop-color="#C73ECC"/>
<stop offset="0.834442" stop-color="#0078D4"/>
</linearGradient>
<linearGradient id="paint45_linear_136_5240" x1="26.5164" y1="-15.5348" x2="89.8435" y2="81.2787" gradientUnits="userSpaceOnUse">
<stop offset="0.167379" stop-color="#FF5C39"/>
<stop offset="0.381394" stop-color="#F4364C"/>
<stop offset="0.605463" stop-color="#C73ECC"/>
<stop offset="0.834442" stop-color="#0078D4"/>
</linearGradient>
<linearGradient id="paint46_linear_136_5240" x1="26.5164" y1="-15.5348" x2="89.8435" y2="81.2787" gradientUnits="userSpaceOnUse">
<stop offset="0.167379" stop-color="#FF5C39"/>
<stop offset="0.381394" stop-color="#F4364C"/>
<stop offset="0.605463" stop-color="#C73ECC"/>
<stop offset="0.834442" stop-color="#0078D4"/>
</linearGradient>
<linearGradient id="paint47_linear_136_5240" x1="51.9893" y1="20.7171" x2="42.0943" y2="82.4198" gradientUnits="userSpaceOnUse">
<stop offset="0.0756847" stop-color="#83D88A"/>
<stop offset="0.439327" stop-color="#39B79E"/>
<stop offset="0.658991" stop-color="#199A8F"/>
<stop offset="0.903096" stop-color="#055678"/>
</linearGradient>
<linearGradient id="paint48_linear_136_5240" x1="15.9162" y1="-13.6313" x2="82.1812" y2="87.6736" gradientUnits="userSpaceOnUse">
<stop offset="0.167379" stop-color="#FF5C39"/>
<stop offset="0.381394" stop-color="#F4364C"/>
<stop offset="0.605463" stop-color="#C73ECC"/>
<stop offset="0.834442" stop-color="#0078D4"/>
</linearGradient>
<linearGradient id="paint49_linear_136_5240" x1="15.9162" y1="-13.6313" x2="82.1812" y2="87.6736" gradientUnits="userSpaceOnUse">
<stop offset="0.167379" stop-color="#FF5C39"/>
<stop offset="0.381394" stop-color="#F4364C"/>
<stop offset="0.605463" stop-color="#C73ECC"/>
<stop offset="0.834442" stop-color="#0078D4"/>
</linearGradient>
<linearGradient id="paint50_linear_136_5240" x1="15.9162" y1="-13.6313" x2="82.1812" y2="87.6736" gradientUnits="userSpaceOnUse">
<stop offset="0.167379" stop-color="#FF5C39"/>
<stop offset="0.381394" stop-color="#F4364C"/>
<stop offset="0.605463" stop-color="#C73ECC"/>
<stop offset="0.834442" stop-color="#0078D4"/>
</linearGradient>
<linearGradient id="paint51_linear_136_5240" x1="15.9162" y1="-13.6313" x2="82.1812" y2="87.6736" gradientUnits="userSpaceOnUse">
<stop offset="0.167379" stop-color="#FF5C39"/>
<stop offset="0.381394" stop-color="#F4364C"/>
<stop offset="0.605463" stop-color="#C73ECC"/>
<stop offset="0.834442" stop-color="#0078D4"/>
</linearGradient>
<linearGradient id="paint52_linear_136_5240" x1="15.9162" y1="-13.6313" x2="82.1812" y2="87.6736" gradientUnits="userSpaceOnUse">
<stop offset="0.167379" stop-color="#FF5C39"/>
<stop offset="0.381394" stop-color="#F4364C"/>
<stop offset="0.605463" stop-color="#C73ECC"/>
<stop offset="0.834442" stop-color="#0078D4"/>
</linearGradient>
<linearGradient id="paint53_linear_136_5240" x1="15.9162" y1="-13.6313" x2="82.1812" y2="87.6736" gradientUnits="userSpaceOnUse">
<stop offset="0.167379" stop-color="#FF5C39"/>
<stop offset="0.381394" stop-color="#F4364C"/>
<stop offset="0.605463" stop-color="#C73ECC"/>
<stop offset="0.834442" stop-color="#0078D4"/>
</linearGradient>
<linearGradient id="paint54_linear_136_5240" x1="15.9162" y1="-13.6313" x2="82.1812" y2="87.6736" gradientUnits="userSpaceOnUse">
<stop offset="0.167379" stop-color="#FF5C39"/>
<stop offset="0.381394" stop-color="#F4364C"/>
<stop offset="0.605463" stop-color="#C73ECC"/>
<stop offset="0.834442" stop-color="#0078D4"/>
</linearGradient>
<linearGradient id="paint55_linear_136_5240" x1="15.9162" y1="-13.6313" x2="82.1812" y2="87.6736" gradientUnits="userSpaceOnUse">
<stop offset="0.167379" stop-color="#FF5C39"/>
<stop offset="0.381394" stop-color="#F4364C"/>
<stop offset="0.605463" stop-color="#C73ECC"/>
<stop offset="0.834442" stop-color="#0078D4"/>
</linearGradient>
<linearGradient id="paint56_linear_136_5240" x1="15.9162" y1="-13.6313" x2="82.1812" y2="87.6736" gradientUnits="userSpaceOnUse">
<stop offset="0.167379" stop-color="#FF5C39"/>
<stop offset="0.381394" stop-color="#F4364C"/>
<stop offset="0.605463" stop-color="#C73ECC"/>
<stop offset="0.834442" stop-color="#0078D4"/>
</linearGradient>
<linearGradient id="paint57_linear_136_5240" x1="15.9162" y1="-13.6313" x2="82.1812" y2="87.6736" gradientUnits="userSpaceOnUse">
<stop offset="0.167379" stop-color="#FF5C39"/>
<stop offset="0.381394" stop-color="#F4364C"/>
<stop offset="0.605463" stop-color="#C73ECC"/>
<stop offset="0.834442" stop-color="#0078D4"/>
</linearGradient>
<linearGradient id="paint58_linear_136_5240" x1="15.9162" y1="-13.6313" x2="82.1812" y2="87.6736" gradientUnits="userSpaceOnUse">
<stop offset="0.167379" stop-color="#FF5C39"/>
<stop offset="0.381394" stop-color="#F4364C"/>
<stop offset="0.605463" stop-color="#C73ECC"/>
<stop offset="0.834442" stop-color="#0078D4"/>
</linearGradient>
<linearGradient id="paint59_linear_136_5240" x1="15.9162" y1="-13.6313" x2="82.1812" y2="87.6736" gradientUnits="userSpaceOnUse">
<stop offset="0.167379" stop-color="#FF5C39"/>
<stop offset="0.381394" stop-color="#F4364C"/>
<stop offset="0.605463" stop-color="#C73ECC"/>
<stop offset="0.834442" stop-color="#0078D4"/>
</linearGradient>
<linearGradient id="paint60_linear_136_5240" x1="15.9162" y1="-13.6313" x2="82.1812" y2="87.6736" gradientUnits="userSpaceOnUse">
<stop offset="0.167379" stop-color="#FF5C39"/>
<stop offset="0.381394" stop-color="#F4364C"/>
<stop offset="0.605463" stop-color="#C73ECC"/>
<stop offset="0.834442" stop-color="#0078D4"/>
</linearGradient>
<linearGradient id="paint61_linear_136_5240" x1="15.9162" y1="-13.6313" x2="82.1812" y2="87.6736" gradientUnits="userSpaceOnUse">
<stop offset="0.167379" stop-color="#FF5C39"/>
<stop offset="0.381394" stop-color="#F4364C"/>
<stop offset="0.605463" stop-color="#C73ECC"/>
<stop offset="0.834442" stop-color="#0078D4"/>
</linearGradient>
<linearGradient id="paint62_linear_136_5240" x1="15.9162" y1="-13.6313" x2="82.1812" y2="87.6736" gradientUnits="userSpaceOnUse">
<stop offset="0.167379" stop-color="#FF5C39"/>
<stop offset="0.381394" stop-color="#F4364C"/>
<stop offset="0.605463" stop-color="#C73ECC"/>
<stop offset="0.834442" stop-color="#0078D4"/>
</linearGradient>
<linearGradient id="paint63_linear_136_5240" x1="15.9162" y1="-13.6313" x2="82.1812" y2="87.6736" gradientUnits="userSpaceOnUse">
<stop offset="0.167379" stop-color="#FF5C39"/>
<stop offset="0.381394" stop-color="#F4364C"/>
<stop offset="0.605463" stop-color="#C73ECC"/>
<stop offset="0.834442" stop-color="#0078D4"/>
</linearGradient>
<linearGradient id="paint64_linear_136_5240" x1="15.9162" y1="-13.6313" x2="82.1812" y2="87.6736" gradientUnits="userSpaceOnUse">
<stop offset="0.167379" stop-color="#FF5C39"/>
<stop offset="0.381394" stop-color="#F4364C"/>
<stop offset="0.605463" stop-color="#C73ECC"/>
<stop offset="0.834442" stop-color="#0078D4"/>
</linearGradient>
<linearGradient id="paint65_linear_136_5240" x1="15.9162" y1="-13.6313" x2="82.1812" y2="87.6736" gradientUnits="userSpaceOnUse">
<stop offset="0.167379" stop-color="#FF5C39"/>
<stop offset="0.381394" stop-color="#F4364C"/>
<stop offset="0.605463" stop-color="#C73ECC"/>
<stop offset="0.834442" stop-color="#0078D4"/>
</linearGradient>
<linearGradient id="paint66_linear_136_5240" x1="15.9162" y1="-13.6313" x2="82.1812" y2="87.6736" gradientUnits="userSpaceOnUse">
<stop offset="0.167379" stop-color="#FF5C39"/>
<stop offset="0.381394" stop-color="#F4364C"/>
<stop offset="0.605463" stop-color="#C73ECC"/>
<stop offset="0.834442" stop-color="#0078D4"/>
</linearGradient>
<linearGradient id="paint67_linear_136_5240" x1="15.9162" y1="-13.6313" x2="82.1812" y2="87.6736" gradientUnits="userSpaceOnUse">
<stop offset="0.167379" stop-color="#FF5C39"/>
<stop offset="0.381394" stop-color="#F4364C"/>
<stop offset="0.605463" stop-color="#C73ECC"/>
<stop offset="0.834442" stop-color="#0078D4"/>
</linearGradient>
<linearGradient id="paint68_linear_136_5240" x1="15.9162" y1="-13.6313" x2="82.1812" y2="87.6736" gradientUnits="userSpaceOnUse">
<stop offset="0.167379" stop-color="#FF5C39"/>
<stop offset="0.381394" stop-color="#F4364C"/>
<stop offset="0.605463" stop-color="#C73ECC"/>
<stop offset="0.834442" stop-color="#0078D4"/>
</linearGradient>
<linearGradient id="paint69_linear_136_5240" x1="15.9162" y1="-13.6313" x2="82.1812" y2="87.6736" gradientUnits="userSpaceOnUse">
<stop offset="0.167379" stop-color="#FF5C39"/>
<stop offset="0.381394" stop-color="#F4364C"/>
<stop offset="0.605463" stop-color="#C73ECC"/>
<stop offset="0.834442" stop-color="#0078D4"/>
</linearGradient>
<linearGradient id="paint70_linear_136_5240" x1="15.9162" y1="-13.6313" x2="82.1812" y2="87.6736" gradientUnits="userSpaceOnUse">
<stop offset="0.167379" stop-color="#FF5C39"/>
<stop offset="0.381394" stop-color="#F4364C"/>
<stop offset="0.605463" stop-color="#C73ECC"/>
<stop offset="0.834442" stop-color="#0078D4"/>
</linearGradient>
<linearGradient id="paint71_linear_136_5240" x1="15.9162" y1="-13.6313" x2="82.1812" y2="87.6736" gradientUnits="userSpaceOnUse">
<stop offset="0.167379" stop-color="#FF5C39"/>
<stop offset="0.381394" stop-color="#F4364C"/>
<stop offset="0.605463" stop-color="#C73ECC"/>
<stop offset="0.834442" stop-color="#0078D4"/>
</linearGradient>
<linearGradient id="paint72_linear_136_5240" x1="15.9162" y1="-13.6313" x2="82.1812" y2="87.6736" gradientUnits="userSpaceOnUse">
<stop offset="0.167379" stop-color="#FF5C39"/>
<stop offset="0.381394" stop-color="#F4364C"/>
<stop offset="0.605463" stop-color="#C73ECC"/>
<stop offset="0.834442" stop-color="#0078D4"/>
</linearGradient>
<linearGradient id="paint73_linear_136_5240" x1="15.9162" y1="-13.6313" x2="82.1812" y2="87.6736" gradientUnits="userSpaceOnUse">
<stop offset="0.167379" stop-color="#FF5C39"/>
<stop offset="0.381394" stop-color="#F4364C"/>
<stop offset="0.605463" stop-color="#C73ECC"/>
<stop offset="0.834442" stop-color="#0078D4"/>
</linearGradient>
<linearGradient id="paint74_linear_136_5240" x1="15.9162" y1="-13.6313" x2="82.1812" y2="87.6736" gradientUnits="userSpaceOnUse">
<stop offset="0.167379" stop-color="#FF5C39"/>
<stop offset="0.381394" stop-color="#F4364C"/>
<stop offset="0.605463" stop-color="#C73ECC"/>
<stop offset="0.834442" stop-color="#0078D4"/>
</linearGradient>
<linearGradient id="paint75_linear_136_5240" x1="15.9162" y1="-13.6313" x2="82.1812" y2="87.6736" gradientUnits="userSpaceOnUse">
<stop offset="0.167379" stop-color="#FF5C39"/>
<stop offset="0.381394" stop-color="#F4364C"/>
<stop offset="0.605463" stop-color="#C73ECC"/>
<stop offset="0.834442" stop-color="#0078D4"/>
</linearGradient>
<linearGradient id="paint76_linear_136_5240" x1="15.9162" y1="-13.6313" x2="82.1812" y2="87.6736" gradientUnits="userSpaceOnUse">
<stop offset="0.167379" stop-color="#FF5C39"/>
<stop offset="0.381394" stop-color="#F4364C"/>
<stop offset="0.605463" stop-color="#C73ECC"/>
<stop offset="0.834442" stop-color="#0078D4"/>
</linearGradient>
<linearGradient id="paint77_linear_136_5240" x1="15.9162" y1="-13.6313" x2="82.1812" y2="87.6736" gradientUnits="userSpaceOnUse">
<stop offset="0.167379" stop-color="#FF5C39"/>
<stop offset="0.381394" stop-color="#F4364C"/>
<stop offset="0.605463" stop-color="#C73ECC"/>
<stop offset="0.834442" stop-color="#0078D4"/>
</linearGradient>
<linearGradient id="paint78_linear_136_5240" x1="15.9162" y1="-13.6313" x2="82.1812" y2="87.6736" gradientUnits="userSpaceOnUse">
<stop offset="0.167379" stop-color="#FF5C39"/>
<stop offset="0.381394" stop-color="#F4364C"/>
<stop offset="0.605463" stop-color="#C73ECC"/>
<stop offset="0.834442" stop-color="#0078D4"/>
</linearGradient>
<linearGradient id="paint79_linear_136_5240" x1="15.9162" y1="-13.6313" x2="82.1812" y2="87.6736" gradientUnits="userSpaceOnUse">
<stop offset="0.167379" stop-color="#FF5C39"/>
<stop offset="0.381394" stop-color="#F4364C"/>
<stop offset="0.605463" stop-color="#C73ECC"/>
<stop offset="0.834442" stop-color="#0078D4"/>
</linearGradient>
<linearGradient id="paint80_linear_136_5240" x1="15.9162" y1="-13.6313" x2="82.1812" y2="87.6736" gradientUnits="userSpaceOnUse">
<stop offset="0.167379" stop-color="#FF5C39"/>
<stop offset="0.381394" stop-color="#F4364C"/>
<stop offset="0.605463" stop-color="#C73ECC"/>
<stop offset="0.834442" stop-color="#0078D4"/>
</linearGradient>
<linearGradient id="paint81_linear_136_5240" x1="15.9162" y1="-13.6313" x2="82.1812" y2="87.6736" gradientUnits="userSpaceOnUse">
<stop offset="0.167379" stop-color="#FF5C39"/>
<stop offset="0.381394" stop-color="#F4364C"/>
<stop offset="0.605463" stop-color="#C73ECC"/>
<stop offset="0.834442" stop-color="#0078D4"/>
</linearGradient>
<linearGradient id="paint82_linear_136_5240" x1="15.9162" y1="-13.6313" x2="82.1812" y2="87.6736" gradientUnits="userSpaceOnUse">
<stop offset="0.167379" stop-color="#FF5C39"/>
<stop offset="0.381394" stop-color="#F4364C"/>
<stop offset="0.605463" stop-color="#C73ECC"/>
<stop offset="0.834442" stop-color="#0078D4"/>
</linearGradient>
<linearGradient id="paint83_linear_136_5240" x1="15.9162" y1="-13.6313" x2="82.1812" y2="87.6736" gradientUnits="userSpaceOnUse">
<stop offset="0.167379" stop-color="#FF5C39"/>
<stop offset="0.381394" stop-color="#F4364C"/>
<stop offset="0.605463" stop-color="#C73ECC"/>
<stop offset="0.834442" stop-color="#0078D4"/>
</linearGradient>
<linearGradient id="paint84_linear_136_5240" x1="15.9162" y1="-13.6313" x2="82.1812" y2="87.6736" gradientUnits="userSpaceOnUse">
<stop offset="0.167379" stop-color="#FF5C39"/>
<stop offset="0.381394" stop-color="#F4364C"/>
<stop offset="0.605463" stop-color="#C73ECC"/>
<stop offset="0.834442" stop-color="#0078D4"/>
</linearGradient>
<linearGradient id="paint85_linear_136_5240" x1="15.9162" y1="-13.6313" x2="82.1812" y2="87.6736" gradientUnits="userSpaceOnUse">
<stop offset="0.167379" stop-color="#FF5C39"/>
<stop offset="0.381394" stop-color="#F4364C"/>
<stop offset="0.605463" stop-color="#C73ECC"/>
<stop offset="0.834442" stop-color="#0078D4"/>
</linearGradient>
<linearGradient id="paint86_linear_136_5240" x1="15.9162" y1="-13.6313" x2="82.1812" y2="87.6736" gradientUnits="userSpaceOnUse">
<stop offset="0.167379" stop-color="#FF5C39"/>
<stop offset="0.381394" stop-color="#F4364C"/>
<stop offset="0.605463" stop-color="#C73ECC"/>
<stop offset="0.834442" stop-color="#0078D4"/>
</linearGradient>
<linearGradient id="paint87_linear_136_5240" x1="15.9162" y1="-13.6313" x2="82.1812" y2="87.6736" gradientUnits="userSpaceOnUse">
<stop offset="0.167379" stop-color="#FF5C39"/>
<stop offset="0.381394" stop-color="#F4364C"/>
<stop offset="0.605463" stop-color="#C73ECC"/>
<stop offset="0.834442" stop-color="#0078D4"/>
</linearGradient>
<linearGradient id="paint88_linear_136_5240" x1="42.9842" y1="26.3352" x2="33.0892" y2="88.0378" gradientUnits="userSpaceOnUse">
<stop offset="0.0756847" stop-color="#83D88A"/>
<stop offset="0.439327" stop-color="#39B79E"/>
<stop offset="0.658991" stop-color="#199A8F"/>
<stop offset="0.903096" stop-color="#055678"/>
</linearGradient>
<linearGradient id="paint89_linear_136_5240" x1="40.3213" y1="42.3874" x2="35.6653" y2="73.1297" gradientUnits="userSpaceOnUse">
<stop offset="0.0756847" stop-color="#83D88A"/>
<stop offset="0.439327" stop-color="#39B79E"/>
<stop offset="0.658991" stop-color="#199A8F"/>
<stop offset="0.903096" stop-color="#055678"/>
</linearGradient>
<linearGradient id="paint90_linear_136_5240" x1="40.3213" y1="42.3874" x2="35.6653" y2="73.1297" gradientUnits="userSpaceOnUse">
<stop offset="0.0756847" stop-color="#83D88A"/>
<stop offset="0.439327" stop-color="#39B79E"/>
<stop offset="0.658991" stop-color="#199A8F"/>
<stop offset="0.903096" stop-color="#055678"/>
</linearGradient>
<linearGradient id="paint91_linear_136_5240" x1="40.3213" y1="42.3874" x2="35.6653" y2="73.1297" gradientUnits="userSpaceOnUse">
<stop offset="0.0756847" stop-color="#83D88A"/>
<stop offset="0.439327" stop-color="#39B79E"/>
<stop offset="0.658991" stop-color="#199A8F"/>
<stop offset="0.903096" stop-color="#055678"/>
</linearGradient>
<linearGradient id="paint92_linear_136_5240" x1="40.3213" y1="42.3874" x2="35.6653" y2="73.1297" gradientUnits="userSpaceOnUse">
<stop offset="0.0756847" stop-color="#83D88A"/>
<stop offset="0.439327" stop-color="#39B79E"/>
<stop offset="0.658991" stop-color="#199A8F"/>
<stop offset="0.903096" stop-color="#055678"/>
</linearGradient>
<linearGradient id="paint93_linear_136_5240" x1="40.3213" y1="42.3874" x2="35.6653" y2="73.1297" gradientUnits="userSpaceOnUse">
<stop offset="0.0756847" stop-color="#83D88A"/>
<stop offset="0.439327" stop-color="#39B79E"/>
<stop offset="0.658991" stop-color="#199A8F"/>
<stop offset="0.903096" stop-color="#055678"/>
</linearGradient>
</defs>
</svg>
